<svg xmlns="http://www.w3.org/2000/svg" xmlns:xlink="http://www.w3.org/1999/xlink" width="480" zoomAndPan="magnify" viewBox="0 0 360 359.999987" height="480" preserveAspectRatio="xMidYMid meet" version="1.0"><defs><filter x="0%" y="0%" width="100%" height="100%" id="fa1a6078a0"><feColorMatrix values="0 0 0 0 1 0 0 0 0 1 0 0 0 0 1 0 0 0 1 0" color-interpolation-filters="sRGB"/></filter><g/><mask id="713120a4cc"><g filter="url(#fa1a6078a0)"><rect x="-36" width="432" fill="#000000" y="-35.999999" height="431.999984" fill-opacity="0.85"/></g></mask><clipPath id="09b572f7a0"><path d="M 0 0 L 218.59375 0 L 218.59375 360 L 0 360 Z M 0 0 " clip-rule="nonzero"/></clipPath><clipPath id="82fcda42ac"><path d="M 8.25 0 L 210.34375 0 C 214.898438 0 218.59375 3.695312 218.59375 8.25 L 218.59375 351.75 C 218.59375 356.304688 214.898438 360 210.34375 360 L 8.25 360 C 3.695312 360 0 356.304688 0 351.75 L 0 8.25 C 0 3.695312 3.695312 0 8.25 0 Z M 8.25 0 " clip-rule="nonzero"/></clipPath><clipPath id="b563adc4c2"><rect x="0" width="219" y="0" height="360"/></clipPath><mask id="61f790a42f"><g filter="url(#fa1a6078a0)"><rect x="-36" width="432" fill="#000000" y="-35.999999" height="431.999984" fill-opacity="0.85"/></g></mask><clipPath id="8de644687d"><path d="M 1 23 L 106 23 L 106 144 L 1 144 Z M 1 23 " clip-rule="nonzero"/></clipPath><clipPath id="3a471a30de"><path d="M 0.59375 140.632812 L 33.320312 0.402344 L 110.742188 18.46875 L 78.015625 158.703125 Z M 0.59375 140.632812 " clip-rule="nonzero"/></clipPath><clipPath id="574fdd8ba0"><path d="M 33.320312 0.402344 L 0.59375 140.632812 L 78.015625 158.703125 L 110.742188 18.46875 Z M 33.320312 0.402344 " clip-rule="nonzero"/></clipPath><clipPath id="075b54ae9b"><path d="M 33.320312 0.402344 L 0.59375 140.632812 L 78.015625 158.703125 L 110.742188 18.46875 Z M 33.320312 0.402344 " clip-rule="nonzero"/></clipPath><clipPath id="d0dd94a85b"><path d="M 92 14 L 109 14 L 109 33 L 92 33 Z M 92 14 " clip-rule="nonzero"/></clipPath><clipPath id="1299f6e31d"><path d="M 0.59375 140.632812 L 33.320312 0.402344 L 110.742188 18.46875 L 78.015625 158.703125 Z M 0.59375 140.632812 " clip-rule="nonzero"/></clipPath><clipPath id="c0cc673468"><path d="M 33.320312 0.402344 L 0.59375 140.632812 L 78.015625 158.703125 L 110.742188 18.46875 Z M 33.320312 0.402344 " clip-rule="nonzero"/></clipPath><clipPath id="b136a2dc55"><path d="M 33.320312 0.402344 L 0.59375 140.632812 L 78.015625 158.703125 L 110.742188 18.46875 Z M 33.320312 0.402344 " clip-rule="nonzero"/></clipPath><clipPath id="9ca17aae11"><rect x="0" width="112" y="0" height="159"/></clipPath><mask id="743e57db0a"><g filter="url(#fa1a6078a0)"><rect x="-36" width="432" fill="#000000" y="-35.999999" height="431.999984" fill-opacity="0.85"/></g></mask><clipPath id="aea4f42a77"><path d="M 0.441406 0 L 119 0 L 119 213.703125 L 0.441406 213.703125 Z M 0.441406 0 " clip-rule="nonzero"/></clipPath><clipPath id="01331c6243"><path d="M 8.085938 0 L 111.5 0 C 113.488281 0 115.398438 0.789062 116.804688 2.195312 C 118.210938 3.601562 119 5.511719 119 7.5 L 119 205.960938 C 119 207.949219 118.210938 209.859375 116.804688 211.265625 C 115.398438 212.671875 113.488281 213.460938 111.5 213.460938 L 8.085938 213.460938 C 6.09375 213.460938 4.1875 212.671875 2.78125 211.265625 C 1.375 209.859375 0.585938 207.949219 0.585938 205.960938 L 0.585938 7.5 C 0.585938 5.511719 1.375 3.601562 2.78125 2.195312 C 4.1875 0.789062 6.09375 0 8.085938 0 Z M 8.085938 0 " clip-rule="nonzero"/></clipPath><clipPath id="feef658fee"><rect x="0" width="119" y="0" height="214"/></clipPath><mask id="3a3d8172f6"><g filter="url(#fa1a6078a0)"><rect x="-36" width="432" fill="#000000" y="-35.999999" height="431.999984" fill-opacity="0.85"/></g></mask><clipPath id="d0766ad116"><path d="M 0.441406 0.160156 L 119 0.160156 L 119 130 L 0.441406 130 Z M 0.441406 0.160156 " clip-rule="nonzero"/></clipPath><clipPath id="178cf87850"><path d="M 8.085938 0.394531 L 111.5 0.394531 C 113.488281 0.394531 115.398438 1.183594 116.804688 2.589844 C 118.210938 3.996094 119 5.90625 119 7.894531 L 119 122.5 C 119 124.488281 118.210938 126.398438 116.804688 127.804688 C 115.398438 129.210938 113.488281 130 111.5 130 L 8.085938 130 C 6.09375 130 4.1875 129.210938 2.78125 127.804688 C 1.375 126.398438 0.585938 124.488281 0.585938 122.5 L 0.585938 7.894531 C 0.585938 5.90625 1.375 3.996094 2.78125 2.589844 C 4.1875 1.183594 6.09375 0.394531 8.085938 0.394531 Z M 8.085938 0.394531 " clip-rule="nonzero"/></clipPath><clipPath id="2ad33b32e0"><rect x="0" width="119" y="0" height="130"/></clipPath><mask id="d4e97af6de"><g filter="url(#fa1a6078a0)"><rect x="-36" width="432" fill="#000000" y="-35.999999" height="431.999984" fill-opacity="0.49"/></g></mask><clipPath id="28b13123d3"><path d="M 23.171875 156 L 166.285156 156 L 166.285156 156.605469 L 23.171875 156.605469 Z M 23.171875 156 " clip-rule="nonzero"/></clipPath><clipPath id="745db95f95"><path d="M 23.171875 127 L 166.285156 127 L 166.285156 129 L 23.171875 129 Z M 23.171875 127 " clip-rule="nonzero"/></clipPath><clipPath id="001cec35d4"><path d="M 23.171875 99 L 166.285156 99 L 166.285156 100 L 23.171875 100 Z M 23.171875 99 " clip-rule="nonzero"/></clipPath><clipPath id="bcf52b0b04"><path d="M 23.171875 70 L 166.285156 70 L 166.285156 71 L 23.171875 71 Z M 23.171875 70 " clip-rule="nonzero"/></clipPath><clipPath id="df75b33bd3"><path d="M 23.171875 41 L 166.285156 41 L 166.285156 43 L 23.171875 43 Z M 23.171875 41 " clip-rule="nonzero"/></clipPath><clipPath id="007f489a96"><path d="M 23.171875 13.496094 L 166.285156 13.496094 L 166.285156 14 L 23.171875 14 Z M 23.171875 13.496094 " clip-rule="nonzero"/></clipPath><clipPath id="14223a2d1f"><path d="M 15 154 L 19 154 L 19 158.992188 L 15 158.992188 Z M 15 154 " clip-rule="nonzero"/></clipPath><clipPath id="703ddc69bf"><path d="M 11.414062 68 L 15 68 L 15 73 L 11.414062 73 Z M 11.414062 68 " clip-rule="nonzero"/></clipPath><clipPath id="f20cb64b95"><path d="M 11.414062 40 L 15 40 L 15 45 L 11.414062 45 Z M 11.414062 40 " clip-rule="nonzero"/></clipPath><clipPath id="bfddd37c9b"><path d="M 12 11.109375 L 15 11.109375 L 15 16 L 12 16 Z M 12 11.109375 " clip-rule="nonzero"/></clipPath><clipPath id="111549e067"><path d="M 15 11.109375 L 19 11.109375 L 19 16 L 15 16 Z M 15 11.109375 " clip-rule="nonzero"/></clipPath><clipPath id="a79b4428d8"><path d="M 23.171875 133.707031 L 56.199219 133.707031 L 56.199219 156.605469 L 23.171875 156.605469 Z M 23.171875 133.707031 " clip-rule="nonzero"/></clipPath><clipPath id="c4cf370c15"><path d="M 23.171875 110.8125 L 56.199219 110.8125 L 56.199219 133.707031 L 23.171875 133.707031 Z M 23.171875 110.8125 " clip-rule="nonzero"/></clipPath><clipPath id="e4f77999fa"><path d="M 23.171875 99.363281 L 56.199219 99.363281 L 56.199219 110.8125 L 23.171875 110.8125 Z M 23.171875 99.363281 " clip-rule="nonzero"/></clipPath><clipPath id="c0a58b3c94"><path d="M 59.867188 122.261719 L 92.894531 122.261719 L 92.894531 156.605469 L 59.867188 156.605469 Z M 59.867188 122.261719 " clip-rule="nonzero"/></clipPath><clipPath id="53a7ca3778"><path d="M 59.867188 93.636719 L 92.894531 93.636719 L 92.894531 122.261719 L 59.867188 122.261719 Z M 59.867188 93.636719 " clip-rule="nonzero"/></clipPath><clipPath id="374c5362a7"><path d="M 59.867188 70.738281 L 92.894531 70.738281 L 92.894531 93.636719 L 59.867188 93.636719 Z M 59.867188 70.738281 " clip-rule="nonzero"/></clipPath><clipPath id="f9230abba0"><path d="M 96.5625 110.8125 L 129.589844 110.8125 L 129.589844 156.605469 L 96.5625 156.605469 Z M 96.5625 110.8125 " clip-rule="nonzero"/></clipPath><clipPath id="35f05fbf5e"><path d="M 96.5625 82.1875 L 129.589844 82.1875 L 129.589844 110.8125 L 96.5625 110.8125 Z M 96.5625 82.1875 " clip-rule="nonzero"/></clipPath><clipPath id="eb212e8f74"><path d="M 96.5625 53.566406 L 129.589844 53.566406 L 129.589844 82.1875 L 96.5625 82.1875 Z M 96.5625 53.566406 " clip-rule="nonzero"/></clipPath><clipPath id="df8d7a5e8d"><path d="M 133.257812 99.363281 L 166.285156 99.363281 L 166.285156 156.605469 L 133.257812 156.605469 Z M 133.257812 99.363281 " clip-rule="nonzero"/></clipPath><clipPath id="8cea6daa50"><path d="M 133.257812 30.667969 L 166.285156 30.667969 L 166.285156 99.363281 L 133.257812 99.363281 Z M 133.257812 30.667969 " clip-rule="nonzero"/></clipPath><clipPath id="7b8dbc8797"><path d="M 133.257812 13.496094 L 166.285156 13.496094 L 166.285156 30.667969 L 133.257812 30.667969 Z M 133.257812 13.496094 " clip-rule="nonzero"/></clipPath><clipPath id="0b6a5ddcc5"><rect x="0" width="178" y="0" height="171"/></clipPath><mask id="ee1781d3ba"><g filter="url(#fa1a6078a0)"><rect x="-36" width="432" fill="#000000" y="-35.999999" height="431.999984" fill-opacity="0.57"/></g></mask><clipPath id="2ce9f9861e"><path d="M 1.527344 0.121094 L 92.558594 0.121094 L 92.558594 90.84375 L 1.527344 90.84375 Z M 1.527344 0.121094 " clip-rule="nonzero"/></clipPath><clipPath id="9fb28cc809"><rect x="0" width="93" y="0" height="92"/></clipPath><mask id="4144506716"><g filter="url(#fa1a6078a0)"><rect x="-36" width="432" fill="#000000" y="-35.999999" height="431.999984" fill-opacity="0.52"/></g></mask><clipPath id="15e32aefc2"><path d="M 1.210938 1 L 92.371094 1 L 92.371094 93.234375 L 1.210938 93.234375 Z M 1.210938 1 " clip-rule="nonzero"/></clipPath><clipPath id="bb9bfd5388"><rect x="0" width="93" y="0" height="94"/></clipPath><mask id="ad9814e007"><g filter="url(#fa1a6078a0)"><rect x="-36" width="432" fill="#000000" y="-35.999999" height="431.999984" fill-opacity="0.58"/></g></mask><clipPath id="62683a55a3"><path d="M 0.242188 0.347656 L 89.492188 0.347656 L 89.492188 86.597656 L 0.242188 86.597656 Z M 0.242188 0.347656 " clip-rule="nonzero"/></clipPath><clipPath id="c824117cbe"><rect x="0" width="91" y="0" height="88"/></clipPath><mask id="6a9284be9c"><g filter="url(#fa1a6078a0)"><rect x="-36" width="432" fill="#000000" y="-35.999999" height="431.999984" fill-opacity="0.43"/></g></mask><clipPath id="27e8b29237"><path d="M 39 35 L 63 35 L 63 128.84375 L 39 128.84375 Z M 39 35 " clip-rule="nonzero"/></clipPath><clipPath id="113a086311"><path d="M 76 63 L 101 63 L 101 128.84375 L 76 128.84375 Z M 76 63 " clip-rule="nonzero"/></clipPath><clipPath id="4cd608771a"><path d="M 116 22 L 140 22 L 140 128.84375 L 116 128.84375 Z M 116 22 " clip-rule="nonzero"/></clipPath><clipPath id="4e10fdf42b"><path d="M 0.621094 65 L 25 65 L 25 128.84375 L 0.621094 128.84375 Z M 0.621094 65 " clip-rule="nonzero"/></clipPath><clipPath id="d824ff8fd1"><path d="M 1 0.59375 L 147.621094 0.59375 L 147.621094 75 L 1 75 Z M 1 0.59375 " clip-rule="nonzero"/></clipPath><clipPath id="0bf22f42a4"><rect x="0" width="149" y="0" height="129"/></clipPath></defs><g mask="url(#713120a4cc)"><g><g clip-path="url(#b563adc4c2)"><g clip-path="url(#09b572f7a0)"><g clip-path="url(#82fcda42ac)"><path fill="#1d2430" d="M 0 0 L 218.59375 0 L 218.59375 360.335938 L 0 360.335938 Z M 0 0 " fill-opacity="1" fill-rule="nonzero"/></g></g></g></g></g><g mask="url(#61f790a42f)"><g transform="matrix(1, 0, 0, 1, 218, 198)"><g clip-path="url(#9ca17aae11)"><g clip-path="url(#8de644687d)"><g clip-path="url(#3a471a30de)"><g clip-path="url(#574fdd8ba0)"><g clip-path="url(#075b54ae9b)"><path fill="#000000" d="M 105.421875 41.222656 L 105.421875 41.214844 C 105.664062 40.183594 105.8125 39.125 105.863281 38.066406 C 105.902344 37.234375 105.257812 36.527344 104.429688 36.488281 C 103.597656 36.449219 102.890625 37.097656 102.851562 37.925781 C 102.8125 38.804688 102.675781 39.691406 102.488281 40.539062 C 102.355469 41.097656 102.191406 41.65625 101.992188 42.199219 C 101.707031 42.988281 102.109375 43.851562 102.890625 44.136719 C 103.675781 44.421875 104.539062 44.015625 104.824219 43.230469 C 105.0625 42.574219 105.261719 41.898438 105.421875 41.222656 Z M 99.710938 50.378906 C 99.816406 49.929688 99.714844 49.4375 99.390625 49.054688 C 98.851562 48.421875 97.902344 48.347656 97.269531 48.886719 C 96.164062 49.832031 94.914062 50.671875 93.550781 51.378906 C 92.8125 51.761719 92.523438 52.675781 92.90625 53.414062 C 93.289062 54.15625 94.199219 54.445312 94.9375 54.058594 C 96.5 53.246094 97.941406 52.28125 99.222656 51.183594 C 99.476562 50.96875 99.640625 50.683594 99.710938 50.378906 Z M 103.867188 29.597656 C 103.945312 29.261719 103.914062 28.902344 103.746094 28.570312 C 102.996094 27.089844 102.042969 25.640625 100.921875 24.269531 C 100.394531 23.625 99.445312 23.535156 98.800781 24.0625 C 98.15625 24.59375 98.066406 25.546875 98.59375 26.191406 C 99.574219 27.390625 100.40625 28.652344 101.058594 29.941406 C 101.433594 30.683594 102.339844 30.980469 103.082031 30.601562 C 103.496094 30.390625 103.769531 30.015625 103.867188 29.597656 Z M 87.117188 55.726562 C 87.15625 55.550781 87.167969 55.363281 87.140625 55.175781 C 87.027344 54.347656 86.265625 53.773438 85.441406 53.886719 C 84.90625 53.960938 84.355469 54.023438 83.804688 54.070312 C 82.8125 54.15625 81.800781 54.210938 80.804688 54.238281 C 79.972656 54.261719 79.316406 54.957031 79.335938 55.789062 C 79.359375 56.625 80.050781 57.28125 80.882812 57.257812 C 81.9375 57.230469 83.003906 57.167969 84.054688 57.082031 C 84.660156 57.027344 85.265625 56.960938 85.855469 56.878906 C 86.488281 56.789062 86.976562 56.316406 87.113281 55.726562 Z M 59.125 134.46875 C 59.3125 133.664062 59.402344 132.832031 59.390625 131.992188 C 59.382812 131.160156 58.699219 130.492188 57.867188 130.503906 C 57.035156 130.515625 56.367188 131.203125 56.378906 132.035156 C 56.394531 133.390625 56.042969 134.699219 55.351562 135.835938 C 54.917969 136.550781 55.144531 137.476562 55.851562 137.910156 C 56.5625 138.34375 57.492188 138.117188 57.925781 137.40625 C 58.476562 136.492188 58.882812 135.507812 59.121094 134.46875 Z M 73.285156 55.703125 C 73.304688 55.621094 73.316406 55.539062 73.320312 55.457031 C 73.375 54.621094 72.746094 53.90625 71.914062 53.851562 C 70.265625 53.75 68.617188 53.691406 67.011719 53.683594 C 66.179688 53.679688 65.5 54.351562 65.492188 55.183594 C 65.488281 56.019531 66.15625 56.699219 66.988281 56.703125 C 68.539062 56.714844 70.128906 56.769531 71.71875 56.871094 C 72.464844 56.917969 73.121094 56.414062 73.285156 55.707031 Z M 55.558594 124.402344 C 55.675781 123.898438 55.53125 123.34375 55.125 122.960938 C 53.976562 121.871094 52.628906 120.917969 51.117188 120.125 L 50.832031 119.976562 C 50.089844 119.597656 49.179688 119.894531 48.800781 120.636719 C 48.421875 121.378906 48.714844 122.289062 49.457031 122.667969 L 49.714844 122.804688 C 50.984375 123.46875 52.109375 124.261719 53.058594 125.160156 C 53.660156 125.734375 54.617188 125.703125 55.1875 125.097656 C 55.375 124.894531 55.5 124.65625 55.558594 124.40625 Z M 50.726562 141.757812 C 50.773438 141.546875 50.777344 141.324219 50.730469 141.097656 C 50.554688 140.28125 49.753906 139.765625 48.941406 139.941406 C 47.546875 140.242188 46.101562 140.304688 44.648438 140.128906 C 43.820312 140.027344 43.070312 140.617188 42.96875 141.445312 C 42.863281 142.273438 43.453125 143.023438 44.277344 143.128906 C 46.066406 143.347656 47.847656 143.269531 49.570312 142.894531 C 50.160156 142.765625 50.59375 142.3125 50.722656 141.757812 Z M 59.445312 56.007812 C 59.484375 55.84375 59.496094 55.671875 59.476562 55.492188 C 59.382812 54.664062 58.636719 54.070312 57.8125 54.164062 C 56.160156 54.351562 54.519531 54.601562 52.9375 54.898438 C 52.117188 55.054688 51.578125 55.847656 51.734375 56.664062 C 51.886719 57.484375 52.675781 58.023438 53.492188 57.867188 C 55.003906 57.582031 56.570312 57.34375 58.152344 57.164062 C 58.800781 57.089844 59.308594 56.609375 59.449219 56.003906 Z M 43.09375 118.742188 C 43.097656 118.71875 43.101562 118.699219 43.105469 118.679688 C 43.261719 117.859375 42.726562 117.070312 41.910156 116.914062 C 40.261719 116.601562 38.574219 116.410156 36.898438 116.347656 C 36.070312 116.316406 35.371094 116.96875 35.335938 117.800781 C 35.304688 118.632812 35.953125 119.335938 36.785156 119.367188 C 38.308594 119.421875 39.84375 119.597656 41.347656 119.882812 C 42.144531 120.03125 42.914062 119.527344 43.097656 118.742188 Z M 37.5625 138.753906 C 37.707031 138.144531 37.457031 137.484375 36.898438 137.132812 C 35.683594 136.363281 34.433594 135.445312 33.1875 134.394531 C 32.550781 133.859375 31.597656 133.941406 31.0625 134.582031 C 30.527344 135.21875 30.609375 136.175781 31.246094 136.710938 C 32.597656 137.847656 33.960938 138.851562 35.292969 139.6875 C 35.996094 140.132812 36.925781 139.921875 37.371094 139.214844 C 37.460938 139.070312 37.527344 138.910156 37.5625 138.753906 Z M 45.957031 59.070312 C 46.019531 58.800781 46.007812 58.515625 45.910156 58.234375 C 45.640625 57.445312 44.78125 57.027344 43.996094 57.300781 C 42.425781 57.847656 40.875 58.457031 39.394531 59.109375 C 38.632812 59.445312 38.285156 60.335938 38.617188 61.097656 C 38.949219 61.859375 39.839844 62.207031 40.601562 61.875 C 42.011719 61.253906 43.480469 60.675781 44.976562 60.15625 C 45.484375 59.980469 45.839844 59.558594 45.953125 59.070312 Z M 27.300781 129.496094 C 27.410156 129.042969 27.304688 128.546875 26.976562 128.164062 C 26.449219 127.554688 25.929688 126.933594 25.421875 126.300781 C 24.9375 125.707031 24.464844 125.097656 24.011719 124.492188 C 23.515625 123.824219 22.570312 123.6875 21.902344 124.1875 C 21.238281 124.6875 21.101562 125.636719 21.597656 126.304688 C 22.074219 126.941406 22.570312 127.582031 23.078125 128.207031 C 23.609375 128.863281 24.148438 129.507812 24.695312 130.140625 C 25.238281 130.773438 26.191406 130.839844 26.820312 130.292969 C 27.070312 130.078125 27.230469 129.796875 27.300781 129.496094 Z M 29.355469 119.191406 C 29.414062 118.957031 29.410156 118.703125 29.34375 118.453125 C 29.125 117.648438 28.300781 117.175781 27.496094 117.394531 C 25.816406 117.851562 24.210938 118.453125 22.71875 119.183594 C 21.96875 119.550781 21.660156 120.457031 22.023438 121.207031 C 22.390625 121.957031 23.292969 122.265625 24.039062 121.898438 C 25.359375 121.253906 26.789062 120.714844 28.285156 120.308594 C 28.835938 120.15625 29.234375 119.714844 29.355469 119.191406 Z M 33.519531 65.136719 C 33.609375 64.75 33.546875 64.324219 33.3125 63.964844 C 32.855469 63.269531 31.921875 63.074219 31.226562 63.53125 C 29.828125 64.453125 28.476562 65.441406 27.210938 66.472656 C 26.5625 67 26.464844 67.949219 26.988281 68.597656 C 27.511719 69.246094 28.460938 69.34375 29.105469 68.820312 C 30.296875 67.851562 31.566406 66.921875 32.878906 66.058594 C 33.210938 65.835938 33.433594 65.5 33.519531 65.136719 Z M 19.480469 118.074219 C 19.558594 117.738281 19.523438 117.375 19.355469 117.042969 C 18.640625 115.640625 17.996094 114.207031 17.441406 112.78125 C 17.140625 112.003906 16.265625 111.621094 15.488281 111.921875 C 14.714844 112.226562 14.332031 113.105469 14.632812 113.882812 C 15.226562 115.402344 15.910156 116.933594 16.671875 118.421875 C 17.050781 119.164062 17.957031 119.460938 18.699219 119.078125 C 19.109375 118.867188 19.382812 118.492188 19.480469 118.074219 Z M 17.570312 126.222656 C 17.679688 125.753906 17.566406 125.242188 17.222656 124.859375 C 16.660156 124.242188 15.707031 124.199219 15.09375 124.761719 C 13.953125 125.800781 12.761719 126.941406 11.554688 128.160156 C 10.96875 128.75 10.96875 129.707031 11.558594 130.292969 C 12.148438 130.882812 13.101562 130.878906 13.6875 130.289062 C 14.859375 129.105469 16.015625 128 17.117188 126.992188 C 17.351562 126.777344 17.503906 126.507812 17.570312 126.21875 Z M 23.230469 74.378906 C 23.355469 73.832031 23.175781 73.234375 22.710938 72.859375 C 22.066406 72.332031 21.117188 72.433594 20.59375 73.082031 C 19.539062 74.386719 18.554688 75.757812 17.679688 77.15625 C 17.234375 77.863281 17.445312 78.796875 18.148438 79.238281 C 18.851562 79.683594 19.785156 79.46875 20.226562 78.761719 C 21.042969 77.464844 21.953125 76.195312 22.929688 74.984375 C 23.078125 74.800781 23.179688 74.59375 23.230469 74.378906 Z M 7.914062 136.199219 C 8.035156 135.675781 7.875 135.105469 7.449219 134.726562 C 6.828125 134.171875 5.875 134.226562 5.320312 134.851562 C 4.675781 135.578125 4.070312 136.269531 3.515625 136.902344 C 3.011719 137.476562 2.546875 138.003906 2.128906 138.476562 C 1.574219 139.101562 1.628906 140.054688 2.25 140.609375 C 2.871094 141.164062 3.820312 141.109375 4.375 140.484375 C 4.800781 140.007812 5.269531 139.476562 5.777344 138.898438 C 6.328125 138.265625 6.929688 137.582031 7.570312 136.859375 C 7.746094 136.664062 7.859375 136.433594 7.914062 136.199219 Z M 15.105469 104.957031 C 15.148438 104.769531 15.160156 104.570312 15.125 104.367188 C 14.875 102.828125 14.714844 101.273438 14.652344 99.746094 C 14.617188 98.910156 13.914062 98.265625 13.082031 98.300781 C 12.253906 98.335938 11.605469 99.042969 11.640625 99.875 C 11.707031 101.527344 11.882812 103.203125 12.152344 104.859375 C 12.289062 105.683594 13.0625 106.238281 13.882812 106.101562 C 14.503906 106 14.972656 105.53125 15.105469 104.953125 Z M 16.539062 86.46875 C 16.714844 85.71875 16.296875 84.945312 15.554688 84.695312 C 14.765625 84.429688 13.914062 84.855469 13.648438 85.644531 C 13.113281 87.230469 12.679688 88.863281 12.355469 90.5 C 12.191406 91.320312 12.722656 92.113281 13.539062 92.277344 C 14.355469 92.4375 15.152344 91.910156 15.308594 91.085938 C 15.609375 89.570312 16.007812 88.066406 16.5 86.605469 C 16.515625 86.5625 16.53125 86.511719 16.542969 86.464844 Z M 16.539062 86.46875 " fill-opacity="1" fill-rule="nonzero"/></g></g></g></g><g clip-path="url(#d0dd94a85b)"><g clip-path="url(#1299f6e31d)"><g clip-path="url(#c0cc673468)"><g clip-path="url(#b136a2dc55)"><path fill="#000000" d="M 97.589844 20.867188 L 108.214844 22.859375 C 108.625 22.933594 108.820312 22.367188 108.445312 22.175781 L 93.339844 14.480469 C 93.089844 14.351562 92.796875 14.542969 92.8125 14.824219 L 93.707031 31.929688 C 93.730469 32.347656 94.320312 32.40625 94.421875 32 L 97.167969 21.132812 C 97.214844 20.949219 97.398438 20.828125 97.585938 20.867188 Z M 97.589844 20.867188 " fill-opacity="1" fill-rule="nonzero"/></g></g></g></g></g></g></g><g mask="url(#743e57db0a)"><g transform="matrix(1, 0, 0, 1, 241, 0)"><g clip-path="url(#feef658fee)"><g clip-path="url(#aea4f42a77)"><g clip-path="url(#01331c6243)"><path fill="#1d2430" d="M 0.585938 0 L 119 0 L 119 213.242188 L 0.585938 213.242188 Z M 0.585938 0 " fill-opacity="1" fill-rule="nonzero"/></g></g></g></g></g><g mask="url(#3a3d8172f6)"><g transform="matrix(1, 0, 0, 1, 241, 230)"><g clip-path="url(#2ad33b32e0)"><g clip-path="url(#d0766ad116)"><g clip-path="url(#178cf87850)"><path fill="#1d2430" d="M 0.585938 0.394531 L 119 0.394531 L 119 129.910156 L 0.585938 129.910156 Z M 0.585938 0.394531 " fill-opacity="1" fill-rule="nonzero"/></g></g></g></g></g><g mask="url(#d4e97af6de)"><g transform="matrix(1, 0, 0, 1, 16, 10)"><g clip-path="url(#0b6a5ddcc5)"><g clip-path="url(#28b13123d3)"><path stroke-linecap="butt" transform="matrix(0.397528, 0, 0, 0.397528, 23.173811, 13.496149)" fill="none" stroke-linejoin="miter" d="M -0.00486982 359.997823 L 360.002917 359.997823 " stroke="#ffffff" stroke-width="1" stroke-opacity="0.6" stroke-miterlimit="4"/></g><g clip-path="url(#745db95f95)"><path stroke-linecap="butt" transform="matrix(0.397528, 0, 0, 0.397528, 23.173811, 13.496149)" fill="none" stroke-linejoin="miter" d="M -0.00486982 288.000196 L 360.002917 288.000196 " stroke="#ffffff" stroke-width="1" stroke-opacity="0.251" stroke-miterlimit="4"/></g><g clip-path="url(#001cec35d4)"><path stroke-linecap="butt" transform="matrix(0.397528, 0, 0, 0.397528, 23.173811, 13.496149)" fill="none" stroke-linejoin="miter" d="M -0.00486982 216.002569 L 360.002917 216.002569 " stroke="#ffffff" stroke-width="1" stroke-opacity="0.251" stroke-miterlimit="4"/></g><g clip-path="url(#bcf52b0b04)"><path stroke-linecap="butt" transform="matrix(0.397528, 0, 0, 0.397528, 23.173811, 13.496149)" fill="none" stroke-linejoin="miter" d="M -0.00486982 143.995116 L 360.002917 143.995116 " stroke="#ffffff" stroke-width="1" stroke-opacity="0.251" stroke-miterlimit="4"/></g><g clip-path="url(#df75b33bd3)"><path stroke-linecap="butt" transform="matrix(0.397528, 0, 0, 0.397528, 23.173811, 13.496149)" fill="none" stroke-linejoin="miter" d="M -0.00486982 71.997489 L 360.002917 71.997489 " stroke="#ffffff" stroke-width="1" stroke-opacity="0.251" stroke-miterlimit="4"/></g><g clip-path="url(#007f489a96)"><path stroke-linecap="butt" transform="matrix(0.397528, 0, 0, 0.397528, 23.173811, 13.496149)" fill="none" stroke-linejoin="miter" d="M -0.00486982 -0.000138044 L 360.002917 -0.000138044 " stroke="#ffffff" stroke-width="1" stroke-opacity="0.251" stroke-miterlimit="4"/></g><g clip-path="url(#14223a2d1f)"><g fill="#ffffff" fill-opacity="1"><g transform="translate(14.999846, 158.593982)"><g><path d="M 1.984375 0.0625 C 1.679688 0.0625 1.410156 -0.0078125 1.171875 -0.15625 C 0.941406 -0.300781 0.753906 -0.523438 0.609375 -0.828125 C 0.472656 -1.140625 0.40625 -1.535156 0.40625 -2.015625 C 0.40625 -2.492188 0.472656 -2.882812 0.609375 -3.1875 C 0.753906 -3.5 0.941406 -3.722656 1.171875 -3.859375 C 1.410156 -4.003906 1.679688 -4.078125 1.984375 -4.078125 C 2.273438 -4.078125 2.535156 -4.003906 2.765625 -3.859375 C 3.003906 -3.722656 3.191406 -3.5 3.328125 -3.1875 C 3.472656 -2.882812 3.546875 -2.492188 3.546875 -2.015625 C 3.546875 -1.535156 3.472656 -1.140625 3.328125 -0.828125 C 3.191406 -0.523438 3.003906 -0.300781 2.765625 -0.15625 C 2.535156 -0.0078125 2.273438 0.0625 1.984375 0.0625 Z M 1.984375 -0.375 C 2.328125 -0.375 2.585938 -0.5 2.765625 -0.75 C 2.953125 -1.007812 3.046875 -1.429688 3.046875 -2.015625 C 3.046875 -2.597656 2.953125 -3.015625 2.765625 -3.265625 C 2.585938 -3.515625 2.328125 -3.640625 1.984375 -3.640625 C 1.753906 -3.640625 1.554688 -3.585938 1.390625 -3.484375 C 1.234375 -3.378906 1.113281 -3.207031 1.03125 -2.96875 C 0.945312 -2.726562 0.90625 -2.410156 0.90625 -2.015625 C 0.90625 -1.617188 0.945312 -1.300781 1.03125 -1.0625 C 1.113281 -0.820312 1.234375 -0.644531 1.390625 -0.53125 C 1.554688 -0.425781 1.753906 -0.375 1.984375 -0.375 Z M 1.984375 -0.375 "/></g></g></g></g><g fill="#ffffff" fill-opacity="1"><g transform="translate(12.360007, 129.971932)"><g><path d="M 0.28125 0 L 0.28125 -0.390625 L 1.390625 -0.390625 L 1.390625 -3.46875 L 1.328125 -3.484375 C 1.148438 -3.398438 0.992188 -3.332031 0.859375 -3.28125 C 0.722656 -3.238281 0.550781 -3.191406 0.34375 -3.140625 L 0.34375 -3.578125 C 0.550781 -3.628906 0.753906 -3.691406 0.953125 -3.765625 C 1.160156 -3.835938 1.34375 -3.925781 1.5 -4.03125 L 1.84375 -4.03125 L 1.84375 -0.390625 L 2.828125 -0.390625 L 2.828125 0 Z M 0.28125 0 "/></g></g></g><g fill="#ffffff" fill-opacity="1"><g transform="translate(15.25699, 129.971932)"><g><path d="M 1.984375 0.0625 C 1.679688 0.0625 1.410156 -0.0078125 1.171875 -0.15625 C 0.941406 -0.300781 0.753906 -0.523438 0.609375 -0.828125 C 0.472656 -1.140625 0.40625 -1.535156 0.40625 -2.015625 C 0.40625 -2.492188 0.472656 -2.882812 0.609375 -3.1875 C 0.753906 -3.5 0.941406 -3.722656 1.171875 -3.859375 C 1.410156 -4.003906 1.679688 -4.078125 1.984375 -4.078125 C 2.273438 -4.078125 2.535156 -4.003906 2.765625 -3.859375 C 3.003906 -3.722656 3.191406 -3.5 3.328125 -3.1875 C 3.472656 -2.882812 3.546875 -2.492188 3.546875 -2.015625 C 3.546875 -1.535156 3.472656 -1.140625 3.328125 -0.828125 C 3.191406 -0.523438 3.003906 -0.300781 2.765625 -0.15625 C 2.535156 -0.0078125 2.273438 0.0625 1.984375 0.0625 Z M 1.984375 -0.375 C 2.328125 -0.375 2.585938 -0.5 2.765625 -0.75 C 2.953125 -1.007812 3.046875 -1.429688 3.046875 -2.015625 C 3.046875 -2.597656 2.953125 -3.015625 2.765625 -3.265625 C 2.585938 -3.515625 2.328125 -3.640625 1.984375 -3.640625 C 1.753906 -3.640625 1.554688 -3.585938 1.390625 -3.484375 C 1.234375 -3.378906 1.113281 -3.207031 1.03125 -2.96875 C 0.945312 -2.726562 0.90625 -2.410156 0.90625 -2.015625 C 0.90625 -1.617188 0.945312 -1.300781 1.03125 -1.0625 C 1.113281 -0.820312 1.234375 -0.644531 1.390625 -0.53125 C 1.554688 -0.425781 1.753906 -0.375 1.984375 -0.375 Z M 1.984375 -0.375 "/></g></g></g><g fill="#ffffff" fill-opacity="1"><g transform="translate(12.260625, 101.349906)"><g><path d="M 0.25 -0.1875 C 0.25 -0.40625 0.269531 -0.582031 0.3125 -0.71875 C 0.363281 -0.851562 0.445312 -0.976562 0.5625 -1.09375 C 0.675781 -1.21875 0.863281 -1.375 1.125 -1.5625 L 1.5625 -1.875 C 1.726562 -2 1.863281 -2.109375 1.96875 -2.203125 C 2.070312 -2.304688 2.148438 -2.414062 2.203125 -2.53125 C 2.265625 -2.65625 2.296875 -2.789062 2.296875 -2.9375 C 2.296875 -3.175781 2.234375 -3.351562 2.109375 -3.46875 C 1.984375 -3.59375 1.785156 -3.65625 1.515625 -3.65625 C 1.304688 -3.65625 1.117188 -3.601562 0.953125 -3.5 C 0.785156 -3.40625 0.648438 -3.269531 0.546875 -3.09375 L 0.484375 -3.078125 L 0.203125 -3.375 C 0.335938 -3.59375 0.515625 -3.765625 0.734375 -3.890625 C 0.960938 -4.015625 1.222656 -4.078125 1.515625 -4.078125 C 1.804688 -4.078125 2.046875 -4.03125 2.234375 -3.9375 C 2.421875 -3.84375 2.554688 -3.707031 2.640625 -3.53125 C 2.734375 -3.363281 2.78125 -3.164062 2.78125 -2.9375 C 2.78125 -2.757812 2.742188 -2.59375 2.671875 -2.4375 C 2.597656 -2.28125 2.488281 -2.128906 2.34375 -1.984375 C 2.207031 -1.847656 2.035156 -1.707031 1.828125 -1.5625 L 1.390625 -1.234375 C 1.222656 -1.109375 1.09375 -1 1 -0.90625 C 0.90625 -0.820312 0.835938 -0.738281 0.796875 -0.65625 C 0.753906 -0.582031 0.734375 -0.492188 0.734375 -0.390625 L 2.78125 -0.390625 L 2.78125 0 L 0.25 0 Z M 0.25 -0.1875 "/></g></g></g><g fill="#ffffff" fill-opacity="1"><g transform="translate(15.355978, 101.349906)"><g><path d="M 1.984375 0.0625 C 1.679688 0.0625 1.410156 -0.0078125 1.171875 -0.15625 C 0.941406 -0.300781 0.753906 -0.523438 0.609375 -0.828125 C 0.472656 -1.140625 0.40625 -1.535156 0.40625 -2.015625 C 0.40625 -2.492188 0.472656 -2.882812 0.609375 -3.1875 C 0.753906 -3.5 0.941406 -3.722656 1.171875 -3.859375 C 1.410156 -4.003906 1.679688 -4.078125 1.984375 -4.078125 C 2.273438 -4.078125 2.535156 -4.003906 2.765625 -3.859375 C 3.003906 -3.722656 3.191406 -3.5 3.328125 -3.1875 C 3.472656 -2.882812 3.546875 -2.492188 3.546875 -2.015625 C 3.546875 -1.535156 3.472656 -1.140625 3.328125 -0.828125 C 3.191406 -0.523438 3.003906 -0.300781 2.765625 -0.15625 C 2.535156 -0.0078125 2.273438 0.0625 1.984375 0.0625 Z M 1.984375 -0.375 C 2.328125 -0.375 2.585938 -0.5 2.765625 -0.75 C 2.953125 -1.007812 3.046875 -1.429688 3.046875 -2.015625 C 3.046875 -2.597656 2.953125 -3.015625 2.765625 -3.265625 C 2.585938 -3.515625 2.328125 -3.640625 1.984375 -3.640625 C 1.753906 -3.640625 1.554688 -3.585938 1.390625 -3.484375 C 1.234375 -3.378906 1.113281 -3.207031 1.03125 -2.96875 C 0.945312 -2.726562 0.90625 -2.410156 0.90625 -2.015625 C 0.90625 -1.617188 0.945312 -1.300781 1.03125 -1.0625 C 1.113281 -0.820312 1.234375 -0.644531 1.390625 -0.53125 C 1.554688 -0.425781 1.753906 -0.375 1.984375 -0.375 Z M 1.984375 -0.375 "/></g></g></g><g clip-path="url(#703ddc69bf)"><g fill="#ffffff" fill-opacity="1"><g transform="translate(11.776136, 72.727864)"><g><path d="M 1.59375 0.0625 C 1.207031 0.0625 0.894531 -0.0234375 0.65625 -0.203125 C 0.425781 -0.378906 0.28125 -0.625 0.21875 -0.9375 L 0.5625 -1.09375 L 0.640625 -1.09375 C 0.703125 -0.851562 0.804688 -0.671875 0.953125 -0.546875 C 1.097656 -0.429688 1.3125 -0.375 1.59375 -0.375 C 1.875 -0.375 2.085938 -0.4375 2.234375 -0.5625 C 2.390625 -0.695312 2.46875 -0.890625 2.46875 -1.140625 C 2.46875 -1.390625 2.390625 -1.578125 2.234375 -1.703125 C 2.085938 -1.835938 1.851562 -1.90625 1.53125 -1.90625 L 1.09375 -1.90625 L 1.09375 -2.296875 L 1.484375 -2.296875 C 1.734375 -2.296875 1.929688 -2.359375 2.078125 -2.484375 C 2.234375 -2.609375 2.3125 -2.785156 2.3125 -3.015625 C 2.3125 -3.234375 2.242188 -3.394531 2.109375 -3.5 C 1.984375 -3.613281 1.800781 -3.671875 1.5625 -3.671875 C 1.164062 -3.671875 0.878906 -3.507812 0.703125 -3.1875 L 0.640625 -3.171875 L 0.375 -3.46875 C 0.476562 -3.65625 0.632812 -3.800781 0.84375 -3.90625 C 1.050781 -4.019531 1.289062 -4.078125 1.5625 -4.078125 C 1.820312 -4.078125 2.039062 -4.035156 2.21875 -3.953125 C 2.40625 -3.878906 2.546875 -3.765625 2.640625 -3.609375 C 2.734375 -3.460938 2.78125 -3.285156 2.78125 -3.078125 C 2.78125 -2.878906 2.722656 -2.703125 2.609375 -2.546875 C 2.492188 -2.398438 2.34375 -2.285156 2.15625 -2.203125 L 2.15625 -2.140625 C 2.414062 -2.078125 2.613281 -1.957031 2.75 -1.78125 C 2.882812 -1.601562 2.953125 -1.390625 2.953125 -1.140625 C 2.953125 -0.753906 2.835938 -0.457031 2.609375 -0.25 C 2.378906 -0.0390625 2.039062 0.0625 1.59375 0.0625 Z M 1.59375 0.0625 "/></g></g></g></g><g fill="#ffffff" fill-opacity="1"><g transform="translate(15.047738, 72.727864)"><g><path d="M 1.984375 0.0625 C 1.679688 0.0625 1.410156 -0.0078125 1.171875 -0.15625 C 0.941406 -0.300781 0.753906 -0.523438 0.609375 -0.828125 C 0.472656 -1.140625 0.40625 -1.535156 0.40625 -2.015625 C 0.40625 -2.492188 0.472656 -2.882812 0.609375 -3.1875 C 0.753906 -3.5 0.941406 -3.722656 1.171875 -3.859375 C 1.410156 -4.003906 1.679688 -4.078125 1.984375 -4.078125 C 2.273438 -4.078125 2.535156 -4.003906 2.765625 -3.859375 C 3.003906 -3.722656 3.191406 -3.5 3.328125 -3.1875 C 3.472656 -2.882812 3.546875 -2.492188 3.546875 -2.015625 C 3.546875 -1.535156 3.472656 -1.140625 3.328125 -0.828125 C 3.191406 -0.523438 3.003906 -0.300781 2.765625 -0.15625 C 2.535156 -0.0078125 2.273438 0.0625 1.984375 0.0625 Z M 1.984375 -0.375 C 2.328125 -0.375 2.585938 -0.5 2.765625 -0.75 C 2.953125 -1.007812 3.046875 -1.429688 3.046875 -2.015625 C 3.046875 -2.597656 2.953125 -3.015625 2.765625 -3.265625 C 2.585938 -3.515625 2.328125 -3.640625 1.984375 -3.640625 C 1.753906 -3.640625 1.554688 -3.585938 1.390625 -3.484375 C 1.234375 -3.378906 1.113281 -3.207031 1.03125 -2.96875 C 0.945312 -2.726562 0.90625 -2.410156 0.90625 -2.015625 C 0.90625 -1.617188 0.945312 -1.300781 1.03125 -1.0625 C 1.113281 -0.820312 1.234375 -0.644531 1.390625 -0.53125 C 1.554688 -0.425781 1.753906 -0.375 1.984375 -0.375 Z M 1.984375 -0.375 "/></g></g></g><g clip-path="url(#f20cb64b95)"><g fill="#ffffff" fill-opacity="1"><g transform="translate(11.707811, 44.105826)"><g><path d="M 2.515625 0 L 2.078125 0 L 2.078125 -0.96875 L 0.1875 -0.96875 L 0.1875 -1.34375 L 1.96875 -4.03125 L 2.515625 -4.03125 L 2.515625 -1.34375 L 3.21875 -1.34375 L 3.21875 -0.96875 L 2.515625 -0.96875 Z M 0.734375 -1.40625 L 0.765625 -1.34375 L 2.078125 -1.34375 L 2.078125 -3.375 L 2.015625 -3.375 Z M 0.734375 -1.40625 "/></g></g></g></g><g fill="#ffffff" fill-opacity="1"><g transform="translate(15.11986, 44.105826)"><g><path d="M 1.984375 0.0625 C 1.679688 0.0625 1.410156 -0.0078125 1.171875 -0.15625 C 0.941406 -0.300781 0.753906 -0.523438 0.609375 -0.828125 C 0.472656 -1.140625 0.40625 -1.535156 0.40625 -2.015625 C 0.40625 -2.492188 0.472656 -2.882812 0.609375 -3.1875 C 0.753906 -3.5 0.941406 -3.722656 1.171875 -3.859375 C 1.410156 -4.003906 1.679688 -4.078125 1.984375 -4.078125 C 2.273438 -4.078125 2.535156 -4.003906 2.765625 -3.859375 C 3.003906 -3.722656 3.191406 -3.5 3.328125 -3.1875 C 3.472656 -2.882812 3.546875 -2.492188 3.546875 -2.015625 C 3.546875 -1.535156 3.472656 -1.140625 3.328125 -0.828125 C 3.191406 -0.523438 3.003906 -0.300781 2.765625 -0.15625 C 2.535156 -0.0078125 2.273438 0.0625 1.984375 0.0625 Z M 1.984375 -0.375 C 2.328125 -0.375 2.585938 -0.5 2.765625 -0.75 C 2.953125 -1.007812 3.046875 -1.429688 3.046875 -2.015625 C 3.046875 -2.597656 2.953125 -3.015625 2.765625 -3.265625 C 2.585938 -3.515625 2.328125 -3.640625 1.984375 -3.640625 C 1.753906 -3.640625 1.554688 -3.585938 1.390625 -3.484375 C 1.234375 -3.378906 1.113281 -3.207031 1.03125 -2.96875 C 0.945312 -2.726562 0.90625 -2.410156 0.90625 -2.015625 C 0.90625 -1.617188 0.945312 -1.300781 1.03125 -1.0625 C 1.113281 -0.820312 1.234375 -0.644531 1.390625 -0.53125 C 1.554688 -0.425781 1.753906 -0.375 1.984375 -0.375 Z M 1.984375 -0.375 "/></g></g></g><g clip-path="url(#bfddd37c9b)"><g fill="#ffffff" fill-opacity="1"><g transform="translate(11.745079, 15.48379)"><g><path d="M 1.65625 0.0625 C 1.28125 0.0625 0.976562 -0.0195312 0.75 -0.1875 C 0.53125 -0.351562 0.382812 -0.59375 0.3125 -0.90625 L 0.671875 -1.0625 L 0.734375 -1.046875 C 0.773438 -0.890625 0.832031 -0.757812 0.90625 -0.65625 C 0.976562 -0.5625 1.078125 -0.488281 1.203125 -0.4375 C 1.328125 -0.394531 1.476562 -0.375 1.65625 -0.375 C 1.925781 -0.375 2.132812 -0.453125 2.28125 -0.609375 C 2.4375 -0.773438 2.515625 -1.015625 2.515625 -1.328125 C 2.515625 -1.640625 2.441406 -1.875 2.296875 -2.03125 C 2.148438 -2.195312 1.945312 -2.28125 1.6875 -2.28125 C 1.476562 -2.28125 1.3125 -2.238281 1.1875 -2.15625 C 1.0625 -2.082031 0.953125 -1.960938 0.859375 -1.796875 L 0.484375 -1.828125 L 0.5625 -4.03125 L 2.8125 -4.03125 L 2.8125 -3.625 L 0.96875 -3.625 L 0.921875 -2.28125 L 0.984375 -2.28125 C 1.078125 -2.414062 1.191406 -2.515625 1.328125 -2.578125 C 1.460938 -2.648438 1.628906 -2.6875 1.828125 -2.6875 C 2.066406 -2.6875 2.273438 -2.632812 2.453125 -2.53125 C 2.628906 -2.425781 2.765625 -2.269531 2.859375 -2.0625 C 2.960938 -1.851562 3.015625 -1.609375 3.015625 -1.328125 C 3.015625 -1.035156 2.957031 -0.785156 2.84375 -0.578125 C 2.726562 -0.367188 2.566406 -0.207031 2.359375 -0.09375 C 2.160156 0.0078125 1.925781 0.0625 1.65625 0.0625 Z M 1.65625 0.0625 "/></g></g></g></g><g clip-path="url(#111549e067)"><g fill="#ffffff" fill-opacity="1"><g transform="translate(15.077266, 15.48379)"><g><path d="M 1.984375 0.0625 C 1.679688 0.0625 1.410156 -0.0078125 1.171875 -0.15625 C 0.941406 -0.300781 0.753906 -0.523438 0.609375 -0.828125 C 0.472656 -1.140625 0.40625 -1.535156 0.40625 -2.015625 C 0.40625 -2.492188 0.472656 -2.882812 0.609375 -3.1875 C 0.753906 -3.5 0.941406 -3.722656 1.171875 -3.859375 C 1.410156 -4.003906 1.679688 -4.078125 1.984375 -4.078125 C 2.273438 -4.078125 2.535156 -4.003906 2.765625 -3.859375 C 3.003906 -3.722656 3.191406 -3.5 3.328125 -3.1875 C 3.472656 -2.882812 3.546875 -2.492188 3.546875 -2.015625 C 3.546875 -1.535156 3.472656 -1.140625 3.328125 -0.828125 C 3.191406 -0.523438 3.003906 -0.300781 2.765625 -0.15625 C 2.535156 -0.0078125 2.273438 0.0625 1.984375 0.0625 Z M 1.984375 -0.375 C 2.328125 -0.375 2.585938 -0.5 2.765625 -0.75 C 2.953125 -1.007812 3.046875 -1.429688 3.046875 -2.015625 C 3.046875 -2.597656 2.953125 -3.015625 2.765625 -3.265625 C 2.585938 -3.515625 2.328125 -3.640625 1.984375 -3.640625 C 1.753906 -3.640625 1.554688 -3.585938 1.390625 -3.484375 C 1.234375 -3.378906 1.113281 -3.207031 1.03125 -2.96875 C 0.945312 -2.726562 0.90625 -2.410156 0.90625 -2.015625 C 0.90625 -1.617188 0.945312 -1.300781 1.03125 -1.0625 C 1.113281 -0.820312 1.234375 -0.644531 1.390625 -0.53125 C 1.554688 -0.425781 1.753906 -0.375 1.984375 -0.375 Z M 1.984375 -0.375 "/></g></g></g></g><g clip-path="url(#a79b4428d8)"><path fill="#6ce5e8" d="M 25.816406 99.363281 L 53.558594 99.363281 C 53.90625 99.363281 54.246094 99.429688 54.566406 99.5625 C 54.890625 99.699219 55.175781 99.886719 55.425781 100.136719 C 55.671875 100.382812 55.863281 100.667969 56 100.992188 C 56.132812 101.316406 56.199219 101.652344 56.199219 102.003906 L 56.199219 156.605469 C 56.199219 156.957031 56.132812 157.292969 56 157.617188 C 55.863281 157.941406 55.671875 158.226562 55.425781 158.472656 C 55.175781 158.722656 54.890625 158.914062 54.566406 159.046875 C 54.246094 159.179688 53.90625 159.25 53.558594 159.25 L 25.816406 159.25 C 25.464844 159.25 25.128906 159.179688 24.804688 159.046875 C 24.480469 158.914062 24.195312 158.722656 23.949219 158.472656 C 23.699219 158.226562 23.507812 157.941406 23.375 157.617188 C 23.242188 157.292969 23.171875 156.957031 23.171875 156.605469 L 23.171875 102.003906 C 23.171875 101.652344 23.242188 101.316406 23.375 100.992188 C 23.507812 100.667969 23.699219 100.382812 23.949219 100.136719 C 24.195312 99.886719 24.480469 99.699219 24.804688 99.5625 C 25.128906 99.429688 25.464844 99.363281 25.816406 99.363281 Z M 25.816406 99.363281 " fill-opacity="1" fill-rule="nonzero"/></g><g clip-path="url(#c4cf370c15)"><path fill="#41b8d5" d="M 25.816406 99.363281 L 53.558594 99.363281 C 53.90625 99.363281 54.246094 99.429688 54.566406 99.5625 C 54.890625 99.699219 55.175781 99.886719 55.425781 100.136719 C 55.671875 100.382812 55.863281 100.667969 56 100.992188 C 56.132812 101.316406 56.199219 101.652344 56.199219 102.003906 L 56.199219 156.605469 C 56.199219 156.957031 56.132812 157.292969 56 157.617188 C 55.863281 157.941406 55.671875 158.226562 55.425781 158.472656 C 55.175781 158.722656 54.890625 158.914062 54.566406 159.046875 C 54.246094 159.179688 53.90625 159.25 53.558594 159.25 L 25.816406 159.25 C 25.464844 159.25 25.128906 159.179688 24.804688 159.046875 C 24.480469 158.914062 24.195312 158.722656 23.949219 158.472656 C 23.699219 158.226562 23.507812 157.941406 23.375 157.617188 C 23.242188 157.292969 23.171875 156.957031 23.171875 156.605469 L 23.171875 102.003906 C 23.171875 101.652344 23.242188 101.316406 23.375 100.992188 C 23.507812 100.667969 23.699219 100.382812 23.949219 100.136719 C 24.195312 99.886719 24.480469 99.699219 24.804688 99.5625 C 25.128906 99.429688 25.464844 99.363281 25.816406 99.363281 Z M 25.816406 99.363281 " fill-opacity="1" fill-rule="nonzero"/></g><g clip-path="url(#e4f77999fa)"><path fill="#2d8bba" d="M 25.816406 99.363281 L 53.558594 99.363281 C 53.90625 99.363281 54.246094 99.429688 54.566406 99.5625 C 54.890625 99.699219 55.175781 99.886719 55.425781 100.136719 C 55.671875 100.382812 55.863281 100.667969 56 100.992188 C 56.132812 101.316406 56.199219 101.652344 56.199219 102.003906 L 56.199219 156.605469 C 56.199219 156.957031 56.132812 157.292969 56 157.617188 C 55.863281 157.941406 55.671875 158.226562 55.425781 158.472656 C 55.175781 158.722656 54.890625 158.914062 54.566406 159.046875 C 54.246094 159.179688 53.90625 159.25 53.558594 159.25 L 25.816406 159.25 C 25.464844 159.25 25.128906 159.179688 24.804688 159.046875 C 24.480469 158.914062 24.195312 158.722656 23.949219 158.472656 C 23.699219 158.226562 23.507812 157.941406 23.375 157.617188 C 23.242188 157.292969 23.171875 156.957031 23.171875 156.605469 L 23.171875 102.003906 C 23.171875 101.652344 23.242188 101.316406 23.375 100.992188 C 23.507812 100.667969 23.699219 100.382812 23.949219 100.136719 C 24.195312 99.886719 24.480469 99.699219 24.804688 99.5625 C 25.128906 99.429688 25.464844 99.363281 25.816406 99.363281 Z M 25.816406 99.363281 " fill-opacity="1" fill-rule="nonzero"/></g><g clip-path="url(#c0a58b3c94)"><path fill="#6ce5e8" d="M 62.511719 70.738281 L 90.253906 70.738281 C 90.601562 70.738281 90.941406 70.808594 91.261719 70.941406 C 91.585938 71.074219 91.871094 71.265625 92.121094 71.515625 C 92.367188 71.761719 92.558594 72.046875 92.691406 72.371094 C 92.828125 72.695312 92.894531 73.03125 92.894531 73.382812 L 92.894531 156.605469 C 92.894531 156.957031 92.828125 157.292969 92.691406 157.617188 C 92.558594 157.941406 92.367188 158.226562 92.121094 158.472656 C 91.871094 158.722656 91.585938 158.914062 91.261719 159.046875 C 90.941406 159.179688 90.601562 159.25 90.253906 159.25 L 62.511719 159.25 C 62.160156 159.25 61.824219 159.179688 61.5 159.046875 C 61.175781 158.914062 60.890625 158.722656 60.640625 158.472656 C 60.394531 158.226562 60.203125 157.941406 60.070312 157.617188 C 59.9375 157.292969 59.867188 156.957031 59.867188 156.605469 L 59.867188 73.382812 C 59.867188 73.03125 59.9375 72.695312 60.070312 72.371094 C 60.203125 72.046875 60.394531 71.761719 60.640625 71.515625 C 60.890625 71.265625 61.175781 71.074219 61.5 70.941406 C 61.824219 70.808594 62.160156 70.738281 62.511719 70.738281 Z M 62.511719 70.738281 " fill-opacity="1" fill-rule="nonzero"/></g><g clip-path="url(#53a7ca3778)"><path fill="#41b8d5" d="M 62.511719 70.738281 L 90.253906 70.738281 C 90.601562 70.738281 90.941406 70.808594 91.261719 70.941406 C 91.585938 71.074219 91.871094 71.265625 92.121094 71.515625 C 92.367188 71.761719 92.558594 72.046875 92.691406 72.371094 C 92.828125 72.695312 92.894531 73.03125 92.894531 73.382812 L 92.894531 156.605469 C 92.894531 156.957031 92.828125 157.292969 92.691406 157.617188 C 92.558594 157.941406 92.367188 158.226562 92.121094 158.472656 C 91.871094 158.722656 91.585938 158.914062 91.261719 159.046875 C 90.941406 159.179688 90.601562 159.25 90.253906 159.25 L 62.511719 159.25 C 62.160156 159.25 61.824219 159.179688 61.5 159.046875 C 61.175781 158.914062 60.890625 158.722656 60.640625 158.472656 C 60.394531 158.226562 60.203125 157.941406 60.070312 157.617188 C 59.9375 157.292969 59.867188 156.957031 59.867188 156.605469 L 59.867188 73.382812 C 59.867188 73.03125 59.9375 72.695312 60.070312 72.371094 C 60.203125 72.046875 60.394531 71.761719 60.640625 71.515625 C 60.890625 71.265625 61.175781 71.074219 61.5 70.941406 C 61.824219 70.808594 62.160156 70.738281 62.511719 70.738281 Z M 62.511719 70.738281 " fill-opacity="1" fill-rule="nonzero"/></g><g clip-path="url(#374c5362a7)"><path fill="#2d8bba" d="M 62.511719 70.738281 L 90.253906 70.738281 C 90.601562 70.738281 90.941406 70.808594 91.261719 70.941406 C 91.585938 71.074219 91.871094 71.265625 92.121094 71.515625 C 92.367188 71.761719 92.558594 72.046875 92.691406 72.371094 C 92.828125 72.695312 92.894531 73.03125 92.894531 73.382812 L 92.894531 156.605469 C 92.894531 156.957031 92.828125 157.292969 92.691406 157.617188 C 92.558594 157.941406 92.367188 158.226562 92.121094 158.472656 C 91.871094 158.722656 91.585938 158.914062 91.261719 159.046875 C 90.941406 159.179688 90.601562 159.25 90.253906 159.25 L 62.511719 159.25 C 62.160156 159.25 61.824219 159.179688 61.5 159.046875 C 61.175781 158.914062 60.890625 158.722656 60.640625 158.472656 C 60.394531 158.226562 60.203125 157.941406 60.070312 157.617188 C 59.9375 157.292969 59.867188 156.957031 59.867188 156.605469 L 59.867188 73.382812 C 59.867188 73.03125 59.9375 72.695312 60.070312 72.371094 C 60.203125 72.046875 60.394531 71.761719 60.640625 71.515625 C 60.890625 71.265625 61.175781 71.074219 61.5 70.941406 C 61.824219 70.808594 62.160156 70.738281 62.511719 70.738281 Z M 62.511719 70.738281 " fill-opacity="1" fill-rule="nonzero"/></g><g clip-path="url(#f9230abba0)"><path fill="#6ce5e8" d="M 99.207031 53.566406 L 126.945312 53.566406 C 127.296875 53.566406 127.632812 53.632812 127.957031 53.769531 C 128.28125 53.902344 128.566406 54.09375 128.816406 54.339844 C 129.0625 54.589844 129.253906 54.875 129.386719 55.199219 C 129.523438 55.523438 129.589844 55.859375 129.589844 56.210938 L 129.589844 156.605469 C 129.589844 156.957031 129.523438 157.292969 129.386719 157.617188 C 129.253906 157.941406 129.0625 158.226562 128.816406 158.472656 C 128.566406 158.722656 128.28125 158.914062 127.957031 159.046875 C 127.632812 159.179688 127.296875 159.25 126.945312 159.25 L 99.207031 159.25 C 98.855469 159.25 98.519531 159.179688 98.195312 159.046875 C 97.871094 158.914062 97.585938 158.722656 97.335938 158.472656 C 97.089844 158.226562 96.898438 157.941406 96.765625 157.617188 C 96.628906 157.292969 96.5625 156.957031 96.5625 156.605469 L 96.5625 56.210938 C 96.5625 55.859375 96.628906 55.523438 96.765625 55.199219 C 96.898438 54.875 97.089844 54.589844 97.335938 54.339844 C 97.585938 54.09375 97.871094 53.902344 98.195312 53.769531 C 98.519531 53.632812 98.855469 53.566406 99.207031 53.566406 Z M 99.207031 53.566406 " fill-opacity="1" fill-rule="nonzero"/></g><g clip-path="url(#35f05fbf5e)"><path fill="#41b8d5" d="M 99.207031 53.566406 L 126.945312 53.566406 C 127.296875 53.566406 127.632812 53.632812 127.957031 53.769531 C 128.28125 53.902344 128.566406 54.09375 128.816406 54.339844 C 129.0625 54.589844 129.253906 54.875 129.386719 55.199219 C 129.523438 55.523438 129.589844 55.859375 129.589844 56.210938 L 129.589844 156.605469 C 129.589844 156.957031 129.523438 157.292969 129.386719 157.617188 C 129.253906 157.941406 129.0625 158.226562 128.816406 158.472656 C 128.566406 158.722656 128.28125 158.914062 127.957031 159.046875 C 127.632812 159.179688 127.296875 159.25 126.945312 159.25 L 99.207031 159.25 C 98.855469 159.25 98.519531 159.179688 98.195312 159.046875 C 97.871094 158.914062 97.585938 158.722656 97.335938 158.472656 C 97.089844 158.226562 96.898438 157.941406 96.765625 157.617188 C 96.628906 157.292969 96.5625 156.957031 96.5625 156.605469 L 96.5625 56.210938 C 96.5625 55.859375 96.628906 55.523438 96.765625 55.199219 C 96.898438 54.875 97.089844 54.589844 97.335938 54.339844 C 97.585938 54.09375 97.871094 53.902344 98.195312 53.769531 C 98.519531 53.632812 98.855469 53.566406 99.207031 53.566406 Z M 99.207031 53.566406 " fill-opacity="1" fill-rule="nonzero"/></g><g clip-path="url(#eb212e8f74)"><path fill="#2d8bba" d="M 99.207031 53.566406 L 126.945312 53.566406 C 127.296875 53.566406 127.632812 53.632812 127.957031 53.769531 C 128.28125 53.902344 128.566406 54.09375 128.816406 54.339844 C 129.0625 54.589844 129.253906 54.875 129.386719 55.199219 C 129.523438 55.523438 129.589844 55.859375 129.589844 56.210938 L 129.589844 156.605469 C 129.589844 156.957031 129.523438 157.292969 129.386719 157.617188 C 129.253906 157.941406 129.0625 158.226562 128.816406 158.472656 C 128.566406 158.722656 128.28125 158.914062 127.957031 159.046875 C 127.632812 159.179688 127.296875 159.25 126.945312 159.25 L 99.207031 159.25 C 98.855469 159.25 98.519531 159.179688 98.195312 159.046875 C 97.871094 158.914062 97.585938 158.722656 97.335938 158.472656 C 97.089844 158.226562 96.898438 157.941406 96.765625 157.617188 C 96.628906 157.292969 96.5625 156.957031 96.5625 156.605469 L 96.5625 56.210938 C 96.5625 55.859375 96.628906 55.523438 96.765625 55.199219 C 96.898438 54.875 97.089844 54.589844 97.335938 54.339844 C 97.585938 54.09375 97.871094 53.902344 98.195312 53.769531 C 98.519531 53.632812 98.855469 53.566406 99.207031 53.566406 Z M 99.207031 53.566406 " fill-opacity="1" fill-rule="nonzero"/></g><g clip-path="url(#df8d7a5e8d)"><path fill="#6ce5e8" d="M 135.902344 13.496094 L 163.640625 13.496094 C 163.992188 13.496094 164.328125 13.5625 164.652344 13.695312 C 164.976562 13.832031 165.261719 14.023438 165.511719 14.269531 C 165.757812 14.519531 165.949219 14.804688 166.082031 15.128906 C 166.21875 15.449219 166.285156 15.789062 166.285156 16.136719 L 166.285156 156.605469 C 166.285156 156.957031 166.21875 157.292969 166.082031 157.617188 C 165.949219 157.941406 165.757812 158.226562 165.511719 158.472656 C 165.261719 158.722656 164.976562 158.914062 164.652344 159.046875 C 164.328125 159.179688 163.992188 159.25 163.640625 159.25 L 135.902344 159.25 C 135.550781 159.25 135.214844 159.179688 134.890625 159.046875 C 134.566406 158.914062 134.28125 158.722656 134.03125 158.472656 C 133.785156 158.226562 133.59375 157.941406 133.460938 157.617188 C 133.324219 157.292969 133.257812 156.957031 133.257812 156.605469 L 133.257812 16.136719 C 133.257812 15.789062 133.324219 15.449219 133.460938 15.128906 C 133.59375 14.804688 133.785156 14.519531 134.03125 14.269531 C 134.28125 14.023438 134.566406 13.832031 134.890625 13.695312 C 135.214844 13.5625 135.550781 13.496094 135.902344 13.496094 Z M 135.902344 13.496094 " fill-opacity="1" fill-rule="nonzero"/></g><g clip-path="url(#8cea6daa50)"><path fill="#41b8d5" d="M 135.902344 13.496094 L 163.640625 13.496094 C 163.992188 13.496094 164.328125 13.5625 164.652344 13.695312 C 164.976562 13.832031 165.261719 14.023438 165.511719 14.269531 C 165.757812 14.519531 165.949219 14.804688 166.082031 15.128906 C 166.21875 15.449219 166.285156 15.789062 166.285156 16.136719 L 166.285156 156.605469 C 166.285156 156.957031 166.21875 157.292969 166.082031 157.617188 C 165.949219 157.941406 165.757812 158.226562 165.511719 158.472656 C 165.261719 158.722656 164.976562 158.914062 164.652344 159.046875 C 164.328125 159.179688 163.992188 159.25 163.640625 159.25 L 135.902344 159.25 C 135.550781 159.25 135.214844 159.179688 134.890625 159.046875 C 134.566406 158.914062 134.28125 158.722656 134.03125 158.472656 C 133.785156 158.226562 133.59375 157.941406 133.460938 157.617188 C 133.324219 157.292969 133.257812 156.957031 133.257812 156.605469 L 133.257812 16.136719 C 133.257812 15.789062 133.324219 15.449219 133.460938 15.128906 C 133.59375 14.804688 133.785156 14.519531 134.03125 14.269531 C 134.28125 14.023438 134.566406 13.832031 134.890625 13.695312 C 135.214844 13.5625 135.550781 13.496094 135.902344 13.496094 Z M 135.902344 13.496094 " fill-opacity="1" fill-rule="nonzero"/></g><g clip-path="url(#7b8dbc8797)"><path fill="#2d8bba" d="M 135.902344 13.496094 L 163.640625 13.496094 C 163.992188 13.496094 164.328125 13.5625 164.652344 13.695312 C 164.976562 13.832031 165.261719 14.023438 165.511719 14.269531 C 165.757812 14.519531 165.949219 14.804688 166.082031 15.128906 C 166.21875 15.449219 166.285156 15.789062 166.285156 16.136719 L 166.285156 156.605469 C 166.285156 156.957031 166.21875 157.292969 166.082031 157.617188 C 165.949219 157.941406 165.757812 158.226562 165.511719 158.472656 C 165.261719 158.722656 164.976562 158.914062 164.652344 159.046875 C 164.328125 159.179688 163.992188 159.25 163.640625 159.25 L 135.902344 159.25 C 135.550781 159.25 135.214844 159.179688 134.890625 159.046875 C 134.566406 158.914062 134.28125 158.722656 134.03125 158.472656 C 133.785156 158.226562 133.59375 157.941406 133.460938 157.617188 C 133.324219 157.292969 133.257812 156.957031 133.257812 156.605469 L 133.257812 16.136719 C 133.257812 15.789062 133.324219 15.449219 133.460938 15.128906 C 133.59375 14.804688 133.785156 14.519531 134.03125 14.269531 C 134.28125 14.023438 134.566406 13.832031 134.890625 13.695312 C 135.214844 13.5625 135.550781 13.496094 135.902344 13.496094 Z M 135.902344 13.496094 " fill-opacity="1" fill-rule="nonzero"/></g></g></g></g><g mask="url(#ee1781d3ba)"><g transform="matrix(1, 0, 0, 1, 254, 111)"><g clip-path="url(#9fb28cc809)"><g clip-path="url(#2ce9f9861e)"><path fill="#2d8bba" d="M 92.023438 20.90625 C 92.023438 20.90625 63.691406 1.0625 63.691406 1.0625 C 62.289062 0.0820312 60.398438 0.0820312 58.996094 1.0625 L 30.660156 20.90625 C 30.199219 21.234375 30.085938 21.875 30.402344 22.339844 L 32.746094 25.683594 C 33.054688 26.144531 33.738281 26.257812 34.179688 25.941406 C 34.179688 25.941406 36.820312 24.09375 36.820312 24.09375 L 36.820312 30.832031 L 35.121094 29.632812 C 33.714844 28.652344 31.828125 28.652344 30.425781 29.632812 L 18.507812 37.980469 L 18.507812 36.402344 C 19.0625 36.402344 19.519531 35.9375 19.519531 35.371094 L 19.519531 31.285156 C 19.519531 30.71875 19.054688 30.253906 18.484375 30.253906 L 9.304688 30.253906 C 8.734375 30.253906 8.269531 30.71875 8.269531 31.285156 L 8.269531 35.371094 C 8.269531 35.9375 8.726562 36.402344 9.292969 36.402344 L 9.292969 44.429688 L 2.089844 49.476562 C 1.625 49.785156 1.511719 50.464844 1.832031 50.910156 C 1.832031 50.910156 4.175781 54.253906 4.175781 54.253906 C 4.371094 54.542969 4.691406 54.695312 5.019531 54.695312 C 5.226562 54.695312 5.433594 54.636719 5.609375 54.511719 L 8.269531 52.652344 L 8.269531 84.339844 L 5.773438 84.339844 C 5.207031 84.339844 4.742188 84.804688 4.742188 85.375 L 4.742188 89.550781 C 4.742188 90.121094 5.207031 90.585938 5.773438 90.585938 L 88.320312 90.585938 C 88.886719 90.585938 89.351562 90.121094 89.351562 89.550781 L 89.351562 85.375 C 89.351562 84.804688 88.886719 84.339844 88.320312 84.339844 L 85.824219 84.339844 C 85.824219 70.503906 85.824219 37.546875 85.824219 24.082031 L 88.484375 25.941406 C 88.949219 26.257812 89.589844 26.15625 89.921875 25.683594 C 89.921875 25.683594 92.261719 22.339844 92.261719 22.339844 C 92.59375 21.894531 92.46875 21.214844 92.003906 20.90625 Z M 10.355469 32.316406 L 17.476562 32.316406 L 17.476562 34.339844 L 10.355469 34.339844 Z M 11.375 36.402344 L 16.453125 36.402344 L 16.453125 39.425781 L 11.375 42.976562 Z M 5.289062 52.21875 L 4.132812 50.570312 L 31.621094 31.324219 C 32.324219 30.839844 33.25 30.839844 33.953125 31.324219 L 61.441406 50.570312 L 60.285156 52.21875 L 33.386719 33.390625 C 33.035156 33.140625 32.558594 33.140625 32.199219 33.390625 Z M 39.402344 84.332031 L 26.164062 84.332031 L 26.164062 62.929688 L 39.402344 62.929688 Z M 87.308594 88.511719 L 6.828125 88.511719 L 6.828125 86.394531 C 6.828125 86.394531 9.304688 86.394531 9.304688 86.394531 C 9.304688 86.394531 84.8125 86.394531 84.8125 86.394531 C 84.824219 86.394531 87.289062 86.394531 87.308594 86.394531 Z M 41.464844 84.332031 L 41.464844 61.898438 C 41.464844 61.332031 41 60.867188 40.433594 60.867188 L 25.132812 60.867188 C 24.5625 60.867188 24.097656 61.332031 24.097656 61.898438 L 24.097656 84.332031 L 10.355469 84.332031 L 10.355469 51.199219 L 32.789062 35.496094 L 59.945312 54.511719 C 60.390625 54.839844 61.070312 54.71875 61.378906 54.253906 C 61.378906 54.253906 63.722656 50.910156 63.722656 50.910156 C 64.050781 50.445312 63.9375 49.796875 63.464844 49.476562 L 59.410156 46.636719 L 83.78125 46.636719 L 83.78125 84.339844 L 41.464844 84.339844 Z M 83.78125 44.5625 L 56.457031 44.5625 L 38.894531 32.265625 L 38.894531 22.636719 L 61.347656 6.914062 L 83.78125 22.617188 Z M 88.847656 23.648438 L 61.945312 4.816406 C 61.773438 4.695312 61.566406 4.632812 61.359375 4.632812 C 61.152344 4.632812 60.945312 4.695312 60.769531 4.816406 L 33.871094 23.648438 L 32.714844 22 L 60.183594 2.753906 C 60.882812 2.269531 61.8125 2.269531 62.515625 2.753906 L 90.003906 22 Z M 88.847656 23.648438 " fill-opacity="1" fill-rule="nonzero"/></g><path fill="#2d8bba" d="M 55.230469 19.035156 C 54.664062 19.035156 54.199219 19.5 54.199219 20.070312 L 54.199219 32.316406 C 54.199219 32.882812 54.664062 33.347656 55.230469 33.347656 L 67.46875 33.347656 C 68.035156 33.347656 68.5 32.882812 68.5 32.316406 L 68.5 20.070312 C 68.5 19.5 68.035156 19.035156 67.46875 19.035156 Z M 60.316406 21.101562 L 60.316406 25.15625 L 56.261719 25.15625 L 56.261719 21.101562 Z M 56.261719 27.21875 L 60.316406 27.21875 L 60.316406 31.273438 L 56.261719 31.273438 Z M 62.378906 31.273438 L 62.378906 27.21875 L 66.4375 27.21875 L 66.4375 31.273438 Z M 66.4375 25.15625 L 62.378906 25.15625 L 62.378906 21.101562 L 66.4375 21.101562 Z M 66.4375 25.15625 " fill-opacity="1" fill-rule="nonzero"/><path fill="#2d8bba" d="M 67.46875 60.867188 L 55.230469 60.867188 C 54.664062 60.867188 54.199219 61.332031 54.199219 61.898438 L 54.199219 78.222656 C 54.199219 78.789062 54.664062 79.253906 55.230469 79.253906 L 67.46875 79.253906 C 68.035156 79.253906 68.5 78.789062 68.5 78.222656 L 68.5 61.898438 C 68.5 61.332031 68.035156 60.867188 67.46875 60.867188 Z M 66.4375 69.027344 L 62.378906 69.027344 L 62.378906 62.929688 L 66.4375 62.929688 Z M 60.316406 62.929688 L 60.316406 69.027344 L 56.261719 69.027344 L 56.261719 62.929688 Z M 56.261719 71.09375 L 60.316406 71.09375 L 60.316406 77.191406 L 56.261719 77.191406 Z M 62.378906 77.191406 L 62.378906 71.09375 L 66.4375 71.09375 L 66.4375 77.191406 Z M 62.378906 77.191406 " fill-opacity="1" fill-rule="nonzero"/><path fill="#2d8bba" d="M 32.789062 42.5 C 26.027344 42.71875 26.027344 52.507812 32.789062 52.726562 C 39.546875 52.507812 39.546875 42.71875 32.789062 42.5 Z M 32.789062 50.664062 C 28.761719 50.558594 28.761719 44.667969 32.789062 44.5625 C 36.8125 44.667969 36.8125 50.558594 32.789062 50.664062 Z M 32.789062 50.664062 " fill-opacity="1" fill-rule="nonzero"/></g></g></g><g mask="url(#4144506716)"><g transform="matrix(1, 0, 0, 1, 254, 248)"><g clip-path="url(#bb9bfd5388)"><g clip-path="url(#15e32aefc2)"><path fill="#5271ff" d="M 89.601562 79.480469 L 77.265625 79.480469 L 77.265625 82.136719 L 85.804688 82.136719 C 88.910156 82.136719 91.4375 84.664062 91.4375 87.769531 C 91.4375 90.875 88.910156 93.398438 85.804688 93.398438 L 50.46875 93.398438 C 47.363281 93.398438 44.835938 90.875 44.835938 87.769531 C 44.835938 84.664062 47.363281 82.136719 50.46875 82.136719 L 58.300781 82.136719 L 58.300781 79.480469 L 54.925781 79.480469 C 53.238281 79.480469 51.867188 78.109375 51.867188 76.421875 L 51.867188 72.042969 C 51.867188 71.324219 52.003906 70.617188 52.269531 69.949219 L 52.578125 69.171875 L 27.160156 45.871094 C 27.113281 45.828125 27.074219 45.777344 27.039062 45.726562 L 10.339844 19.707031 L 10.339844 43.691406 L 13.113281 48.054688 C 13.265625 48.292969 13.265625 48.601562 13.113281 48.839844 L 10.226562 53.382812 C 10.089844 53.597656 9.859375 53.726562 9.605469 53.726562 L 7.824219 53.726562 L 7.824219 57.515625 C 7.824219 57.917969 7.492188 58.246094 7.089844 58.246094 C 6.003906 58.246094 5.125 59.128906 5.125 60.210938 C 5.125 61.296875 6.003906 62.179688 7.089844 62.179688 C 8.171875 62.179688 9.054688 61.296875 9.054688 60.210938 C 9.054688 59.808594 9.382812 59.480469 9.789062 59.480469 C 10.191406 59.480469 10.519531 59.808594 10.519531 60.210938 C 10.519531 62.105469 8.980469 63.644531 7.089844 63.644531 C 5.195312 63.644531 3.65625 62.105469 3.65625 60.210938 C 3.65625 58.570312 4.816406 57.195312 6.355469 56.859375 L 6.355469 53.726562 L 4.570312 53.726562 C 4.320312 53.726562 4.085938 53.597656 3.953125 53.382812 L 1.066406 48.839844 C 0.914062 48.601562 0.914062 48.292969 1.066406 48.054688 L 3.839844 43.691406 L 3.839844 9.367188 C 3.839844 9.148438 3.9375 8.941406 4.105469 8.800781 L 13.277344 1.207031 C 13.484375 1.039062 13.761719 0.996094 14.007812 1.089844 L 22.988281 4.554688 C 23.105469 4.597656 23.210938 4.671875 23.289062 4.769531 L 27.042969 9.304688 L 82.351562 44.238281 C 83.785156 43.210938 85.796875 43.335938 87.085938 44.625 C 88.515625 46.054688 88.515625 48.382812 87.085938 49.816406 C 86.996094 49.90625 86.90625 49.988281 86.808594 50.0625 L 86.808594 65.277344 L 89.601562 65.277344 C 91.285156 65.277344 92.65625 66.648438 92.65625 68.335938 L 92.65625 76.421875 C 92.65625 78.109375 91.285156 79.480469 89.601562 79.480469 Z M 78.898438 85.15625 L 81.675781 85.15625 C 83.113281 85.15625 84.289062 86.328125 84.289062 87.769531 C 84.289062 89.207031 83.113281 90.378906 81.675781 90.378906 L 78.894531 90.378906 C 79.671875 91.347656 80.855469 91.933594 82.140625 91.933594 C 84.4375 91.933594 86.308594 90.066406 86.308594 87.769531 C 86.308594 85.46875 84.4375 83.601562 82.140625 83.601562 C 80.855469 83.601562 79.675781 84.1875 78.898438 85.15625 Z M 54.132812 83.601562 C 51.835938 83.601562 49.964844 85.46875 49.964844 87.769531 C 49.964844 90.066406 51.835938 91.933594 54.132812 91.933594 C 55.417969 91.933594 56.601562 91.347656 57.378906 90.378906 L 54.597656 90.378906 C 53.160156 90.378906 51.988281 89.207031 51.988281 87.769531 C 51.988281 86.328125 53.160156 85.15625 54.597656 85.15625 L 57.375 85.15625 C 56.597656 84.1875 55.417969 83.601562 54.132812 83.601562 Z M 54.601562 86.621094 C 53.96875 86.621094 53.453125 87.136719 53.453125 87.769531 C 53.453125 88.398438 53.96875 88.914062 54.601562 88.914062 L 81.675781 88.914062 C 82.308594 88.914062 82.820312 88.398438 82.820312 87.769531 C 82.820312 87.136719 82.308594 86.621094 81.675781 86.621094 Z M 89.972656 87.769531 C 89.972656 85.511719 88.167969 83.671875 85.929688 83.605469 C 87.0625 84.636719 87.773438 86.121094 87.773438 87.769531 C 87.773438 89.414062 87.0625 90.898438 85.929688 91.929688 C 88.167969 91.863281 89.972656 90.023438 89.972656 87.769531 Z M 78.347656 91.933594 C 77.867188 91.496094 77.464844 90.972656 77.152344 90.378906 L 59.121094 90.378906 C 58.8125 90.972656 58.40625 91.496094 57.925781 91.933594 Z M 46.304688 87.769531 C 46.304688 90.023438 48.105469 91.863281 50.34375 91.929688 C 49.210938 90.898438 48.5 89.414062 48.5 87.769531 C 48.5 86.121094 49.210938 84.636719 50.34375 83.605469 C 48.105469 83.671875 46.304688 85.511719 46.304688 87.769531 Z M 59.121094 85.15625 L 77.152344 85.15625 C 77.460938 84.5625 77.871094 84.039062 78.351562 83.601562 L 57.925781 83.601562 C 58.402344 84.039062 58.8125 84.5625 59.121094 85.15625 Z M 59.765625 82.136719 L 75.796875 82.136719 L 75.796875 79.480469 L 59.765625 79.480469 Z M 54.925781 78.015625 L 66.632812 78.015625 L 66.632812 76.144531 L 53.335938 76.144531 L 53.335938 76.421875 C 53.335938 77.300781 54.046875 78.015625 54.925781 78.015625 Z M 75.605469 61.796875 L 81.117188 53.566406 L 81.117188 50.933594 L 73.84375 61.796875 Z M 81.121094 56.199219 L 77.371094 61.796875 L 77.894531 61.796875 C 78.300781 61.796875 78.628906 62.125 78.628906 62.53125 L 78.628906 65.277344 L 81.121094 65.277344 Z M 77.164062 63.261719 L 71.820312 63.261719 L 71.820312 65.277344 L 77.164062 65.277344 Z M 71.085938 61.796875 L 72.078125 61.796875 L 80.820312 48.746094 L 27.164062 15.765625 L 42.496094 33.015625 C 42.535156 33.0625 42.570312 33.117188 42.601562 33.171875 L 56.253906 59.90625 L 56.8125 58.5 C 57.25 57.40625 58.289062 56.699219 59.46875 56.699219 L 65.40625 56.699219 C 66.980469 56.699219 68.261719 57.976562 68.261719 59.554688 L 68.261719 65.277344 L 70.355469 65.277344 L 70.355469 62.53125 C 70.355469 62.125 70.683594 61.796875 71.085938 61.796875 Z M 19.402344 7.035156 L 21.292969 5.46875 L 16.300781 3.542969 Z M 13.667969 2.789062 L 12.207031 3.996094 L 39.722656 34.957031 C 39.765625 35.003906 39.800781 35.054688 39.828125 35.109375 L 54.640625 63.972656 L 55.535156 61.722656 L 41.335938 33.921875 Z M 21.390625 16.539062 L 21.261719 20.066406 L 25.230469 20.855469 Z M 19.933594 16.292969 L 16.515625 19.121094 L 19.808594 19.773438 Z M 21.007812 27.105469 L 25.699219 27.492188 L 26.40625 22.585938 L 21.210938 21.550781 Z M 27.730469 23.667969 L 27.160156 27.613281 L 31.558594 27.976562 Z M 26.132812 34.769531 L 31.234375 34.746094 L 32.417969 29.515625 L 26.953125 29.066406 Z M 33.71875 30.410156 L 32.738281 34.738281 L 37.550781 34.71875 Z M 32.40625 36.207031 L 31.011719 42.347656 L 37.972656 43.617188 L 38.398438 36.179688 Z M 39.753906 38.175781 L 39.425781 43.882812 L 43.019531 44.539062 Z M 43.863281 46.183594 L 39.34375 45.355469 L 39.066406 50.21875 L 52.175781 62.375 Z M 37.671875 48.925781 L 37.890625 45.09375 L 32.46875 44.101562 Z M 29.796875 41.078125 L 30.898438 36.214844 L 26.636719 36.234375 Z M 24.835938 33.476562 L 25.488281 28.945312 L 21.679688 28.632812 Z M 19.601562 25.441406 L 19.753906 21.257812 L 16.441406 20.597656 Z M 15.035156 18.441406 L 19.675781 14.605469 L 16.65625 11.210938 L 12.542969 14.613281 Z M 11.734375 13.378906 L 15.683594 10.113281 L 11.078125 4.933594 L 7.929688 7.539062 Z M 63.324219 58.164062 L 59.46875 58.164062 C 58.894531 58.164062 58.386719 58.507812 58.175781 59.039062 L 53.632812 70.488281 C 53.527344 70.753906 53.449219 71.03125 53.402344 71.308594 L 59.34375 71.308594 L 63.324219 65.773438 Z M 28.222656 44.851562 L 53.15625 67.714844 L 53.859375 65.9375 L 29.628906 43.46875 C 29.585938 43.425781 29.546875 43.382812 29.511719 43.332031 L 6.792969 8.480469 L 5.539062 9.515625 Z M 5.304688 11.863281 L 5.304688 43.171875 L 8.875 43.171875 L 8.875 17.425781 Z M 4.976562 52.257812 L 9.203125 52.257812 L 11.625 48.449219 L 9.203125 44.636719 L 4.976562 44.636719 L 2.554688 48.449219 Z M 22.628906 6.269531 L 20.375 8.132812 L 23.394531 11.527344 L 25.519531 9.765625 Z M 26.609375 10.765625 L 24.574219 12.453125 L 80.828125 47.03125 C 80.855469 46.441406 81.027344 45.855469 81.339844 45.335938 Z M 86.046875 45.660156 C 85.617188 45.230469 85.050781 45.015625 84.488281 45.015625 C 83.921875 45.015625 83.359375 45.230469 82.929688 45.660156 C 82.066406 46.519531 82.066406 47.921875 82.929688 48.78125 C 83.789062 49.640625 85.1875 49.640625 86.046875 48.78125 C 86.90625 47.917969 86.90625 46.519531 86.046875 45.660156 Z M 85.34375 50.785156 C 85.0625 50.851562 84.777344 50.890625 84.488281 50.890625 C 83.828125 50.890625 83.167969 50.710938 82.585938 50.355469 L 82.585938 65.277344 L 85.34375 65.277344 Z M 91.191406 68.335938 C 91.191406 67.457031 90.476562 66.746094 89.601562 66.746094 L 67.527344 66.746094 C 67.121094 66.746094 66.792969 66.417969 66.792969 66.011719 L 66.792969 59.554688 C 66.792969 58.785156 66.171875 58.164062 65.40625 58.164062 L 64.789062 58.164062 L 64.789062 66.011719 C 64.789062 66.164062 64.742188 66.316406 64.652344 66.441406 L 60.3125 72.472656 C 60.175781 72.664062 59.953125 72.777344 59.71875 72.777344 L 53.335938 72.777344 L 53.335938 74.675781 L 67.363281 74.675781 C 67.769531 74.675781 68.097656 75.003906 68.097656 75.410156 L 68.097656 78.015625 L 89.601562 78.015625 C 90.476562 78.015625 91.191406 77.300781 91.191406 76.421875 Z M 78.628906 69.296875 C 78.628906 68.894531 78.300781 68.566406 77.894531 68.566406 L 71.085938 68.566406 C 70.683594 68.566406 70.355469 68.894531 70.355469 69.296875 C 70.355469 69.703125 70.683594 70.03125 71.085938 70.03125 L 77.894531 70.03125 C 78.300781 70.03125 78.628906 69.703125 78.628906 69.296875 Z M 78.628906 72.34375 C 78.628906 71.9375 78.300781 71.609375 77.894531 71.609375 L 71.085938 71.609375 C 70.683594 71.609375 70.355469 71.9375 70.355469 72.34375 C 70.355469 72.746094 70.683594 73.078125 71.085938 73.078125 L 77.894531 73.078125 C 78.300781 73.078125 78.628906 72.746094 78.628906 72.34375 Z M 78.628906 75.390625 C 78.628906 74.984375 78.300781 74.65625 77.894531 74.65625 L 71.085938 74.65625 C 70.683594 74.65625 70.355469 74.984375 70.355469 75.390625 C 70.355469 75.792969 70.683594 76.121094 71.085938 76.121094 L 77.894531 76.121094 C 78.300781 76.121094 78.628906 75.792969 78.628906 75.390625 Z M 78.628906 75.390625 " fill-opacity="1" fill-rule="nonzero"/></g></g></g></g><g mask="url(#ad9814e007)"><g transform="matrix(1, 0, 0, 1, 257, 20)"><g clip-path="url(#c824117cbe)"><g clip-path="url(#62683a55a3)"><path fill="#6ce5e8" d="M 88.261719 83.847656 L 84.25 83.847656 L 84.25 27.363281 C 84.25 26.566406 83.609375 25.925781 82.8125 25.925781 L 46.414062 25.925781 L 46.414062 1.785156 C 46.414062 0.992188 45.769531 0.347656 44.976562 0.347656 L 7.140625 0.347656 C 6.34375 0.347656 5.703125 0.992188 5.703125 1.785156 L 5.703125 83.847656 L 1.695312 83.847656 C 0.902344 83.847656 0.257812 84.492188 0.257812 85.285156 C 0.257812 86.078125 0.902344 86.722656 1.695312 86.722656 L 88.261719 86.722656 C 89.058594 86.722656 89.699219 86.078125 89.699219 85.285156 C 89.699219 84.492188 89.054688 83.847656 88.261719 83.847656 Z M 8.578125 3.222656 L 43.539062 3.222656 L 43.539062 83.847656 L 8.578125 83.847656 Z M 46.414062 83.847656 L 46.414062 28.800781 L 81.378906 28.800781 L 81.378906 83.847656 Z M 22.539062 67.992188 L 15.667969 67.992188 C 14.875 67.992188 14.230469 68.636719 14.230469 69.429688 L 14.230469 76.828125 C 14.230469 77.621094 14.875 78.265625 15.667969 78.265625 L 22.539062 78.265625 C 23.332031 78.265625 23.976562 77.621094 23.976562 76.828125 L 23.976562 69.429688 C 23.976562 68.636719 23.332031 67.992188 22.539062 67.992188 Z M 21.101562 75.390625 L 17.109375 75.390625 L 17.109375 70.867188 L 21.101562 70.867188 Z M 22.539062 8.804688 L 15.667969 8.804688 C 14.875 8.804688 14.230469 9.449219 14.230469 10.242188 L 14.230469 17.640625 C 14.230469 18.4375 14.875 19.078125 15.667969 19.078125 L 22.539062 19.078125 C 23.332031 19.078125 23.976562 18.4375 23.976562 17.640625 L 23.976562 10.242188 C 23.976562 9.449219 23.332031 8.804688 22.539062 8.804688 Z M 21.101562 16.203125 L 17.109375 16.203125 L 17.109375 11.679688 L 21.101562 11.679688 Z M 36.449219 38.398438 L 29.582031 38.398438 C 28.785156 38.398438 28.140625 39.042969 28.140625 39.835938 L 28.140625 47.234375 C 28.140625 48.03125 28.785156 48.671875 29.582031 48.671875 L 36.449219 48.671875 C 37.242188 48.671875 37.886719 48.03125 37.886719 47.234375 L 37.886719 39.835938 C 37.886719 39.042969 37.242188 38.398438 36.449219 38.398438 Z M 35.011719 45.796875 L 31.019531 45.796875 L 31.019531 41.273438 L 35.011719 41.273438 Z M 22.539062 23.601562 L 15.667969 23.601562 C 14.875 23.601562 14.230469 24.246094 14.230469 25.039062 L 14.230469 32.4375 C 14.230469 33.230469 14.875 33.875 15.667969 33.875 L 22.539062 33.875 C 23.332031 33.875 23.976562 33.230469 23.976562 32.4375 L 23.976562 25.039062 C 23.976562 24.246094 23.332031 23.601562 22.539062 23.601562 Z M 21.101562 31 L 17.109375 31 L 17.109375 26.476562 L 21.101562 26.476562 Z M 22.539062 53.195312 L 15.667969 53.195312 C 14.875 53.195312 14.230469 53.839844 14.230469 54.632812 L 14.230469 62.03125 C 14.230469 62.824219 14.875 63.46875 15.667969 63.46875 L 22.539062 63.46875 C 23.332031 63.46875 23.976562 62.824219 23.976562 62.03125 L 23.976562 54.632812 C 23.976562 53.839844 23.332031 53.195312 22.539062 53.195312 Z M 21.101562 60.59375 L 17.109375 60.59375 L 17.109375 56.070312 L 21.101562 56.070312 Z M 22.539062 38.398438 L 15.667969 38.398438 C 14.875 38.398438 14.230469 39.042969 14.230469 39.835938 L 14.230469 47.234375 C 14.230469 48.03125 14.875 48.671875 15.667969 48.671875 L 22.539062 48.671875 C 23.332031 48.671875 23.976562 48.03125 23.976562 47.234375 L 23.976562 39.835938 C 23.976562 39.042969 23.332031 38.398438 22.539062 38.398438 Z M 21.101562 45.796875 L 17.109375 45.796875 L 17.109375 41.273438 L 21.101562 41.273438 Z M 36.449219 53.195312 L 29.582031 53.195312 C 28.785156 53.195312 28.140625 53.839844 28.140625 54.632812 L 28.140625 62.03125 C 28.140625 62.824219 28.785156 63.46875 29.582031 63.46875 L 36.449219 63.46875 C 37.242188 63.46875 37.886719 62.824219 37.886719 62.03125 L 37.886719 54.632812 C 37.886719 53.839844 37.242188 53.195312 36.449219 53.195312 Z M 35.011719 60.59375 L 31.019531 60.59375 L 31.019531 56.070312 L 35.011719 56.070312 Z M 36.449219 23.601562 L 29.582031 23.601562 C 28.785156 23.601562 28.140625 24.246094 28.140625 25.039062 L 28.140625 32.4375 C 28.140625 33.230469 28.785156 33.875 29.582031 33.875 L 36.449219 33.875 C 37.242188 33.875 37.886719 33.230469 37.886719 32.4375 L 37.886719 25.039062 C 37.886719 24.246094 37.242188 23.601562 36.449219 23.601562 Z M 35.011719 31 L 31.019531 31 L 31.019531 26.476562 L 35.011719 26.476562 Z M 36.449219 8.804688 L 29.582031 8.804688 C 28.785156 8.804688 28.140625 9.449219 28.140625 10.242188 L 28.140625 17.640625 C 28.140625 18.4375 28.785156 19.078125 29.582031 19.078125 L 36.449219 19.078125 C 37.242188 19.078125 37.886719 18.4375 37.886719 17.640625 L 37.886719 10.242188 C 37.886719 9.449219 37.242188 8.804688 36.449219 8.804688 Z M 35.011719 16.203125 L 31.019531 16.203125 L 31.019531 11.679688 L 35.011719 11.679688 Z M 36.449219 67.992188 L 29.582031 67.992188 C 28.785156 67.992188 28.140625 68.636719 28.140625 69.429688 L 28.140625 76.828125 C 28.140625 77.621094 28.785156 78.265625 29.582031 78.265625 L 36.449219 78.265625 C 37.242188 78.265625 37.886719 77.621094 37.886719 76.828125 L 37.886719 69.429688 C 37.886719 68.636719 37.242188 67.992188 36.449219 67.992188 Z M 35.011719 75.390625 L 31.019531 75.390625 L 31.019531 70.867188 L 35.011719 70.867188 Z M 74.285156 51.1875 L 67.417969 51.1875 C 66.621094 51.1875 65.980469 51.832031 65.980469 52.625 L 65.980469 60.023438 C 65.980469 60.816406 66.621094 61.460938 67.417969 61.460938 L 74.285156 61.460938 C 75.078125 61.460938 75.722656 60.816406 75.722656 60.023438 L 75.722656 52.625 C 75.722656 51.832031 75.078125 51.1875 74.285156 51.1875 Z M 72.847656 58.585938 L 68.855469 58.585938 L 68.855469 54.0625 L 72.847656 54.0625 Z M 74.285156 36.390625 L 67.417969 36.390625 C 66.621094 36.390625 65.980469 37.035156 65.980469 37.828125 L 65.980469 45.226562 C 65.980469 46.023438 66.621094 46.664062 67.417969 46.664062 L 74.285156 46.664062 C 75.078125 46.664062 75.722656 46.023438 75.722656 45.226562 L 75.722656 37.828125 C 75.722656 37.035156 75.078125 36.390625 74.285156 36.390625 Z M 72.847656 43.789062 L 68.855469 43.789062 L 68.855469 39.265625 L 72.847656 39.265625 Z M 74.285156 65.984375 L 67.417969 65.984375 C 66.621094 65.984375 65.980469 66.628906 65.980469 67.421875 L 65.980469 74.820312 C 65.980469 75.613281 66.621094 76.257812 67.417969 76.257812 L 74.285156 76.257812 C 75.078125 76.257812 75.722656 75.613281 75.722656 74.820312 L 75.722656 67.421875 C 75.722656 66.628906 75.078125 65.984375 74.285156 65.984375 Z M 72.847656 73.382812 L 68.855469 73.382812 L 68.855469 68.859375 L 72.847656 68.859375 Z M 60.378906 65.984375 L 53.507812 65.984375 C 52.714844 65.984375 52.070312 66.628906 52.070312 67.421875 L 52.070312 74.820312 C 52.070312 75.613281 52.714844 76.257812 53.507812 76.257812 L 60.378906 76.257812 C 61.171875 76.257812 61.816406 75.613281 61.816406 74.820312 L 61.816406 67.421875 C 61.816406 66.628906 61.171875 65.984375 60.378906 65.984375 Z M 58.941406 73.382812 L 54.945312 73.382812 L 54.945312 68.859375 L 58.941406 68.859375 Z M 60.378906 51.1875 L 53.507812 51.1875 C 52.714844 51.1875 52.070312 51.832031 52.070312 52.625 L 52.070312 60.023438 C 52.070312 60.816406 52.714844 61.460938 53.507812 61.460938 L 60.378906 61.460938 C 61.171875 61.460938 61.816406 60.816406 61.816406 60.023438 L 61.816406 52.625 C 61.816406 51.832031 61.171875 51.1875 60.378906 51.1875 Z M 58.941406 58.585938 L 54.945312 58.585938 L 54.945312 54.0625 L 58.941406 54.0625 Z M 60.378906 36.390625 L 53.507812 36.390625 C 52.714844 36.390625 52.070312 37.035156 52.070312 37.828125 L 52.070312 45.226562 C 52.070312 46.023438 52.714844 46.664062 53.507812 46.664062 L 60.378906 46.664062 C 61.171875 46.664062 61.816406 46.023438 61.816406 45.226562 L 61.816406 37.828125 C 61.816406 37.035156 61.171875 36.390625 60.378906 36.390625 Z M 58.941406 43.789062 L 54.945312 43.789062 L 54.945312 39.265625 L 58.941406 39.265625 Z M 58.941406 43.789062 " fill-opacity="1" fill-rule="nonzero"/></g></g></g></g><g mask="url(#6a9284be9c)"><g transform="matrix(1, 0, 0, 1, 35, 201)"><g clip-path="url(#0bf22f42a4)"><g clip-path="url(#27e8b29237)"><path fill="#14748a" d="M 39.167969 48.4375 L 51.066406 35.886719 L 62.660156 48.4375 L 62.660156 128.84375 L 39.167969 128.84375 Z M 39.167969 48.4375 " fill-opacity="1" fill-rule="nonzero"/></g><g clip-path="url(#113a086311)"><path fill="#14748a" d="M 100.101562 64.75 C 100.101562 64.71875 100.101562 64.691406 100.101562 64.660156 C 100.101562 62.332031 99.003906 63.523438 97.183594 65.492188 C 95.042969 67.8125 91.898438 71.214844 88.382812 71.214844 C 84.871094 71.214844 81.71875 67.824219 79.5625 65.503906 C 77.726562 63.527344 76.613281 62.328125 76.613281 64.660156 C 76.613281 64.691406 76.613281 64.71875 76.613281 64.75 L 76.613281 128.804688 L 100.101562 128.804688 Z M 100.101562 64.75 " fill-opacity="1" fill-rule="evenodd"/></g><g clip-path="url(#4cd608771a)"><path fill="#14748a" d="M 116.464844 45.605469 L 139.957031 22.238281 L 139.957031 128.84375 L 116.464844 128.84375 Z M 116.464844 45.605469 " fill-opacity="1" fill-rule="nonzero"/></g><g clip-path="url(#4e10fdf42b)"><path fill="#14748a" d="M 11.226562 77.914062 L 0.722656 65.394531 L 0.722656 71.535156 C 0.65625 71.691406 0.621094 71.929688 0.621094 72.257812 C 0.621094 72.582031 0.65625 72.90625 0.722656 73.222656 L 0.722656 128.84375 L 24.210938 128.84375 L 24.210938 65.394531 L 13.226562 77.9375 C 12.933594 77.984375 12.640625 78.007812 12.339844 78.007812 C 11.964844 78.007812 11.59375 77.976562 11.226562 77.914062 Z M 11.226562 77.914062 " fill-opacity="1" fill-rule="evenodd"/></g><g clip-path="url(#d824ff8fd1)"><path fill="#000000" d="M 142.039062 21.4375 L 147.621094 0.597656 L 126.933594 6.503906 L 130.648438 10.179688 L 88.929688 52.320312 L 54.777344 16.953125 L 51.015625 12.824219 L 43.757812 21.132812 L 43.644531 21.257812 L 43.644531 21.261719 L 10.671875 59.035156 L 1.585938 49.882812 L 1.585938 62.71875 L 12.183594 74.503906 L 13.140625 73.28125 L 51.285156 29.425781 L 80.585938 60.746094 L 80.558594 60.773438 L 82.730469 63.039062 L 87.464844 68.09375 L 87.527344 68.03125 L 88.46875 69.011719 L 139.011719 18.445312 Z M 142.039062 21.4375 " fill-opacity="1" fill-rule="evenodd"/></g></g></g></g></svg>