<svg xmlns="http://www.w3.org/2000/svg" xmlns:xlink="http://www.w3.org/1999/xlink" width="480" zoomAndPan="magnify" viewBox="0 0 360 359.999987" height="480" preserveAspectRatio="xMidYMid meet" version="1.0"><defs><filter x="0%" y="0%" width="100%" height="100%" id="898596b126"><feColorMatrix values="0 0 0 0 1 0 0 0 0 1 0 0 0 0 1 0 0 0 1 0" color-interpolation-filters="sRGB"/></filter><g/><mask id="c0906a0437"><g filter="url(#898596b126)"><rect x="-36" width="432" fill="#000000" y="-35.999999" height="431.999984" fill-opacity="0.85"/></g></mask><clipPath id="464c7d2917"><path d="M 0 0 L 218.59375 0 L 218.59375 360 L 0 360 Z M 0 0 " clip-rule="nonzero"/></clipPath><clipPath id="8dfa8d38f2"><path d="M 8.25 0 L 210.34375 0 C 214.898438 0 218.59375 3.695312 218.59375 8.25 L 218.59375 351.75 C 218.59375 356.304688 214.898438 360 210.34375 360 L 8.25 360 C 3.695312 360 0 356.304688 0 351.75 L 0 8.25 C 0 3.695312 3.695312 0 8.25 0 Z M 8.25 0 " clip-rule="nonzero"/></clipPath><clipPath id="8cfcba78a6"><rect x="0" width="219" y="0" height="360"/></clipPath><mask id="3eb0cb8bf9"><g filter="url(#898596b126)"><rect x="-36" width="432" fill="#000000" y="-35.999999" height="431.999984" fill-opacity="0.85"/></g></mask><clipPath id="d20237e1e4"><path d="M 0.441406 0 L 119 0 L 119 213.703125 L 0.441406 213.703125 Z M 0.441406 0 " clip-rule="nonzero"/></clipPath><clipPath id="d969580a94"><path d="M 8.085938 0 L 111.5 0 C 113.488281 0 115.398438 0.789062 116.804688 2.195312 C 118.210938 3.601562 119 5.511719 119 7.5 L 119 205.960938 C 119 207.949219 118.210938 209.859375 116.804688 211.265625 C 115.398438 212.671875 113.488281 213.460938 111.5 213.460938 L 8.085938 213.460938 C 6.09375 213.460938 4.1875 212.671875 2.78125 211.265625 C 1.375 209.859375 0.585938 207.949219 0.585938 205.960938 L 0.585938 7.5 C 0.585938 5.511719 1.375 3.601562 2.78125 2.195312 C 4.1875 0.789062 6.09375 0 8.085938 0 Z M 8.085938 0 " clip-rule="nonzero"/></clipPath><clipPath id="10e64c6f4c"><rect x="0" width="119" y="0" height="214"/></clipPath><mask id="0f4852fefb"><g filter="url(#898596b126)"><rect x="-36" width="432" fill="#000000" y="-35.999999" height="431.999984" fill-opacity="0.85"/></g></mask><clipPath id="9c267ca08a"><path d="M 0.441406 0.160156 L 119 0.160156 L 119 130 L 0.441406 130 Z M 0.441406 0.160156 " clip-rule="nonzero"/></clipPath><clipPath id="12dbf25d49"><path d="M 8.085938 0.394531 L 111.5 0.394531 C 113.488281 0.394531 115.398438 1.183594 116.804688 2.589844 C 118.210938 3.996094 119 5.90625 119 7.894531 L 119 122.5 C 119 124.488281 118.210938 126.398438 116.804688 127.804688 C 115.398438 129.210938 113.488281 130 111.5 130 L 8.085938 130 C 6.09375 130 4.1875 129.210938 2.78125 127.804688 C 1.375 126.398438 0.585938 124.488281 0.585938 122.5 L 0.585938 7.894531 C 0.585938 5.90625 1.375 3.996094 2.78125 2.589844 C 4.1875 1.183594 6.09375 0.394531 8.085938 0.394531 Z M 8.085938 0.394531 " clip-rule="nonzero"/></clipPath><clipPath id="b735c2396a"><rect x="0" width="119" y="0" height="130"/></clipPath><mask id="27e0b460da"><g filter="url(#898596b126)"><rect x="-36" width="432" fill="#000000" y="-35.999999" height="431.999984" fill-opacity="0.49"/></g></mask><clipPath id="b8a699b164"><path d="M 23.171875 156 L 166.285156 156 L 166.285156 156.605469 L 23.171875 156.605469 Z M 23.171875 156 " clip-rule="nonzero"/></clipPath><clipPath id="87a2eca8e0"><path d="M 23.171875 127 L 166.285156 127 L 166.285156 129 L 23.171875 129 Z M 23.171875 127 " clip-rule="nonzero"/></clipPath><clipPath id="4f4508caae"><path d="M 23.171875 99 L 166.285156 99 L 166.285156 100 L 23.171875 100 Z M 23.171875 99 " clip-rule="nonzero"/></clipPath><clipPath id="4f893a05c3"><path d="M 23.171875 70 L 166.285156 70 L 166.285156 71 L 23.171875 71 Z M 23.171875 70 " clip-rule="nonzero"/></clipPath><clipPath id="94695cded9"><path d="M 23.171875 41 L 166.285156 41 L 166.285156 43 L 23.171875 43 Z M 23.171875 41 " clip-rule="nonzero"/></clipPath><clipPath id="bcb1515235"><path d="M 23.171875 13.496094 L 166.285156 13.496094 L 166.285156 14 L 23.171875 14 Z M 23.171875 13.496094 " clip-rule="nonzero"/></clipPath><clipPath id="6d28173bd6"><path d="M 15 154 L 19 154 L 19 158.992188 L 15 158.992188 Z M 15 154 " clip-rule="nonzero"/></clipPath><clipPath id="c61fca3283"><path d="M 11.414062 68 L 15 68 L 15 73 L 11.414062 73 Z M 11.414062 68 " clip-rule="nonzero"/></clipPath><clipPath id="aca1ff46cf"><path d="M 11.414062 40 L 15 40 L 15 45 L 11.414062 45 Z M 11.414062 40 " clip-rule="nonzero"/></clipPath><clipPath id="a505146199"><path d="M 12 11.109375 L 15 11.109375 L 15 16 L 12 16 Z M 12 11.109375 " clip-rule="nonzero"/></clipPath><clipPath id="818f175eb1"><path d="M 15 11.109375 L 19 11.109375 L 19 16 L 15 16 Z M 15 11.109375 " clip-rule="nonzero"/></clipPath><clipPath id="474d4758bc"><path d="M 23.171875 133.707031 L 56.199219 133.707031 L 56.199219 156.605469 L 23.171875 156.605469 Z M 23.171875 133.707031 " clip-rule="nonzero"/></clipPath><clipPath id="966ba2560d"><path d="M 23.171875 110.8125 L 56.199219 110.8125 L 56.199219 133.707031 L 23.171875 133.707031 Z M 23.171875 110.8125 " clip-rule="nonzero"/></clipPath><clipPath id="98aa789235"><path d="M 23.171875 99.363281 L 56.199219 99.363281 L 56.199219 110.8125 L 23.171875 110.8125 Z M 23.171875 99.363281 " clip-rule="nonzero"/></clipPath><clipPath id="86bc7f1e9e"><path d="M 59.867188 122.261719 L 92.894531 122.261719 L 92.894531 156.605469 L 59.867188 156.605469 Z M 59.867188 122.261719 " clip-rule="nonzero"/></clipPath><clipPath id="896e4d0fe9"><path d="M 59.867188 93.636719 L 92.894531 93.636719 L 92.894531 122.261719 L 59.867188 122.261719 Z M 59.867188 93.636719 " clip-rule="nonzero"/></clipPath><clipPath id="3047cc4440"><path d="M 59.867188 70.738281 L 92.894531 70.738281 L 92.894531 93.636719 L 59.867188 93.636719 Z M 59.867188 70.738281 " clip-rule="nonzero"/></clipPath><clipPath id="164b0a45ac"><path d="M 96.5625 110.8125 L 129.589844 110.8125 L 129.589844 156.605469 L 96.5625 156.605469 Z M 96.5625 110.8125 " clip-rule="nonzero"/></clipPath><clipPath id="fa3f3e1b57"><path d="M 96.5625 82.1875 L 129.589844 82.1875 L 129.589844 110.8125 L 96.5625 110.8125 Z M 96.5625 82.1875 " clip-rule="nonzero"/></clipPath><clipPath id="e5b2af5cae"><path d="M 96.5625 53.566406 L 129.589844 53.566406 L 129.589844 82.1875 L 96.5625 82.1875 Z M 96.5625 53.566406 " clip-rule="nonzero"/></clipPath><clipPath id="c7deee45d0"><path d="M 133.257812 99.363281 L 166.285156 99.363281 L 166.285156 156.605469 L 133.257812 156.605469 Z M 133.257812 99.363281 " clip-rule="nonzero"/></clipPath><clipPath id="c33264c89d"><path d="M 133.257812 30.667969 L 166.285156 30.667969 L 166.285156 99.363281 L 133.257812 99.363281 Z M 133.257812 30.667969 " clip-rule="nonzero"/></clipPath><clipPath id="1a72b0a0f6"><path d="M 133.257812 13.496094 L 166.285156 13.496094 L 166.285156 30.667969 L 133.257812 30.667969 Z M 133.257812 13.496094 " clip-rule="nonzero"/></clipPath><clipPath id="a7b2e12f61"><rect x="0" width="178" y="0" height="171"/></clipPath><mask id="d6ef487642"><g filter="url(#898596b126)"><rect x="-36" width="432" fill="#000000" y="-35.999999" height="431.999984" fill-opacity="0.57"/></g></mask><clipPath id="236506cdb6"><path d="M 1.527344 0.121094 L 92.558594 0.121094 L 92.558594 90.84375 L 1.527344 90.84375 Z M 1.527344 0.121094 " clip-rule="nonzero"/></clipPath><clipPath id="744e751808"><rect x="0" width="93" y="0" height="92"/></clipPath><mask id="cd83988e5a"><g filter="url(#898596b126)"><rect x="-36" width="432" fill="#000000" y="-35.999999" height="431.999984" fill-opacity="0.52"/></g></mask><clipPath id="041e47d6ce"><path d="M 1.210938 1 L 92.371094 1 L 92.371094 93.234375 L 1.210938 93.234375 Z M 1.210938 1 " clip-rule="nonzero"/></clipPath><clipPath id="8b4b7b0816"><rect x="0" width="93" y="0" height="94"/></clipPath><mask id="032f1e5248"><g filter="url(#898596b126)"><rect x="-36" width="432" fill="#000000" y="-35.999999" height="431.999984" fill-opacity="0.58"/></g></mask><clipPath id="140c025e07"><path d="M 0.242188 0.347656 L 89.492188 0.347656 L 89.492188 86.597656 L 0.242188 86.597656 Z M 0.242188 0.347656 " clip-rule="nonzero"/></clipPath><clipPath id="04e7b1bbed"><rect x="0" width="91" y="0" height="88"/></clipPath><mask id="4d596dde57"><g filter="url(#898596b126)"><rect x="-36" width="432" fill="#000000" y="-35.999999" height="431.999984" fill-opacity="0.43"/></g></mask><clipPath id="ca81c3434c"><path d="M 39 35 L 63 35 L 63 128.84375 L 39 128.84375 Z M 39 35 " clip-rule="nonzero"/></clipPath><clipPath id="dcf276ea73"><path d="M 76 63 L 101 63 L 101 128.84375 L 76 128.84375 Z M 76 63 " clip-rule="nonzero"/></clipPath><clipPath id="15e13afcd3"><path d="M 116 22 L 140 22 L 140 128.84375 L 116 128.84375 Z M 116 22 " clip-rule="nonzero"/></clipPath><clipPath id="ccf95104ef"><path d="M 0.621094 65 L 25 65 L 25 128.84375 L 0.621094 128.84375 Z M 0.621094 65 " clip-rule="nonzero"/></clipPath><clipPath id="679b56a3c1"><path d="M 1 0.59375 L 147.621094 0.59375 L 147.621094 75 L 1 75 Z M 1 0.59375 " clip-rule="nonzero"/></clipPath><clipPath id="5464d05e9d"><rect x="0" width="149" y="0" height="129"/></clipPath><mask id="a769882a8c"><g filter="url(#898596b126)"><rect x="-36" width="432" fill="#000000" y="-35.999999" height="431.999984" fill-opacity="0.16"/></g></mask><clipPath id="de0f3c7247"><path d="M 2 23 L 107 23 L 107 144 L 2 144 Z M 2 23 " clip-rule="nonzero"/></clipPath><clipPath id="211c3ae604"><path d="M 1.054688 140.710938 L 33.78125 0.480469 L 111.199219 18.546875 L 78.472656 158.777344 Z M 1.054688 140.710938 " clip-rule="nonzero"/></clipPath><clipPath id="bb58923dfe"><path d="M 33.78125 0.480469 L 1.054688 140.710938 L 78.472656 158.777344 L 111.199219 18.546875 Z M 33.78125 0.480469 " clip-rule="nonzero"/></clipPath><clipPath id="48ac45e4da"><path d="M 33.78125 0.480469 L 1.054688 140.710938 L 78.472656 158.777344 L 111.199219 18.546875 Z M 33.78125 0.480469 " clip-rule="nonzero"/></clipPath><clipPath id="5bb45a426e"><path d="M 93 14 L 110 14 L 110 33 L 93 33 Z M 93 14 " clip-rule="nonzero"/></clipPath><clipPath id="6a75af296f"><path d="M 1.054688 140.710938 L 33.78125 0.480469 L 111.199219 18.546875 L 78.472656 158.777344 Z M 1.054688 140.710938 " clip-rule="nonzero"/></clipPath><clipPath id="ec1e76fb1b"><path d="M 33.78125 0.480469 L 1.054688 140.710938 L 78.472656 158.777344 L 111.199219 18.546875 Z M 33.78125 0.480469 " clip-rule="nonzero"/></clipPath><clipPath id="20e3e45a6a"><path d="M 33.78125 0.480469 L 1.054688 140.710938 L 78.472656 158.777344 L 111.199219 18.546875 Z M 33.78125 0.480469 " clip-rule="nonzero"/></clipPath><clipPath id="201f52c483"><rect x="0" width="112" y="0" height="160"/></clipPath></defs><g mask="url(#c0906a0437)"><g><g clip-path="url(#8cfcba78a6)"><g clip-path="url(#464c7d2917)"><g clip-path="url(#8dfa8d38f2)"><path fill="#ffffff" d="M 0 0 L 218.59375 0 L 218.59375 360.335938 L 0 360.335938 Z M 0 0 " fill-opacity="1" fill-rule="nonzero"/></g></g></g></g></g><g mask="url(#3eb0cb8bf9)"><g transform="matrix(1, 0, 0, 1, 241, 0)"><g clip-path="url(#10e64c6f4c)"><g clip-path="url(#d20237e1e4)"><g clip-path="url(#d969580a94)"><path fill="#ffffff" d="M 0.585938 0 L 119 0 L 119 213.242188 L 0.585938 213.242188 Z M 0.585938 0 " fill-opacity="1" fill-rule="nonzero"/></g></g></g></g></g><g mask="url(#0f4852fefb)"><g transform="matrix(1, 0, 0, 1, 241, 230)"><g clip-path="url(#b735c2396a)"><g clip-path="url(#9c267ca08a)"><g clip-path="url(#12dbf25d49)"><path fill="#ffffff" d="M 0.585938 0.394531 L 119 0.394531 L 119 129.910156 L 0.585938 129.910156 Z M 0.585938 0.394531 " fill-opacity="1" fill-rule="nonzero"/></g></g></g></g></g><g mask="url(#27e0b460da)"><g transform="matrix(1, 0, 0, 1, 16, 10)"><g clip-path="url(#a7b2e12f61)"><g clip-path="url(#b8a699b164)"><path stroke-linecap="butt" transform="matrix(0.397528, 0, 0, 0.397528, 23.173811, 13.496145)" fill="none" stroke-linejoin="miter" d="M -0.00486982 359.997832 L 360.002917 359.997832 " stroke="#ffffff" stroke-width="1" stroke-opacity="0.6" stroke-miterlimit="4"/></g><g clip-path="url(#87a2eca8e0)"><path stroke-linecap="butt" transform="matrix(0.397528, 0, 0, 0.397528, 23.173811, 13.496145)" fill="none" stroke-linejoin="miter" d="M -0.00486982 288.000205 L 360.002917 288.000205 " stroke="#ffffff" stroke-width="1" stroke-opacity="0.251" stroke-miterlimit="4"/></g><g clip-path="url(#4f4508caae)"><path stroke-linecap="butt" transform="matrix(0.397528, 0, 0, 0.397528, 23.173811, 13.496145)" fill="none" stroke-linejoin="miter" d="M -0.00486982 216.002578 L 360.002917 216.002578 " stroke="#ffffff" stroke-width="1" stroke-opacity="0.251" stroke-miterlimit="4"/></g><g clip-path="url(#4f893a05c3)"><path stroke-linecap="butt" transform="matrix(0.397528, 0, 0, 0.397528, 23.173811, 13.496145)" fill="none" stroke-linejoin="miter" d="M -0.00486982 143.995125 L 360.002917 143.995125 " stroke="#ffffff" stroke-width="1" stroke-opacity="0.251" stroke-miterlimit="4"/></g><g clip-path="url(#94695cded9)"><path stroke-linecap="butt" transform="matrix(0.397528, 0, 0, 0.397528, 23.173811, 13.496145)" fill="none" stroke-linejoin="miter" d="M -0.00486982 71.997498 L 360.002917 71.997498 " stroke="#ffffff" stroke-width="1" stroke-opacity="0.251" stroke-miterlimit="4"/></g><g clip-path="url(#bcb1515235)"><path stroke-linecap="butt" transform="matrix(0.397528, 0, 0, 0.397528, 23.173811, 13.496145)" fill="none" stroke-linejoin="miter" d="M -0.00486982 -0.000128988 L 360.002917 -0.000128988 " stroke="#ffffff" stroke-width="1" stroke-opacity="0.251" stroke-miterlimit="4"/></g><g clip-path="url(#6d28173bd6)"><g fill="#ffffff" fill-opacity="1"><g transform="translate(14.999846, 158.593982)"><g><path d="M 1.984375 0.0625 C 1.679688 0.0625 1.410156 -0.0078125 1.171875 -0.15625 C 0.941406 -0.300781 0.753906 -0.523438 0.609375 -0.828125 C 0.472656 -1.140625 0.40625 -1.535156 0.40625 -2.015625 C 0.40625 -2.492188 0.472656 -2.882812 0.609375 -3.1875 C 0.753906 -3.5 0.941406 -3.722656 1.171875 -3.859375 C 1.410156 -4.003906 1.679688 -4.078125 1.984375 -4.078125 C 2.273438 -4.078125 2.535156 -4.003906 2.765625 -3.859375 C 3.003906 -3.722656 3.191406 -3.5 3.328125 -3.1875 C 3.472656 -2.882812 3.546875 -2.492188 3.546875 -2.015625 C 3.546875 -1.535156 3.472656 -1.140625 3.328125 -0.828125 C 3.191406 -0.523438 3.003906 -0.300781 2.765625 -0.15625 C 2.535156 -0.0078125 2.273438 0.0625 1.984375 0.0625 Z M 1.984375 -0.375 C 2.328125 -0.375 2.585938 -0.5 2.765625 -0.75 C 2.953125 -1.007812 3.046875 -1.429688 3.046875 -2.015625 C 3.046875 -2.597656 2.953125 -3.015625 2.765625 -3.265625 C 2.585938 -3.515625 2.328125 -3.640625 1.984375 -3.640625 C 1.753906 -3.640625 1.554688 -3.585938 1.390625 -3.484375 C 1.234375 -3.378906 1.113281 -3.207031 1.03125 -2.96875 C 0.945312 -2.726562 0.90625 -2.410156 0.90625 -2.015625 C 0.90625 -1.617188 0.945312 -1.300781 1.03125 -1.0625 C 1.113281 -0.820312 1.234375 -0.644531 1.390625 -0.53125 C 1.554688 -0.425781 1.753906 -0.375 1.984375 -0.375 Z M 1.984375 -0.375 "/></g></g></g></g><g fill="#ffffff" fill-opacity="1"><g transform="translate(12.360007, 129.971932)"><g><path d="M 0.28125 0 L 0.28125 -0.390625 L 1.390625 -0.390625 L 1.390625 -3.46875 L 1.328125 -3.484375 C 1.148438 -3.398438 0.992188 -3.332031 0.859375 -3.28125 C 0.722656 -3.238281 0.550781 -3.191406 0.34375 -3.140625 L 0.34375 -3.578125 C 0.550781 -3.628906 0.753906 -3.691406 0.953125 -3.765625 C 1.160156 -3.835938 1.34375 -3.925781 1.5 -4.03125 L 1.84375 -4.03125 L 1.84375 -0.390625 L 2.828125 -0.390625 L 2.828125 0 Z M 0.28125 0 "/></g></g></g><g fill="#ffffff" fill-opacity="1"><g transform="translate(15.25699, 129.971932)"><g><path d="M 1.984375 0.0625 C 1.679688 0.0625 1.410156 -0.0078125 1.171875 -0.15625 C 0.941406 -0.300781 0.753906 -0.523438 0.609375 -0.828125 C 0.472656 -1.140625 0.40625 -1.535156 0.40625 -2.015625 C 0.40625 -2.492188 0.472656 -2.882812 0.609375 -3.1875 C 0.753906 -3.5 0.941406 -3.722656 1.171875 -3.859375 C 1.410156 -4.003906 1.679688 -4.078125 1.984375 -4.078125 C 2.273438 -4.078125 2.535156 -4.003906 2.765625 -3.859375 C 3.003906 -3.722656 3.191406 -3.5 3.328125 -3.1875 C 3.472656 -2.882812 3.546875 -2.492188 3.546875 -2.015625 C 3.546875 -1.535156 3.472656 -1.140625 3.328125 -0.828125 C 3.191406 -0.523438 3.003906 -0.300781 2.765625 -0.15625 C 2.535156 -0.0078125 2.273438 0.0625 1.984375 0.0625 Z M 1.984375 -0.375 C 2.328125 -0.375 2.585938 -0.5 2.765625 -0.75 C 2.953125 -1.007812 3.046875 -1.429688 3.046875 -2.015625 C 3.046875 -2.597656 2.953125 -3.015625 2.765625 -3.265625 C 2.585938 -3.515625 2.328125 -3.640625 1.984375 -3.640625 C 1.753906 -3.640625 1.554688 -3.585938 1.390625 -3.484375 C 1.234375 -3.378906 1.113281 -3.207031 1.03125 -2.96875 C 0.945312 -2.726562 0.90625 -2.410156 0.90625 -2.015625 C 0.90625 -1.617188 0.945312 -1.300781 1.03125 -1.0625 C 1.113281 -0.820312 1.234375 -0.644531 1.390625 -0.53125 C 1.554688 -0.425781 1.753906 -0.375 1.984375 -0.375 Z M 1.984375 -0.375 "/></g></g></g><g fill="#ffffff" fill-opacity="1"><g transform="translate(12.260625, 101.349899)"><g><path d="M 0.25 -0.1875 C 0.25 -0.40625 0.269531 -0.582031 0.3125 -0.71875 C 0.363281 -0.851562 0.445312 -0.976562 0.5625 -1.09375 C 0.675781 -1.21875 0.863281 -1.375 1.125 -1.5625 L 1.5625 -1.875 C 1.726562 -2 1.863281 -2.109375 1.96875 -2.203125 C 2.070312 -2.304688 2.148438 -2.414062 2.203125 -2.53125 C 2.265625 -2.65625 2.296875 -2.789062 2.296875 -2.9375 C 2.296875 -3.175781 2.234375 -3.351562 2.109375 -3.46875 C 1.984375 -3.59375 1.785156 -3.65625 1.515625 -3.65625 C 1.304688 -3.65625 1.117188 -3.601562 0.953125 -3.5 C 0.785156 -3.40625 0.648438 -3.269531 0.546875 -3.09375 L 0.484375 -3.078125 L 0.203125 -3.375 C 0.335938 -3.59375 0.515625 -3.765625 0.734375 -3.890625 C 0.960938 -4.015625 1.222656 -4.078125 1.515625 -4.078125 C 1.804688 -4.078125 2.046875 -4.03125 2.234375 -3.9375 C 2.421875 -3.84375 2.554688 -3.707031 2.640625 -3.53125 C 2.734375 -3.363281 2.78125 -3.164062 2.78125 -2.9375 C 2.78125 -2.757812 2.742188 -2.59375 2.671875 -2.4375 C 2.597656 -2.28125 2.488281 -2.128906 2.34375 -1.984375 C 2.207031 -1.847656 2.035156 -1.707031 1.828125 -1.5625 L 1.390625 -1.234375 C 1.222656 -1.109375 1.09375 -1 1 -0.90625 C 0.90625 -0.820312 0.835938 -0.738281 0.796875 -0.65625 C 0.753906 -0.582031 0.734375 -0.492188 0.734375 -0.390625 L 2.78125 -0.390625 L 2.78125 0 L 0.25 0 Z M 0.25 -0.1875 "/></g></g></g><g fill="#ffffff" fill-opacity="1"><g transform="translate(15.355978, 101.349899)"><g><path d="M 1.984375 0.0625 C 1.679688 0.0625 1.410156 -0.0078125 1.171875 -0.15625 C 0.941406 -0.300781 0.753906 -0.523438 0.609375 -0.828125 C 0.472656 -1.140625 0.40625 -1.535156 0.40625 -2.015625 C 0.40625 -2.492188 0.472656 -2.882812 0.609375 -3.1875 C 0.753906 -3.5 0.941406 -3.722656 1.171875 -3.859375 C 1.410156 -4.003906 1.679688 -4.078125 1.984375 -4.078125 C 2.273438 -4.078125 2.535156 -4.003906 2.765625 -3.859375 C 3.003906 -3.722656 3.191406 -3.5 3.328125 -3.1875 C 3.472656 -2.882812 3.546875 -2.492188 3.546875 -2.015625 C 3.546875 -1.535156 3.472656 -1.140625 3.328125 -0.828125 C 3.191406 -0.523438 3.003906 -0.300781 2.765625 -0.15625 C 2.535156 -0.0078125 2.273438 0.0625 1.984375 0.0625 Z M 1.984375 -0.375 C 2.328125 -0.375 2.585938 -0.5 2.765625 -0.75 C 2.953125 -1.007812 3.046875 -1.429688 3.046875 -2.015625 C 3.046875 -2.597656 2.953125 -3.015625 2.765625 -3.265625 C 2.585938 -3.515625 2.328125 -3.640625 1.984375 -3.640625 C 1.753906 -3.640625 1.554688 -3.585938 1.390625 -3.484375 C 1.234375 -3.378906 1.113281 -3.207031 1.03125 -2.96875 C 0.945312 -2.726562 0.90625 -2.410156 0.90625 -2.015625 C 0.90625 -1.617188 0.945312 -1.300781 1.03125 -1.0625 C 1.113281 -0.820312 1.234375 -0.644531 1.390625 -0.53125 C 1.554688 -0.425781 1.753906 -0.375 1.984375 -0.375 Z M 1.984375 -0.375 "/></g></g></g><g clip-path="url(#c61fca3283)"><g fill="#ffffff" fill-opacity="1"><g transform="translate(11.776136, 72.727857)"><g><path d="M 1.59375 0.0625 C 1.207031 0.0625 0.894531 -0.0234375 0.65625 -0.203125 C 0.425781 -0.378906 0.28125 -0.625 0.21875 -0.9375 L 0.5625 -1.09375 L 0.640625 -1.09375 C 0.703125 -0.851562 0.804688 -0.671875 0.953125 -0.546875 C 1.097656 -0.429688 1.3125 -0.375 1.59375 -0.375 C 1.875 -0.375 2.085938 -0.4375 2.234375 -0.5625 C 2.390625 -0.695312 2.46875 -0.890625 2.46875 -1.140625 C 2.46875 -1.390625 2.390625 -1.578125 2.234375 -1.703125 C 2.085938 -1.835938 1.851562 -1.90625 1.53125 -1.90625 L 1.09375 -1.90625 L 1.09375 -2.296875 L 1.484375 -2.296875 C 1.734375 -2.296875 1.929688 -2.359375 2.078125 -2.484375 C 2.234375 -2.609375 2.3125 -2.785156 2.3125 -3.015625 C 2.3125 -3.234375 2.242188 -3.394531 2.109375 -3.5 C 1.984375 -3.613281 1.800781 -3.671875 1.5625 -3.671875 C 1.164062 -3.671875 0.878906 -3.507812 0.703125 -3.1875 L 0.640625 -3.171875 L 0.375 -3.46875 C 0.476562 -3.65625 0.632812 -3.800781 0.84375 -3.90625 C 1.050781 -4.019531 1.289062 -4.078125 1.5625 -4.078125 C 1.820312 -4.078125 2.039062 -4.035156 2.21875 -3.953125 C 2.40625 -3.878906 2.546875 -3.765625 2.640625 -3.609375 C 2.734375 -3.460938 2.78125 -3.285156 2.78125 -3.078125 C 2.78125 -2.878906 2.722656 -2.703125 2.609375 -2.546875 C 2.492188 -2.398438 2.34375 -2.285156 2.15625 -2.203125 L 2.15625 -2.140625 C 2.414062 -2.078125 2.613281 -1.957031 2.75 -1.78125 C 2.882812 -1.601562 2.953125 -1.390625 2.953125 -1.140625 C 2.953125 -0.753906 2.835938 -0.457031 2.609375 -0.25 C 2.378906 -0.0390625 2.039062 0.0625 1.59375 0.0625 Z M 1.59375 0.0625 "/></g></g></g></g><g fill="#ffffff" fill-opacity="1"><g transform="translate(15.047738, 72.727857)"><g><path d="M 1.984375 0.0625 C 1.679688 0.0625 1.410156 -0.0078125 1.171875 -0.15625 C 0.941406 -0.300781 0.753906 -0.523438 0.609375 -0.828125 C 0.472656 -1.140625 0.40625 -1.535156 0.40625 -2.015625 C 0.40625 -2.492188 0.472656 -2.882812 0.609375 -3.1875 C 0.753906 -3.5 0.941406 -3.722656 1.171875 -3.859375 C 1.410156 -4.003906 1.679688 -4.078125 1.984375 -4.078125 C 2.273438 -4.078125 2.535156 -4.003906 2.765625 -3.859375 C 3.003906 -3.722656 3.191406 -3.5 3.328125 -3.1875 C 3.472656 -2.882812 3.546875 -2.492188 3.546875 -2.015625 C 3.546875 -1.535156 3.472656 -1.140625 3.328125 -0.828125 C 3.191406 -0.523438 3.003906 -0.300781 2.765625 -0.15625 C 2.535156 -0.0078125 2.273438 0.0625 1.984375 0.0625 Z M 1.984375 -0.375 C 2.328125 -0.375 2.585938 -0.5 2.765625 -0.75 C 2.953125 -1.007812 3.046875 -1.429688 3.046875 -2.015625 C 3.046875 -2.597656 2.953125 -3.015625 2.765625 -3.265625 C 2.585938 -3.515625 2.328125 -3.640625 1.984375 -3.640625 C 1.753906 -3.640625 1.554688 -3.585938 1.390625 -3.484375 C 1.234375 -3.378906 1.113281 -3.207031 1.03125 -2.96875 C 0.945312 -2.726562 0.90625 -2.410156 0.90625 -2.015625 C 0.90625 -1.617188 0.945312 -1.300781 1.03125 -1.0625 C 1.113281 -0.820312 1.234375 -0.644531 1.390625 -0.53125 C 1.554688 -0.425781 1.753906 -0.375 1.984375 -0.375 Z M 1.984375 -0.375 "/></g></g></g><g clip-path="url(#aca1ff46cf)"><g fill="#ffffff" fill-opacity="1"><g transform="translate(11.707811, 44.105824)"><g><path d="M 2.515625 0 L 2.078125 0 L 2.078125 -0.96875 L 0.1875 -0.96875 L 0.1875 -1.34375 L 1.96875 -4.03125 L 2.515625 -4.03125 L 2.515625 -1.34375 L 3.21875 -1.34375 L 3.21875 -0.96875 L 2.515625 -0.96875 Z M 0.734375 -1.40625 L 0.765625 -1.34375 L 2.078125 -1.34375 L 2.078125 -3.375 L 2.015625 -3.375 Z M 0.734375 -1.40625 "/></g></g></g></g><g fill="#ffffff" fill-opacity="1"><g transform="translate(15.11986, 44.105824)"><g><path d="M 1.984375 0.0625 C 1.679688 0.0625 1.410156 -0.0078125 1.171875 -0.15625 C 0.941406 -0.300781 0.753906 -0.523438 0.609375 -0.828125 C 0.472656 -1.140625 0.40625 -1.535156 0.40625 -2.015625 C 0.40625 -2.492188 0.472656 -2.882812 0.609375 -3.1875 C 0.753906 -3.5 0.941406 -3.722656 1.171875 -3.859375 C 1.410156 -4.003906 1.679688 -4.078125 1.984375 -4.078125 C 2.273438 -4.078125 2.535156 -4.003906 2.765625 -3.859375 C 3.003906 -3.722656 3.191406 -3.5 3.328125 -3.1875 C 3.472656 -2.882812 3.546875 -2.492188 3.546875 -2.015625 C 3.546875 -1.535156 3.472656 -1.140625 3.328125 -0.828125 C 3.191406 -0.523438 3.003906 -0.300781 2.765625 -0.15625 C 2.535156 -0.0078125 2.273438 0.0625 1.984375 0.0625 Z M 1.984375 -0.375 C 2.328125 -0.375 2.585938 -0.5 2.765625 -0.75 C 2.953125 -1.007812 3.046875 -1.429688 3.046875 -2.015625 C 3.046875 -2.597656 2.953125 -3.015625 2.765625 -3.265625 C 2.585938 -3.515625 2.328125 -3.640625 1.984375 -3.640625 C 1.753906 -3.640625 1.554688 -3.585938 1.390625 -3.484375 C 1.234375 -3.378906 1.113281 -3.207031 1.03125 -2.96875 C 0.945312 -2.726562 0.90625 -2.410156 0.90625 -2.015625 C 0.90625 -1.617188 0.945312 -1.300781 1.03125 -1.0625 C 1.113281 -0.820312 1.234375 -0.644531 1.390625 -0.53125 C 1.554688 -0.425781 1.753906 -0.375 1.984375 -0.375 Z M 1.984375 -0.375 "/></g></g></g><g clip-path="url(#a505146199)"><g fill="#ffffff" fill-opacity="1"><g transform="translate(11.745079, 15.483786)"><g><path d="M 1.65625 0.0625 C 1.28125 0.0625 0.976562 -0.0195312 0.75 -0.1875 C 0.53125 -0.351562 0.382812 -0.59375 0.3125 -0.90625 L 0.671875 -1.0625 L 0.734375 -1.046875 C 0.773438 -0.890625 0.832031 -0.757812 0.90625 -0.65625 C 0.976562 -0.5625 1.078125 -0.488281 1.203125 -0.4375 C 1.328125 -0.394531 1.476562 -0.375 1.65625 -0.375 C 1.925781 -0.375 2.132812 -0.453125 2.28125 -0.609375 C 2.4375 -0.773438 2.515625 -1.015625 2.515625 -1.328125 C 2.515625 -1.640625 2.441406 -1.875 2.296875 -2.03125 C 2.148438 -2.195312 1.945312 -2.28125 1.6875 -2.28125 C 1.476562 -2.28125 1.3125 -2.238281 1.1875 -2.15625 C 1.0625 -2.082031 0.953125 -1.960938 0.859375 -1.796875 L 0.484375 -1.828125 L 0.5625 -4.03125 L 2.8125 -4.03125 L 2.8125 -3.625 L 0.96875 -3.625 L 0.921875 -2.28125 L 0.984375 -2.28125 C 1.078125 -2.414062 1.191406 -2.515625 1.328125 -2.578125 C 1.460938 -2.648438 1.628906 -2.6875 1.828125 -2.6875 C 2.066406 -2.6875 2.273438 -2.632812 2.453125 -2.53125 C 2.628906 -2.425781 2.765625 -2.269531 2.859375 -2.0625 C 2.960938 -1.851562 3.015625 -1.609375 3.015625 -1.328125 C 3.015625 -1.035156 2.957031 -0.785156 2.84375 -0.578125 C 2.726562 -0.367188 2.566406 -0.207031 2.359375 -0.09375 C 2.160156 0.0078125 1.925781 0.0625 1.65625 0.0625 Z M 1.65625 0.0625 "/></g></g></g></g><g clip-path="url(#818f175eb1)"><g fill="#ffffff" fill-opacity="1"><g transform="translate(15.077266, 15.483786)"><g><path d="M 1.984375 0.0625 C 1.679688 0.0625 1.410156 -0.0078125 1.171875 -0.15625 C 0.941406 -0.300781 0.753906 -0.523438 0.609375 -0.828125 C 0.472656 -1.140625 0.40625 -1.535156 0.40625 -2.015625 C 0.40625 -2.492188 0.472656 -2.882812 0.609375 -3.1875 C 0.753906 -3.5 0.941406 -3.722656 1.171875 -3.859375 C 1.410156 -4.003906 1.679688 -4.078125 1.984375 -4.078125 C 2.273438 -4.078125 2.535156 -4.003906 2.765625 -3.859375 C 3.003906 -3.722656 3.191406 -3.5 3.328125 -3.1875 C 3.472656 -2.882812 3.546875 -2.492188 3.546875 -2.015625 C 3.546875 -1.535156 3.472656 -1.140625 3.328125 -0.828125 C 3.191406 -0.523438 3.003906 -0.300781 2.765625 -0.15625 C 2.535156 -0.0078125 2.273438 0.0625 1.984375 0.0625 Z M 1.984375 -0.375 C 2.328125 -0.375 2.585938 -0.5 2.765625 -0.75 C 2.953125 -1.007812 3.046875 -1.429688 3.046875 -2.015625 C 3.046875 -2.597656 2.953125 -3.015625 2.765625 -3.265625 C 2.585938 -3.515625 2.328125 -3.640625 1.984375 -3.640625 C 1.753906 -3.640625 1.554688 -3.585938 1.390625 -3.484375 C 1.234375 -3.378906 1.113281 -3.207031 1.03125 -2.96875 C 0.945312 -2.726562 0.90625 -2.410156 0.90625 -2.015625 C 0.90625 -1.617188 0.945312 -1.300781 1.03125 -1.0625 C 1.113281 -0.820312 1.234375 -0.644531 1.390625 -0.53125 C 1.554688 -0.425781 1.753906 -0.375 1.984375 -0.375 Z M 1.984375 -0.375 "/></g></g></g></g><g clip-path="url(#474d4758bc)"><path fill="#6ce5e8" d="M 25.816406 99.363281 L 53.558594 99.363281 C 53.90625 99.363281 54.246094 99.429688 54.566406 99.5625 C 54.890625 99.699219 55.175781 99.886719 55.425781 100.136719 C 55.671875 100.382812 55.863281 100.667969 56 100.992188 C 56.132812 101.316406 56.199219 101.652344 56.199219 102.003906 L 56.199219 156.605469 C 56.199219 156.957031 56.132812 157.292969 56 157.617188 C 55.863281 157.941406 55.671875 158.226562 55.425781 158.472656 C 55.175781 158.722656 54.890625 158.914062 54.566406 159.046875 C 54.246094 159.179688 53.90625 159.25 53.558594 159.25 L 25.816406 159.25 C 25.464844 159.25 25.128906 159.179688 24.804688 159.046875 C 24.480469 158.914062 24.195312 158.722656 23.949219 158.472656 C 23.699219 158.226562 23.507812 157.941406 23.375 157.617188 C 23.242188 157.292969 23.171875 156.957031 23.171875 156.605469 L 23.171875 102.003906 C 23.171875 101.652344 23.242188 101.316406 23.375 100.992188 C 23.507812 100.667969 23.699219 100.382812 23.949219 100.136719 C 24.195312 99.886719 24.480469 99.699219 24.804688 99.5625 C 25.128906 99.429688 25.464844 99.363281 25.816406 99.363281 Z M 25.816406 99.363281 " fill-opacity="1" fill-rule="nonzero"/></g><g clip-path="url(#966ba2560d)"><path fill="#41b8d5" d="M 25.816406 99.363281 L 53.558594 99.363281 C 53.90625 99.363281 54.246094 99.429688 54.566406 99.5625 C 54.890625 99.699219 55.175781 99.886719 55.425781 100.136719 C 55.671875 100.382812 55.863281 100.667969 56 100.992188 C 56.132812 101.316406 56.199219 101.652344 56.199219 102.003906 L 56.199219 156.605469 C 56.199219 156.957031 56.132812 157.292969 56 157.617188 C 55.863281 157.941406 55.671875 158.226562 55.425781 158.472656 C 55.175781 158.722656 54.890625 158.914062 54.566406 159.046875 C 54.246094 159.179688 53.90625 159.25 53.558594 159.25 L 25.816406 159.25 C 25.464844 159.25 25.128906 159.179688 24.804688 159.046875 C 24.480469 158.914062 24.195312 158.722656 23.949219 158.472656 C 23.699219 158.226562 23.507812 157.941406 23.375 157.617188 C 23.242188 157.292969 23.171875 156.957031 23.171875 156.605469 L 23.171875 102.003906 C 23.171875 101.652344 23.242188 101.316406 23.375 100.992188 C 23.507812 100.667969 23.699219 100.382812 23.949219 100.136719 C 24.195312 99.886719 24.480469 99.699219 24.804688 99.5625 C 25.128906 99.429688 25.464844 99.363281 25.816406 99.363281 Z M 25.816406 99.363281 " fill-opacity="1" fill-rule="nonzero"/></g><g clip-path="url(#98aa789235)"><path fill="#2d8bba" d="M 25.816406 99.363281 L 53.558594 99.363281 C 53.90625 99.363281 54.246094 99.429688 54.566406 99.5625 C 54.890625 99.699219 55.175781 99.886719 55.425781 100.136719 C 55.671875 100.382812 55.863281 100.667969 56 100.992188 C 56.132812 101.316406 56.199219 101.652344 56.199219 102.003906 L 56.199219 156.605469 C 56.199219 156.957031 56.132812 157.292969 56 157.617188 C 55.863281 157.941406 55.671875 158.226562 55.425781 158.472656 C 55.175781 158.722656 54.890625 158.914062 54.566406 159.046875 C 54.246094 159.179688 53.90625 159.25 53.558594 159.25 L 25.816406 159.25 C 25.464844 159.25 25.128906 159.179688 24.804688 159.046875 C 24.480469 158.914062 24.195312 158.722656 23.949219 158.472656 C 23.699219 158.226562 23.507812 157.941406 23.375 157.617188 C 23.242188 157.292969 23.171875 156.957031 23.171875 156.605469 L 23.171875 102.003906 C 23.171875 101.652344 23.242188 101.316406 23.375 100.992188 C 23.507812 100.667969 23.699219 100.382812 23.949219 100.136719 C 24.195312 99.886719 24.480469 99.699219 24.804688 99.5625 C 25.128906 99.429688 25.464844 99.363281 25.816406 99.363281 Z M 25.816406 99.363281 " fill-opacity="1" fill-rule="nonzero"/></g><g clip-path="url(#86bc7f1e9e)"><path fill="#6ce5e8" d="M 62.511719 70.738281 L 90.253906 70.738281 C 90.601562 70.738281 90.941406 70.808594 91.261719 70.941406 C 91.585938 71.074219 91.871094 71.265625 92.121094 71.515625 C 92.367188 71.761719 92.558594 72.046875 92.691406 72.371094 C 92.828125 72.695312 92.894531 73.03125 92.894531 73.382812 L 92.894531 156.605469 C 92.894531 156.957031 92.828125 157.292969 92.691406 157.617188 C 92.558594 157.941406 92.367188 158.226562 92.121094 158.472656 C 91.871094 158.722656 91.585938 158.914062 91.261719 159.046875 C 90.941406 159.179688 90.601562 159.25 90.253906 159.25 L 62.511719 159.25 C 62.160156 159.25 61.824219 159.179688 61.5 159.046875 C 61.175781 158.914062 60.890625 158.722656 60.640625 158.472656 C 60.394531 158.226562 60.203125 157.941406 60.070312 157.617188 C 59.9375 157.292969 59.867188 156.957031 59.867188 156.605469 L 59.867188 73.382812 C 59.867188 73.03125 59.9375 72.695312 60.070312 72.371094 C 60.203125 72.046875 60.394531 71.761719 60.640625 71.515625 C 60.890625 71.265625 61.175781 71.074219 61.5 70.941406 C 61.824219 70.808594 62.160156 70.738281 62.511719 70.738281 Z M 62.511719 70.738281 " fill-opacity="1" fill-rule="nonzero"/></g><g clip-path="url(#896e4d0fe9)"><path fill="#41b8d5" d="M 62.511719 70.738281 L 90.253906 70.738281 C 90.601562 70.738281 90.941406 70.808594 91.261719 70.941406 C 91.585938 71.074219 91.871094 71.265625 92.121094 71.515625 C 92.367188 71.761719 92.558594 72.046875 92.691406 72.371094 C 92.828125 72.695312 92.894531 73.03125 92.894531 73.382812 L 92.894531 156.605469 C 92.894531 156.957031 92.828125 157.292969 92.691406 157.617188 C 92.558594 157.941406 92.367188 158.226562 92.121094 158.472656 C 91.871094 158.722656 91.585938 158.914062 91.261719 159.046875 C 90.941406 159.179688 90.601562 159.25 90.253906 159.25 L 62.511719 159.25 C 62.160156 159.25 61.824219 159.179688 61.5 159.046875 C 61.175781 158.914062 60.890625 158.722656 60.640625 158.472656 C 60.394531 158.226562 60.203125 157.941406 60.070312 157.617188 C 59.9375 157.292969 59.867188 156.957031 59.867188 156.605469 L 59.867188 73.382812 C 59.867188 73.03125 59.9375 72.695312 60.070312 72.371094 C 60.203125 72.046875 60.394531 71.761719 60.640625 71.515625 C 60.890625 71.265625 61.175781 71.074219 61.5 70.941406 C 61.824219 70.808594 62.160156 70.738281 62.511719 70.738281 Z M 62.511719 70.738281 " fill-opacity="1" fill-rule="nonzero"/></g><g clip-path="url(#3047cc4440)"><path fill="#2d8bba" d="M 62.511719 70.738281 L 90.253906 70.738281 C 90.601562 70.738281 90.941406 70.808594 91.261719 70.941406 C 91.585938 71.074219 91.871094 71.265625 92.121094 71.515625 C 92.367188 71.761719 92.558594 72.046875 92.691406 72.371094 C 92.828125 72.695312 92.894531 73.03125 92.894531 73.382812 L 92.894531 156.605469 C 92.894531 156.957031 92.828125 157.292969 92.691406 157.617188 C 92.558594 157.941406 92.367188 158.226562 92.121094 158.472656 C 91.871094 158.722656 91.585938 158.914062 91.261719 159.046875 C 90.941406 159.179688 90.601562 159.25 90.253906 159.25 L 62.511719 159.25 C 62.160156 159.25 61.824219 159.179688 61.5 159.046875 C 61.175781 158.914062 60.890625 158.722656 60.640625 158.472656 C 60.394531 158.226562 60.203125 157.941406 60.070312 157.617188 C 59.9375 157.292969 59.867188 156.957031 59.867188 156.605469 L 59.867188 73.382812 C 59.867188 73.03125 59.9375 72.695312 60.070312 72.371094 C 60.203125 72.046875 60.394531 71.761719 60.640625 71.515625 C 60.890625 71.265625 61.175781 71.074219 61.5 70.941406 C 61.824219 70.808594 62.160156 70.738281 62.511719 70.738281 Z M 62.511719 70.738281 " fill-opacity="1" fill-rule="nonzero"/></g><g clip-path="url(#164b0a45ac)"><path fill="#6ce5e8" d="M 99.207031 53.566406 L 126.945312 53.566406 C 127.296875 53.566406 127.632812 53.632812 127.957031 53.769531 C 128.28125 53.902344 128.566406 54.09375 128.816406 54.339844 C 129.0625 54.589844 129.253906 54.875 129.386719 55.199219 C 129.523438 55.523438 129.589844 55.859375 129.589844 56.210938 L 129.589844 156.605469 C 129.589844 156.957031 129.523438 157.292969 129.386719 157.617188 C 129.253906 157.941406 129.0625 158.226562 128.816406 158.472656 C 128.566406 158.722656 128.28125 158.914062 127.957031 159.046875 C 127.632812 159.179688 127.296875 159.25 126.945312 159.25 L 99.207031 159.25 C 98.855469 159.25 98.519531 159.179688 98.195312 159.046875 C 97.871094 158.914062 97.585938 158.722656 97.335938 158.472656 C 97.089844 158.226562 96.898438 157.941406 96.765625 157.617188 C 96.628906 157.292969 96.5625 156.957031 96.5625 156.605469 L 96.5625 56.210938 C 96.5625 55.859375 96.628906 55.523438 96.765625 55.199219 C 96.898438 54.875 97.089844 54.589844 97.335938 54.339844 C 97.585938 54.09375 97.871094 53.902344 98.195312 53.769531 C 98.519531 53.632812 98.855469 53.566406 99.207031 53.566406 Z M 99.207031 53.566406 " fill-opacity="1" fill-rule="nonzero"/></g><g clip-path="url(#fa3f3e1b57)"><path fill="#41b8d5" d="M 99.207031 53.566406 L 126.945312 53.566406 C 127.296875 53.566406 127.632812 53.632812 127.957031 53.769531 C 128.28125 53.902344 128.566406 54.09375 128.816406 54.339844 C 129.0625 54.589844 129.253906 54.875 129.386719 55.199219 C 129.523438 55.523438 129.589844 55.859375 129.589844 56.210938 L 129.589844 156.605469 C 129.589844 156.957031 129.523438 157.292969 129.386719 157.617188 C 129.253906 157.941406 129.0625 158.226562 128.816406 158.472656 C 128.566406 158.722656 128.28125 158.914062 127.957031 159.046875 C 127.632812 159.179688 127.296875 159.25 126.945312 159.25 L 99.207031 159.25 C 98.855469 159.25 98.519531 159.179688 98.195312 159.046875 C 97.871094 158.914062 97.585938 158.722656 97.335938 158.472656 C 97.089844 158.226562 96.898438 157.941406 96.765625 157.617188 C 96.628906 157.292969 96.5625 156.957031 96.5625 156.605469 L 96.5625 56.210938 C 96.5625 55.859375 96.628906 55.523438 96.765625 55.199219 C 96.898438 54.875 97.089844 54.589844 97.335938 54.339844 C 97.585938 54.09375 97.871094 53.902344 98.195312 53.769531 C 98.519531 53.632812 98.855469 53.566406 99.207031 53.566406 Z M 99.207031 53.566406 " fill-opacity="1" fill-rule="nonzero"/></g><g clip-path="url(#e5b2af5cae)"><path fill="#2d8bba" d="M 99.207031 53.566406 L 126.945312 53.566406 C 127.296875 53.566406 127.632812 53.632812 127.957031 53.769531 C 128.28125 53.902344 128.566406 54.09375 128.816406 54.339844 C 129.0625 54.589844 129.253906 54.875 129.386719 55.199219 C 129.523438 55.523438 129.589844 55.859375 129.589844 56.210938 L 129.589844 156.605469 C 129.589844 156.957031 129.523438 157.292969 129.386719 157.617188 C 129.253906 157.941406 129.0625 158.226562 128.816406 158.472656 C 128.566406 158.722656 128.28125 158.914062 127.957031 159.046875 C 127.632812 159.179688 127.296875 159.25 126.945312 159.25 L 99.207031 159.25 C 98.855469 159.25 98.519531 159.179688 98.195312 159.046875 C 97.871094 158.914062 97.585938 158.722656 97.335938 158.472656 C 97.089844 158.226562 96.898438 157.941406 96.765625 157.617188 C 96.628906 157.292969 96.5625 156.957031 96.5625 156.605469 L 96.5625 56.210938 C 96.5625 55.859375 96.628906 55.523438 96.765625 55.199219 C 96.898438 54.875 97.089844 54.589844 97.335938 54.339844 C 97.585938 54.09375 97.871094 53.902344 98.195312 53.769531 C 98.519531 53.632812 98.855469 53.566406 99.207031 53.566406 Z M 99.207031 53.566406 " fill-opacity="1" fill-rule="nonzero"/></g><g clip-path="url(#c7deee45d0)"><path fill="#6ce5e8" d="M 135.902344 13.496094 L 163.640625 13.496094 C 163.992188 13.496094 164.328125 13.5625 164.652344 13.695312 C 164.976562 13.832031 165.261719 14.023438 165.511719 14.269531 C 165.757812 14.519531 165.949219 14.804688 166.082031 15.128906 C 166.21875 15.449219 166.285156 15.789062 166.285156 16.136719 L 166.285156 156.605469 C 166.285156 156.957031 166.21875 157.292969 166.082031 157.617188 C 165.949219 157.941406 165.757812 158.226562 165.511719 158.472656 C 165.261719 158.722656 164.976562 158.914062 164.652344 159.046875 C 164.328125 159.179688 163.992188 159.25 163.640625 159.25 L 135.902344 159.25 C 135.550781 159.25 135.214844 159.179688 134.890625 159.046875 C 134.566406 158.914062 134.28125 158.722656 134.03125 158.472656 C 133.785156 158.226562 133.59375 157.941406 133.460938 157.617188 C 133.324219 157.292969 133.257812 156.957031 133.257812 156.605469 L 133.257812 16.136719 C 133.257812 15.789062 133.324219 15.449219 133.460938 15.128906 C 133.59375 14.804688 133.785156 14.519531 134.03125 14.269531 C 134.28125 14.023438 134.566406 13.832031 134.890625 13.695312 C 135.214844 13.5625 135.550781 13.496094 135.902344 13.496094 Z M 135.902344 13.496094 " fill-opacity="1" fill-rule="nonzero"/></g><g clip-path="url(#c33264c89d)"><path fill="#41b8d5" d="M 135.902344 13.496094 L 163.640625 13.496094 C 163.992188 13.496094 164.328125 13.5625 164.652344 13.695312 C 164.976562 13.832031 165.261719 14.023438 165.511719 14.269531 C 165.757812 14.519531 165.949219 14.804688 166.082031 15.128906 C 166.21875 15.449219 166.285156 15.789062 166.285156 16.136719 L 166.285156 156.605469 C 166.285156 156.957031 166.21875 157.292969 166.082031 157.617188 C 165.949219 157.941406 165.757812 158.226562 165.511719 158.472656 C 165.261719 158.722656 164.976562 158.914062 164.652344 159.046875 C 164.328125 159.179688 163.992188 159.25 163.640625 159.25 L 135.902344 159.25 C 135.550781 159.25 135.214844 159.179688 134.890625 159.046875 C 134.566406 158.914062 134.28125 158.722656 134.03125 158.472656 C 133.785156 158.226562 133.59375 157.941406 133.460938 157.617188 C 133.324219 157.292969 133.257812 156.957031 133.257812 156.605469 L 133.257812 16.136719 C 133.257812 15.789062 133.324219 15.449219 133.460938 15.128906 C 133.59375 14.804688 133.785156 14.519531 134.03125 14.269531 C 134.28125 14.023438 134.566406 13.832031 134.890625 13.695312 C 135.214844 13.5625 135.550781 13.496094 135.902344 13.496094 Z M 135.902344 13.496094 " fill-opacity="1" fill-rule="nonzero"/></g><g clip-path="url(#1a72b0a0f6)"><path fill="#2d8bba" d="M 135.902344 13.496094 L 163.640625 13.496094 C 163.992188 13.496094 164.328125 13.5625 164.652344 13.695312 C 164.976562 13.832031 165.261719 14.023438 165.511719 14.269531 C 165.757812 14.519531 165.949219 14.804688 166.082031 15.128906 C 166.21875 15.449219 166.285156 15.789062 166.285156 16.136719 L 166.285156 156.605469 C 166.285156 156.957031 166.21875 157.292969 166.082031 157.617188 C 165.949219 157.941406 165.757812 158.226562 165.511719 158.472656 C 165.261719 158.722656 164.976562 158.914062 164.652344 159.046875 C 164.328125 159.179688 163.992188 159.25 163.640625 159.25 L 135.902344 159.25 C 135.550781 159.25 135.214844 159.179688 134.890625 159.046875 C 134.566406 158.914062 134.28125 158.722656 134.03125 158.472656 C 133.785156 158.226562 133.59375 157.941406 133.460938 157.617188 C 133.324219 157.292969 133.257812 156.957031 133.257812 156.605469 L 133.257812 16.136719 C 133.257812 15.789062 133.324219 15.449219 133.460938 15.128906 C 133.59375 14.804688 133.785156 14.519531 134.03125 14.269531 C 134.28125 14.023438 134.566406 13.832031 134.890625 13.695312 C 135.214844 13.5625 135.550781 13.496094 135.902344 13.496094 Z M 135.902344 13.496094 " fill-opacity="1" fill-rule="nonzero"/></g></g></g></g><g mask="url(#d6ef487642)"><g transform="matrix(1, 0, 0, 1, 254, 111)"><g clip-path="url(#744e751808)"><g clip-path="url(#236506cdb6)"><path fill="#2d8bba" d="M 92.023438 20.90625 C 92.023438 20.90625 63.691406 1.0625 63.691406 1.0625 C 62.289062 0.0820312 60.398438 0.0820312 58.996094 1.0625 L 30.660156 20.90625 C 30.199219 21.234375 30.085938 21.875 30.402344 22.339844 L 32.746094 25.683594 C 33.054688 26.144531 33.738281 26.257812 34.179688 25.941406 C 34.179688 25.941406 36.820312 24.09375 36.820312 24.09375 L 36.820312 30.832031 L 35.121094 29.632812 C 33.714844 28.652344 31.828125 28.652344 30.425781 29.632812 L 18.507812 37.980469 L 18.507812 36.402344 C 19.0625 36.402344 19.519531 35.9375 19.519531 35.371094 L 19.519531 31.285156 C 19.519531 30.71875 19.054688 30.253906 18.484375 30.253906 L 9.304688 30.253906 C 8.734375 30.253906 8.269531 30.71875 8.269531 31.285156 L 8.269531 35.371094 C 8.269531 35.9375 8.726562 36.402344 9.292969 36.402344 L 9.292969 44.429688 L 2.089844 49.476562 C 1.625 49.785156 1.511719 50.464844 1.832031 50.910156 C 1.832031 50.910156 4.175781 54.253906 4.175781 54.253906 C 4.371094 54.542969 4.691406 54.695312 5.019531 54.695312 C 5.226562 54.695312 5.433594 54.636719 5.609375 54.511719 L 8.269531 52.652344 L 8.269531 84.339844 L 5.773438 84.339844 C 5.207031 84.339844 4.742188 84.804688 4.742188 85.375 L 4.742188 89.550781 C 4.742188 90.121094 5.207031 90.585938 5.773438 90.585938 L 88.320312 90.585938 C 88.886719 90.585938 89.351562 90.121094 89.351562 89.550781 L 89.351562 85.375 C 89.351562 84.804688 88.886719 84.339844 88.320312 84.339844 L 85.824219 84.339844 C 85.824219 70.503906 85.824219 37.546875 85.824219 24.082031 L 88.484375 25.941406 C 88.949219 26.257812 89.589844 26.15625 89.921875 25.683594 C 89.921875 25.683594 92.261719 22.339844 92.261719 22.339844 C 92.59375 21.894531 92.46875 21.214844 92.003906 20.90625 Z M 10.355469 32.316406 L 17.476562 32.316406 L 17.476562 34.339844 L 10.355469 34.339844 Z M 11.375 36.402344 L 16.453125 36.402344 L 16.453125 39.425781 L 11.375 42.976562 Z M 5.289062 52.21875 L 4.132812 50.570312 L 31.621094 31.324219 C 32.324219 30.839844 33.25 30.839844 33.953125 31.324219 L 61.441406 50.570312 L 60.285156 52.21875 L 33.386719 33.390625 C 33.035156 33.140625 32.558594 33.140625 32.199219 33.390625 Z M 39.402344 84.332031 L 26.164062 84.332031 L 26.164062 62.929688 L 39.402344 62.929688 Z M 87.308594 88.511719 L 6.828125 88.511719 L 6.828125 86.394531 C 6.828125 86.394531 9.304688 86.394531 9.304688 86.394531 C 9.304688 86.394531 84.8125 86.394531 84.8125 86.394531 C 84.824219 86.394531 87.289062 86.394531 87.308594 86.394531 Z M 41.464844 84.332031 L 41.464844 61.898438 C 41.464844 61.332031 41 60.867188 40.433594 60.867188 L 25.132812 60.867188 C 24.5625 60.867188 24.097656 61.332031 24.097656 61.898438 L 24.097656 84.332031 L 10.355469 84.332031 L 10.355469 51.199219 L 32.789062 35.496094 L 59.945312 54.511719 C 60.390625 54.839844 61.070312 54.71875 61.378906 54.253906 C 61.378906 54.253906 63.722656 50.910156 63.722656 50.910156 C 64.050781 50.445312 63.9375 49.796875 63.464844 49.476562 L 59.410156 46.636719 L 83.78125 46.636719 L 83.78125 84.339844 L 41.464844 84.339844 Z M 83.78125 44.5625 L 56.457031 44.5625 L 38.894531 32.265625 L 38.894531 22.636719 L 61.347656 6.914062 L 83.78125 22.617188 Z M 88.847656 23.648438 L 61.945312 4.816406 C 61.773438 4.695312 61.566406 4.632812 61.359375 4.632812 C 61.152344 4.632812 60.945312 4.695312 60.769531 4.816406 L 33.871094 23.648438 L 32.714844 22 L 60.183594 2.753906 C 60.882812 2.269531 61.8125 2.269531 62.515625 2.753906 L 90.003906 22 Z M 88.847656 23.648438 " fill-opacity="1" fill-rule="nonzero"/></g><path fill="#2d8bba" d="M 55.230469 19.035156 C 54.664062 19.035156 54.199219 19.5 54.199219 20.070312 L 54.199219 32.316406 C 54.199219 32.882812 54.664062 33.347656 55.230469 33.347656 L 67.46875 33.347656 C 68.035156 33.347656 68.5 32.882812 68.5 32.316406 L 68.5 20.070312 C 68.5 19.5 68.035156 19.035156 67.46875 19.035156 Z M 60.316406 21.101562 L 60.316406 25.15625 L 56.261719 25.15625 L 56.261719 21.101562 Z M 56.261719 27.21875 L 60.316406 27.21875 L 60.316406 31.273438 L 56.261719 31.273438 Z M 62.378906 31.273438 L 62.378906 27.21875 L 66.4375 27.21875 L 66.4375 31.273438 Z M 66.4375 25.15625 L 62.378906 25.15625 L 62.378906 21.101562 L 66.4375 21.101562 Z M 66.4375 25.15625 " fill-opacity="1" fill-rule="nonzero"/><path fill="#2d8bba" d="M 67.46875 60.867188 L 55.230469 60.867188 C 54.664062 60.867188 54.199219 61.332031 54.199219 61.898438 L 54.199219 78.222656 C 54.199219 78.789062 54.664062 79.253906 55.230469 79.253906 L 67.46875 79.253906 C 68.035156 79.253906 68.5 78.789062 68.5 78.222656 L 68.5 61.898438 C 68.5 61.332031 68.035156 60.867188 67.46875 60.867188 Z M 66.4375 69.027344 L 62.378906 69.027344 L 62.378906 62.929688 L 66.4375 62.929688 Z M 60.316406 62.929688 L 60.316406 69.027344 L 56.261719 69.027344 L 56.261719 62.929688 Z M 56.261719 71.09375 L 60.316406 71.09375 L 60.316406 77.191406 L 56.261719 77.191406 Z M 62.378906 77.191406 L 62.378906 71.09375 L 66.4375 71.09375 L 66.4375 77.191406 Z M 62.378906 77.191406 " fill-opacity="1" fill-rule="nonzero"/><path fill="#2d8bba" d="M 32.789062 42.5 C 26.027344 42.71875 26.027344 52.507812 32.789062 52.726562 C 39.546875 52.507812 39.546875 42.71875 32.789062 42.5 Z M 32.789062 50.664062 C 28.761719 50.558594 28.761719 44.667969 32.789062 44.5625 C 36.8125 44.667969 36.8125 50.558594 32.789062 50.664062 Z M 32.789062 50.664062 " fill-opacity="1" fill-rule="nonzero"/></g></g></g><g mask="url(#cd83988e5a)"><g transform="matrix(1, 0, 0, 1, 254, 248)"><g clip-path="url(#8b4b7b0816)"><g clip-path="url(#041e47d6ce)"><path fill="#5271ff" d="M 89.601562 79.480469 L 77.265625 79.480469 L 77.265625 82.136719 L 85.804688 82.136719 C 88.910156 82.136719 91.4375 84.664062 91.4375 87.769531 C 91.4375 90.875 88.910156 93.398438 85.804688 93.398438 L 50.46875 93.398438 C 47.363281 93.398438 44.835938 90.875 44.835938 87.769531 C 44.835938 84.664062 47.363281 82.136719 50.46875 82.136719 L 58.300781 82.136719 L 58.300781 79.480469 L 54.925781 79.480469 C 53.238281 79.480469 51.867188 78.109375 51.867188 76.421875 L 51.867188 72.042969 C 51.867188 71.324219 52.003906 70.617188 52.269531 69.949219 L 52.578125 69.171875 L 27.160156 45.871094 C 27.113281 45.828125 27.074219 45.777344 27.039062 45.726562 L 10.339844 19.707031 L 10.339844 43.691406 L 13.113281 48.054688 C 13.265625 48.292969 13.265625 48.601562 13.113281 48.839844 L 10.226562 53.382812 C 10.089844 53.597656 9.859375 53.726562 9.605469 53.726562 L 7.824219 53.726562 L 7.824219 57.515625 C 7.824219 57.917969 7.492188 58.246094 7.089844 58.246094 C 6.003906 58.246094 5.125 59.128906 5.125 60.210938 C 5.125 61.296875 6.003906 62.179688 7.089844 62.179688 C 8.171875 62.179688 9.054688 61.296875 9.054688 60.210938 C 9.054688 59.808594 9.382812 59.480469 9.789062 59.480469 C 10.191406 59.480469 10.519531 59.808594 10.519531 60.210938 C 10.519531 62.105469 8.980469 63.644531 7.089844 63.644531 C 5.195312 63.644531 3.65625 62.105469 3.65625 60.210938 C 3.65625 58.570312 4.816406 57.195312 6.355469 56.859375 L 6.355469 53.726562 L 4.570312 53.726562 C 4.320312 53.726562 4.085938 53.597656 3.953125 53.382812 L 1.066406 48.839844 C 0.914062 48.601562 0.914062 48.292969 1.066406 48.054688 L 3.839844 43.691406 L 3.839844 9.367188 C 3.839844 9.148438 3.9375 8.941406 4.105469 8.800781 L 13.277344 1.207031 C 13.484375 1.039062 13.761719 0.996094 14.007812 1.089844 L 22.988281 4.554688 C 23.105469 4.597656 23.210938 4.671875 23.289062 4.769531 L 27.042969 9.304688 L 82.351562 44.238281 C 83.785156 43.210938 85.796875 43.335938 87.085938 44.625 C 88.515625 46.054688 88.515625 48.382812 87.085938 49.816406 C 86.996094 49.90625 86.90625 49.988281 86.808594 50.0625 L 86.808594 65.277344 L 89.601562 65.277344 C 91.285156 65.277344 92.65625 66.648438 92.65625 68.335938 L 92.65625 76.421875 C 92.65625 78.109375 91.285156 79.480469 89.601562 79.480469 Z M 78.898438 85.15625 L 81.675781 85.15625 C 83.113281 85.15625 84.289062 86.328125 84.289062 87.769531 C 84.289062 89.207031 83.113281 90.378906 81.675781 90.378906 L 78.894531 90.378906 C 79.671875 91.347656 80.855469 91.933594 82.140625 91.933594 C 84.4375 91.933594 86.308594 90.066406 86.308594 87.769531 C 86.308594 85.46875 84.4375 83.601562 82.140625 83.601562 C 80.855469 83.601562 79.675781 84.1875 78.898438 85.15625 Z M 54.132812 83.601562 C 51.835938 83.601562 49.964844 85.46875 49.964844 87.769531 C 49.964844 90.066406 51.835938 91.933594 54.132812 91.933594 C 55.417969 91.933594 56.601562 91.347656 57.378906 90.378906 L 54.597656 90.378906 C 53.160156 90.378906 51.988281 89.207031 51.988281 87.769531 C 51.988281 86.328125 53.160156 85.15625 54.597656 85.15625 L 57.375 85.15625 C 56.597656 84.1875 55.417969 83.601562 54.132812 83.601562 Z M 54.601562 86.621094 C 53.96875 86.621094 53.453125 87.136719 53.453125 87.769531 C 53.453125 88.398438 53.96875 88.914062 54.601562 88.914062 L 81.675781 88.914062 C 82.308594 88.914062 82.820312 88.398438 82.820312 87.769531 C 82.820312 87.136719 82.308594 86.621094 81.675781 86.621094 Z M 89.972656 87.769531 C 89.972656 85.511719 88.167969 83.671875 85.929688 83.605469 C 87.0625 84.636719 87.773438 86.121094 87.773438 87.769531 C 87.773438 89.414062 87.0625 90.898438 85.929688 91.929688 C 88.167969 91.863281 89.972656 90.023438 89.972656 87.769531 Z M 78.347656 91.933594 C 77.867188 91.496094 77.464844 90.972656 77.152344 90.378906 L 59.121094 90.378906 C 58.8125 90.972656 58.40625 91.496094 57.925781 91.933594 Z M 46.304688 87.769531 C 46.304688 90.023438 48.105469 91.863281 50.34375 91.929688 C 49.210938 90.898438 48.5 89.414062 48.5 87.769531 C 48.5 86.121094 49.210938 84.636719 50.34375 83.605469 C 48.105469 83.671875 46.304688 85.511719 46.304688 87.769531 Z M 59.121094 85.15625 L 77.152344 85.15625 C 77.460938 84.5625 77.871094 84.039062 78.351562 83.601562 L 57.925781 83.601562 C 58.402344 84.039062 58.8125 84.5625 59.121094 85.15625 Z M 59.765625 82.136719 L 75.796875 82.136719 L 75.796875 79.480469 L 59.765625 79.480469 Z M 54.925781 78.015625 L 66.632812 78.015625 L 66.632812 76.144531 L 53.335938 76.144531 L 53.335938 76.421875 C 53.335938 77.300781 54.046875 78.015625 54.925781 78.015625 Z M 75.605469 61.796875 L 81.117188 53.566406 L 81.117188 50.933594 L 73.84375 61.796875 Z M 81.121094 56.199219 L 77.371094 61.796875 L 77.894531 61.796875 C 78.300781 61.796875 78.628906 62.125 78.628906 62.53125 L 78.628906 65.277344 L 81.121094 65.277344 Z M 77.164062 63.261719 L 71.820312 63.261719 L 71.820312 65.277344 L 77.164062 65.277344 Z M 71.085938 61.796875 L 72.078125 61.796875 L 80.820312 48.746094 L 27.164062 15.765625 L 42.496094 33.015625 C 42.535156 33.0625 42.570312 33.117188 42.601562 33.171875 L 56.253906 59.90625 L 56.8125 58.5 C 57.25 57.40625 58.289062 56.699219 59.46875 56.699219 L 65.40625 56.699219 C 66.980469 56.699219 68.261719 57.976562 68.261719 59.554688 L 68.261719 65.277344 L 70.355469 65.277344 L 70.355469 62.53125 C 70.355469 62.125 70.683594 61.796875 71.085938 61.796875 Z M 19.402344 7.035156 L 21.292969 5.46875 L 16.300781 3.542969 Z M 13.667969 2.789062 L 12.207031 3.996094 L 39.722656 34.957031 C 39.765625 35.003906 39.800781 35.054688 39.828125 35.109375 L 54.640625 63.972656 L 55.535156 61.722656 L 41.335938 33.921875 Z M 21.390625 16.539062 L 21.261719 20.066406 L 25.230469 20.855469 Z M 19.933594 16.292969 L 16.515625 19.121094 L 19.808594 19.773438 Z M 21.007812 27.105469 L 25.699219 27.492188 L 26.40625 22.585938 L 21.210938 21.550781 Z M 27.730469 23.667969 L 27.160156 27.613281 L 31.558594 27.976562 Z M 26.132812 34.769531 L 31.234375 34.746094 L 32.417969 29.515625 L 26.953125 29.066406 Z M 33.71875 30.410156 L 32.738281 34.738281 L 37.550781 34.71875 Z M 32.40625 36.207031 L 31.011719 42.347656 L 37.972656 43.617188 L 38.398438 36.179688 Z M 39.753906 38.175781 L 39.425781 43.882812 L 43.019531 44.539062 Z M 43.863281 46.183594 L 39.34375 45.355469 L 39.066406 50.21875 L 52.175781 62.375 Z M 37.671875 48.925781 L 37.890625 45.09375 L 32.46875 44.101562 Z M 29.796875 41.078125 L 30.898438 36.214844 L 26.636719 36.234375 Z M 24.835938 33.476562 L 25.488281 28.945312 L 21.679688 28.632812 Z M 19.601562 25.441406 L 19.753906 21.257812 L 16.441406 20.597656 Z M 15.035156 18.441406 L 19.675781 14.605469 L 16.65625 11.210938 L 12.542969 14.613281 Z M 11.734375 13.378906 L 15.683594 10.113281 L 11.078125 4.933594 L 7.929688 7.539062 Z M 63.324219 58.164062 L 59.46875 58.164062 C 58.894531 58.164062 58.386719 58.507812 58.175781 59.039062 L 53.632812 70.488281 C 53.527344 70.753906 53.449219 71.03125 53.402344 71.308594 L 59.34375 71.308594 L 63.324219 65.773438 Z M 28.222656 44.851562 L 53.15625 67.714844 L 53.859375 65.9375 L 29.628906 43.46875 C 29.585938 43.425781 29.546875 43.382812 29.511719 43.332031 L 6.792969 8.480469 L 5.539062 9.515625 Z M 5.304688 11.863281 L 5.304688 43.171875 L 8.875 43.171875 L 8.875 17.425781 Z M 4.976562 52.257812 L 9.203125 52.257812 L 11.625 48.449219 L 9.203125 44.636719 L 4.976562 44.636719 L 2.554688 48.449219 Z M 22.628906 6.269531 L 20.375 8.132812 L 23.394531 11.527344 L 25.519531 9.765625 Z M 26.609375 10.765625 L 24.574219 12.453125 L 80.828125 47.03125 C 80.855469 46.441406 81.027344 45.855469 81.339844 45.335938 Z M 86.046875 45.660156 C 85.617188 45.230469 85.050781 45.015625 84.488281 45.015625 C 83.921875 45.015625 83.359375 45.230469 82.929688 45.660156 C 82.066406 46.519531 82.066406 47.921875 82.929688 48.78125 C 83.789062 49.640625 85.1875 49.640625 86.046875 48.78125 C 86.90625 47.917969 86.90625 46.519531 86.046875 45.660156 Z M 85.34375 50.785156 C 85.0625 50.851562 84.777344 50.890625 84.488281 50.890625 C 83.828125 50.890625 83.167969 50.710938 82.585938 50.355469 L 82.585938 65.277344 L 85.34375 65.277344 Z M 91.191406 68.335938 C 91.191406 67.457031 90.476562 66.746094 89.601562 66.746094 L 67.527344 66.746094 C 67.121094 66.746094 66.792969 66.417969 66.792969 66.011719 L 66.792969 59.554688 C 66.792969 58.785156 66.171875 58.164062 65.40625 58.164062 L 64.789062 58.164062 L 64.789062 66.011719 C 64.789062 66.164062 64.742188 66.316406 64.652344 66.441406 L 60.3125 72.472656 C 60.175781 72.664062 59.953125 72.777344 59.71875 72.777344 L 53.335938 72.777344 L 53.335938 74.675781 L 67.363281 74.675781 C 67.769531 74.675781 68.097656 75.003906 68.097656 75.410156 L 68.097656 78.015625 L 89.601562 78.015625 C 90.476562 78.015625 91.191406 77.300781 91.191406 76.421875 Z M 78.628906 69.296875 C 78.628906 68.894531 78.300781 68.566406 77.894531 68.566406 L 71.085938 68.566406 C 70.683594 68.566406 70.355469 68.894531 70.355469 69.296875 C 70.355469 69.703125 70.683594 70.03125 71.085938 70.03125 L 77.894531 70.03125 C 78.300781 70.03125 78.628906 69.703125 78.628906 69.296875 Z M 78.628906 72.34375 C 78.628906 71.9375 78.300781 71.609375 77.894531 71.609375 L 71.085938 71.609375 C 70.683594 71.609375 70.355469 71.9375 70.355469 72.34375 C 70.355469 72.746094 70.683594 73.078125 71.085938 73.078125 L 77.894531 73.078125 C 78.300781 73.078125 78.628906 72.746094 78.628906 72.34375 Z M 78.628906 75.390625 C 78.628906 74.984375 78.300781 74.65625 77.894531 74.65625 L 71.085938 74.65625 C 70.683594 74.65625 70.355469 74.984375 70.355469 75.390625 C 70.355469 75.792969 70.683594 76.121094 71.085938 76.121094 L 77.894531 76.121094 C 78.300781 76.121094 78.628906 75.792969 78.628906 75.390625 Z M 78.628906 75.390625 " fill-opacity="1" fill-rule="nonzero"/></g></g></g></g><g mask="url(#032f1e5248)"><g transform="matrix(1, 0, 0, 1, 257, 20)"><g clip-path="url(#04e7b1bbed)"><g clip-path="url(#140c025e07)"><path fill="#121723" d="M 88.261719 83.847656 L 84.25 83.847656 L 84.25 27.363281 C 84.25 26.566406 83.609375 25.925781 82.8125 25.925781 L 46.414062 25.925781 L 46.414062 1.785156 C 46.414062 0.992188 45.769531 0.347656 44.976562 0.347656 L 7.140625 0.347656 C 6.34375 0.347656 5.703125 0.992188 5.703125 1.785156 L 5.703125 83.847656 L 1.695312 83.847656 C 0.902344 83.847656 0.257812 84.492188 0.257812 85.285156 C 0.257812 86.078125 0.902344 86.722656 1.695312 86.722656 L 88.261719 86.722656 C 89.058594 86.722656 89.699219 86.078125 89.699219 85.285156 C 89.699219 84.492188 89.054688 83.847656 88.261719 83.847656 Z M 8.578125 3.222656 L 43.539062 3.222656 L 43.539062 83.847656 L 8.578125 83.847656 Z M 46.414062 83.847656 L 46.414062 28.800781 L 81.378906 28.800781 L 81.378906 83.847656 Z M 22.539062 67.992188 L 15.667969 67.992188 C 14.875 67.992188 14.230469 68.636719 14.230469 69.429688 L 14.230469 76.828125 C 14.230469 77.621094 14.875 78.265625 15.667969 78.265625 L 22.539062 78.265625 C 23.332031 78.265625 23.976562 77.621094 23.976562 76.828125 L 23.976562 69.429688 C 23.976562 68.636719 23.332031 67.992188 22.539062 67.992188 Z M 21.101562 75.390625 L 17.109375 75.390625 L 17.109375 70.867188 L 21.101562 70.867188 Z M 22.539062 8.804688 L 15.667969 8.804688 C 14.875 8.804688 14.230469 9.449219 14.230469 10.242188 L 14.230469 17.640625 C 14.230469 18.4375 14.875 19.078125 15.667969 19.078125 L 22.539062 19.078125 C 23.332031 19.078125 23.976562 18.4375 23.976562 17.640625 L 23.976562 10.242188 C 23.976562 9.449219 23.332031 8.804688 22.539062 8.804688 Z M 21.101562 16.203125 L 17.109375 16.203125 L 17.109375 11.679688 L 21.101562 11.679688 Z M 36.449219 38.398438 L 29.582031 38.398438 C 28.785156 38.398438 28.140625 39.042969 28.140625 39.835938 L 28.140625 47.234375 C 28.140625 48.03125 28.785156 48.671875 29.582031 48.671875 L 36.449219 48.671875 C 37.242188 48.671875 37.886719 48.03125 37.886719 47.234375 L 37.886719 39.835938 C 37.886719 39.042969 37.242188 38.398438 36.449219 38.398438 Z M 35.011719 45.796875 L 31.019531 45.796875 L 31.019531 41.273438 L 35.011719 41.273438 Z M 22.539062 23.601562 L 15.667969 23.601562 C 14.875 23.601562 14.230469 24.246094 14.230469 25.039062 L 14.230469 32.4375 C 14.230469 33.230469 14.875 33.875 15.667969 33.875 L 22.539062 33.875 C 23.332031 33.875 23.976562 33.230469 23.976562 32.4375 L 23.976562 25.039062 C 23.976562 24.246094 23.332031 23.601562 22.539062 23.601562 Z M 21.101562 31 L 17.109375 31 L 17.109375 26.476562 L 21.101562 26.476562 Z M 22.539062 53.195312 L 15.667969 53.195312 C 14.875 53.195312 14.230469 53.839844 14.230469 54.632812 L 14.230469 62.03125 C 14.230469 62.824219 14.875 63.46875 15.667969 63.46875 L 22.539062 63.46875 C 23.332031 63.46875 23.976562 62.824219 23.976562 62.03125 L 23.976562 54.632812 C 23.976562 53.839844 23.332031 53.195312 22.539062 53.195312 Z M 21.101562 60.59375 L 17.109375 60.59375 L 17.109375 56.070312 L 21.101562 56.070312 Z M 22.539062 38.398438 L 15.667969 38.398438 C 14.875 38.398438 14.230469 39.042969 14.230469 39.835938 L 14.230469 47.234375 C 14.230469 48.03125 14.875 48.671875 15.667969 48.671875 L 22.539062 48.671875 C 23.332031 48.671875 23.976562 48.03125 23.976562 47.234375 L 23.976562 39.835938 C 23.976562 39.042969 23.332031 38.398438 22.539062 38.398438 Z M 21.101562 45.796875 L 17.109375 45.796875 L 17.109375 41.273438 L 21.101562 41.273438 Z M 36.449219 53.195312 L 29.582031 53.195312 C 28.785156 53.195312 28.140625 53.839844 28.140625 54.632812 L 28.140625 62.03125 C 28.140625 62.824219 28.785156 63.46875 29.582031 63.46875 L 36.449219 63.46875 C 37.242188 63.46875 37.886719 62.824219 37.886719 62.03125 L 37.886719 54.632812 C 37.886719 53.839844 37.242188 53.195312 36.449219 53.195312 Z M 35.011719 60.59375 L 31.019531 60.59375 L 31.019531 56.070312 L 35.011719 56.070312 Z M 36.449219 23.601562 L 29.582031 23.601562 C 28.785156 23.601562 28.140625 24.246094 28.140625 25.039062 L 28.140625 32.4375 C 28.140625 33.230469 28.785156 33.875 29.582031 33.875 L 36.449219 33.875 C 37.242188 33.875 37.886719 33.230469 37.886719 32.4375 L 37.886719 25.039062 C 37.886719 24.246094 37.242188 23.601562 36.449219 23.601562 Z M 35.011719 31 L 31.019531 31 L 31.019531 26.476562 L 35.011719 26.476562 Z M 36.449219 8.804688 L 29.582031 8.804688 C 28.785156 8.804688 28.140625 9.449219 28.140625 10.242188 L 28.140625 17.640625 C 28.140625 18.4375 28.785156 19.078125 29.582031 19.078125 L 36.449219 19.078125 C 37.242188 19.078125 37.886719 18.4375 37.886719 17.640625 L 37.886719 10.242188 C 37.886719 9.449219 37.242188 8.804688 36.449219 8.804688 Z M 35.011719 16.203125 L 31.019531 16.203125 L 31.019531 11.679688 L 35.011719 11.679688 Z M 36.449219 67.992188 L 29.582031 67.992188 C 28.785156 67.992188 28.140625 68.636719 28.140625 69.429688 L 28.140625 76.828125 C 28.140625 77.621094 28.785156 78.265625 29.582031 78.265625 L 36.449219 78.265625 C 37.242188 78.265625 37.886719 77.621094 37.886719 76.828125 L 37.886719 69.429688 C 37.886719 68.636719 37.242188 67.992188 36.449219 67.992188 Z M 35.011719 75.390625 L 31.019531 75.390625 L 31.019531 70.867188 L 35.011719 70.867188 Z M 74.285156 51.1875 L 67.417969 51.1875 C 66.621094 51.1875 65.980469 51.832031 65.980469 52.625 L 65.980469 60.023438 C 65.980469 60.816406 66.621094 61.460938 67.417969 61.460938 L 74.285156 61.460938 C 75.078125 61.460938 75.722656 60.816406 75.722656 60.023438 L 75.722656 52.625 C 75.722656 51.832031 75.078125 51.1875 74.285156 51.1875 Z M 72.847656 58.585938 L 68.855469 58.585938 L 68.855469 54.0625 L 72.847656 54.0625 Z M 74.285156 36.390625 L 67.417969 36.390625 C 66.621094 36.390625 65.980469 37.035156 65.980469 37.828125 L 65.980469 45.226562 C 65.980469 46.023438 66.621094 46.664062 67.417969 46.664062 L 74.285156 46.664062 C 75.078125 46.664062 75.722656 46.023438 75.722656 45.226562 L 75.722656 37.828125 C 75.722656 37.035156 75.078125 36.390625 74.285156 36.390625 Z M 72.847656 43.789062 L 68.855469 43.789062 L 68.855469 39.265625 L 72.847656 39.265625 Z M 74.285156 65.984375 L 67.417969 65.984375 C 66.621094 65.984375 65.980469 66.628906 65.980469 67.421875 L 65.980469 74.820312 C 65.980469 75.613281 66.621094 76.257812 67.417969 76.257812 L 74.285156 76.257812 C 75.078125 76.257812 75.722656 75.613281 75.722656 74.820312 L 75.722656 67.421875 C 75.722656 66.628906 75.078125 65.984375 74.285156 65.984375 Z M 72.847656 73.382812 L 68.855469 73.382812 L 68.855469 68.859375 L 72.847656 68.859375 Z M 60.378906 65.984375 L 53.507812 65.984375 C 52.714844 65.984375 52.070312 66.628906 52.070312 67.421875 L 52.070312 74.820312 C 52.070312 75.613281 52.714844 76.257812 53.507812 76.257812 L 60.378906 76.257812 C 61.171875 76.257812 61.816406 75.613281 61.816406 74.820312 L 61.816406 67.421875 C 61.816406 66.628906 61.171875 65.984375 60.378906 65.984375 Z M 58.941406 73.382812 L 54.945312 73.382812 L 54.945312 68.859375 L 58.941406 68.859375 Z M 60.378906 51.1875 L 53.507812 51.1875 C 52.714844 51.1875 52.070312 51.832031 52.070312 52.625 L 52.070312 60.023438 C 52.070312 60.816406 52.714844 61.460938 53.507812 61.460938 L 60.378906 61.460938 C 61.171875 61.460938 61.816406 60.816406 61.816406 60.023438 L 61.816406 52.625 C 61.816406 51.832031 61.171875 51.1875 60.378906 51.1875 Z M 58.941406 58.585938 L 54.945312 58.585938 L 54.945312 54.0625 L 58.941406 54.0625 Z M 60.378906 36.390625 L 53.507812 36.390625 C 52.714844 36.390625 52.070312 37.035156 52.070312 37.828125 L 52.070312 45.226562 C 52.070312 46.023438 52.714844 46.664062 53.507812 46.664062 L 60.378906 46.664062 C 61.171875 46.664062 61.816406 46.023438 61.816406 45.226562 L 61.816406 37.828125 C 61.816406 37.035156 61.171875 36.390625 60.378906 36.390625 Z M 58.941406 43.789062 L 54.945312 43.789062 L 54.945312 39.265625 L 58.941406 39.265625 Z M 58.941406 43.789062 " fill-opacity="1" fill-rule="nonzero"/></g></g></g></g><g mask="url(#4d596dde57)"><g transform="matrix(1, 0, 0, 1, 35, 201)"><g clip-path="url(#5464d05e9d)"><g clip-path="url(#ca81c3434c)"><path fill="#14748a" d="M 39.167969 48.4375 L 51.066406 35.886719 L 62.660156 48.4375 L 62.660156 128.84375 L 39.167969 128.84375 Z M 39.167969 48.4375 " fill-opacity="1" fill-rule="nonzero"/></g><g clip-path="url(#dcf276ea73)"><path fill="#14748a" d="M 100.101562 64.75 C 100.101562 64.71875 100.101562 64.691406 100.101562 64.660156 C 100.101562 62.332031 99.003906 63.523438 97.183594 65.492188 C 95.042969 67.8125 91.898438 71.214844 88.382812 71.214844 C 84.871094 71.214844 81.71875 67.824219 79.5625 65.503906 C 77.726562 63.527344 76.613281 62.328125 76.613281 64.660156 C 76.613281 64.691406 76.613281 64.71875 76.613281 64.75 L 76.613281 128.804688 L 100.101562 128.804688 Z M 100.101562 64.75 " fill-opacity="1" fill-rule="evenodd"/></g><g clip-path="url(#15e13afcd3)"><path fill="#14748a" d="M 116.464844 45.605469 L 139.957031 22.238281 L 139.957031 128.84375 L 116.464844 128.84375 Z M 116.464844 45.605469 " fill-opacity="1" fill-rule="nonzero"/></g><g clip-path="url(#ccf95104ef)"><path fill="#14748a" d="M 11.226562 77.914062 L 0.722656 65.394531 L 0.722656 71.535156 C 0.65625 71.691406 0.621094 71.929688 0.621094 72.257812 C 0.621094 72.582031 0.65625 72.90625 0.722656 73.222656 L 0.722656 128.84375 L 24.210938 128.84375 L 24.210938 65.394531 L 13.226562 77.9375 C 12.933594 77.984375 12.640625 78.007812 12.339844 78.007812 C 11.964844 78.007812 11.59375 77.976562 11.226562 77.914062 Z M 11.226562 77.914062 " fill-opacity="1" fill-rule="evenodd"/></g><g clip-path="url(#679b56a3c1)"><path fill="#000000" d="M 142.039062 21.4375 L 147.621094 0.597656 L 126.933594 6.503906 L 130.648438 10.179688 L 88.929688 52.320312 L 54.777344 16.953125 L 51.015625 12.824219 L 43.757812 21.132812 L 43.644531 21.257812 L 43.644531 21.261719 L 10.671875 59.035156 L 1.585938 49.882812 L 1.585938 62.71875 L 12.183594 74.503906 L 13.140625 73.28125 L 51.285156 29.425781 L 80.585938 60.746094 L 80.558594 60.773438 L 82.730469 63.039062 L 87.464844 68.09375 L 87.527344 68.03125 L 88.46875 69.011719 L 139.011719 18.445312 Z M 142.039062 21.4375 " fill-opacity="1" fill-rule="evenodd"/></g></g></g></g><g mask="url(#a769882a8c)"><g transform="matrix(1, 0, 0, 1, 201, 186)"><g clip-path="url(#201f52c483)"><g clip-path="url(#de0f3c7247)"><g clip-path="url(#211c3ae604)"><g clip-path="url(#bb58923dfe)"><g clip-path="url(#48ac45e4da)"><path fill="#000000" d="M 105.878906 41.300781 L 105.882812 41.292969 C 106.121094 40.261719 106.269531 39.199219 106.320312 38.144531 C 106.359375 37.308594 105.71875 36.601562 104.886719 36.5625 C 104.058594 36.523438 103.351562 37.171875 103.3125 38.003906 C 103.269531 38.878906 103.136719 39.769531 102.945312 40.613281 C 102.816406 41.171875 102.648438 41.734375 102.453125 42.277344 C 102.167969 43.066406 102.570312 43.925781 103.351562 44.210938 C 104.132812 44.496094 104.996094 44.089844 105.28125 43.308594 C 105.519531 42.652344 105.722656 41.976562 105.878906 41.300781 Z M 100.171875 50.457031 C 100.277344 50.003906 100.171875 49.511719 99.851562 49.132812 C 99.3125 48.496094 98.363281 48.421875 97.726562 48.964844 C 96.621094 49.910156 95.371094 50.75 94.011719 51.457031 C 93.273438 51.839844 92.984375 52.753906 93.367188 53.492188 C 93.75 54.234375 94.65625 54.523438 95.398438 54.136719 C 96.960938 53.324219 98.402344 52.355469 99.679688 51.261719 C 99.9375 51.042969 100.101562 50.757812 100.171875 50.457031 Z M 104.328125 29.675781 C 104.40625 29.339844 104.371094 28.976562 104.203125 28.648438 C 103.453125 27.164062 102.503906 25.71875 101.382812 24.347656 C 100.855469 23.703125 99.902344 23.609375 99.261719 24.140625 C 98.617188 24.667969 98.523438 25.621094 99.050781 26.265625 C 100.035156 27.46875 100.863281 28.730469 101.515625 30.019531 C 101.894531 30.761719 102.800781 31.058594 103.542969 30.679688 C 103.953125 30.46875 104.230469 30.09375 104.328125 29.675781 Z M 87.574219 55.800781 C 87.617188 55.625 87.625 55.441406 87.601562 55.253906 C 87.484375 54.425781 86.726562 53.847656 85.902344 53.964844 C 85.367188 54.039062 84.8125 54.101562 84.265625 54.148438 C 83.269531 54.230469 82.261719 54.289062 81.261719 54.316406 C 80.429688 54.339844 79.773438 55.03125 79.796875 55.867188 C 79.816406 56.699219 80.511719 57.359375 81.339844 57.335938 C 82.398438 57.304688 83.464844 57.246094 84.515625 57.15625 C 85.121094 57.105469 85.722656 57.039062 86.3125 56.957031 C 86.949219 56.867188 87.4375 56.390625 87.574219 55.800781 Z M 59.582031 134.546875 C 59.773438 133.742188 59.859375 132.910156 59.851562 132.070312 C 59.839844 131.238281 59.15625 130.570312 58.324219 130.582031 C 57.492188 130.59375 56.828125 131.28125 56.835938 132.113281 C 56.855469 133.46875 56.503906 134.777344 55.8125 135.910156 C 55.378906 136.625 55.601562 137.554688 56.3125 137.988281 C 57.023438 138.421875 57.949219 138.195312 58.382812 137.484375 C 58.9375 136.570312 59.339844 135.582031 59.582031 134.546875 Z M 73.742188 55.78125 C 73.761719 55.699219 73.773438 55.617188 73.78125 55.53125 C 73.835938 54.699219 73.203125 53.980469 72.371094 53.929688 C 70.726562 53.828125 69.074219 53.769531 67.46875 53.757812 C 66.640625 53.753906 65.960938 54.429688 65.953125 55.261719 C 65.945312 56.097656 66.617188 56.777344 67.449219 56.78125 C 68.996094 56.789062 70.589844 56.847656 72.179688 56.945312 C 72.925781 56.992188 73.578125 56.488281 73.742188 55.785156 Z M 56.019531 124.480469 C 56.136719 123.972656 55.992188 123.417969 55.585938 123.039062 C 54.4375 121.949219 53.085938 120.996094 51.574219 120.203125 L 51.289062 120.054688 C 50.550781 119.675781 49.640625 119.96875 49.261719 120.714844 C 48.878906 121.457031 49.175781 122.363281 49.914062 122.746094 L 50.171875 122.878906 C 51.441406 123.546875 52.566406 124.339844 53.515625 125.238281 C 54.121094 125.808594 55.074219 125.78125 55.644531 125.175781 C 55.835938 124.972656 55.960938 124.734375 56.019531 124.480469 Z M 51.183594 141.835938 C 51.234375 141.625 51.238281 141.398438 51.1875 141.175781 C 51.015625 140.359375 50.214844 139.839844 49.398438 140.019531 C 48.007812 140.320312 46.5625 140.382812 45.105469 140.203125 C 44.28125 140.105469 43.53125 140.695312 43.425781 141.519531 C 43.324219 142.351562 43.910156 143.101562 44.738281 143.203125 C 46.527344 143.421875 48.308594 143.34375 50.03125 142.972656 C 50.621094 142.84375 51.054688 142.386719 51.183594 141.835938 Z M 59.90625 56.082031 C 59.945312 55.917969 59.957031 55.746094 59.9375 55.570312 C 59.84375 54.738281 59.097656 54.144531 58.269531 54.238281 C 56.617188 54.429688 54.976562 54.675781 53.394531 54.976562 C 52.578125 55.132812 52.039062 55.921875 52.191406 56.742188 C 52.347656 57.5625 53.132812 58.101562 53.953125 57.945312 C 55.460938 57.660156 57.03125 57.421875 58.609375 57.242188 C 59.261719 57.167969 59.765625 56.6875 59.90625 56.082031 Z M 43.550781 118.816406 C 43.558594 118.796875 43.5625 118.777344 43.566406 118.753906 C 43.722656 117.9375 43.1875 117.144531 42.371094 116.992188 C 40.71875 116.675781 39.035156 116.484375 37.359375 116.425781 C 36.527344 116.394531 35.828125 117.042969 35.796875 117.878906 C 35.765625 118.710938 36.414062 119.414062 37.246094 119.441406 C 38.769531 119.5 40.304688 119.671875 41.804688 119.957031 C 42.601562 120.109375 43.371094 119.601562 43.554688 118.816406 Z M 38.023438 138.828125 C 38.164062 138.21875 37.917969 137.5625 37.359375 137.210938 C 36.144531 136.441406 34.894531 135.519531 33.644531 134.472656 C 33.007812 133.933594 32.058594 134.019531 31.523438 134.65625 C 30.988281 135.296875 31.070312 136.25 31.707031 136.785156 C 33.058594 137.921875 34.417969 138.925781 35.75 139.765625 C 36.453125 140.210938 37.382812 140 37.828125 139.292969 C 37.921875 139.144531 37.984375 138.988281 38.023438 138.828125 Z M 46.414062 59.148438 C 46.476562 58.878906 46.46875 58.589844 46.371094 58.3125 C 46.097656 57.523438 45.242188 57.105469 44.453125 57.378906 C 42.882812 57.925781 41.335938 58.53125 39.851562 59.183594 C 39.089844 59.519531 38.742188 60.410156 39.074219 61.175781 C 39.410156 61.9375 40.296875 62.285156 41.058594 61.949219 C 42.46875 61.332031 43.941406 60.753906 45.4375 60.234375 C 45.945312 60.054688 46.300781 59.636719 46.414062 59.148438 Z M 27.761719 129.574219 C 27.867188 129.121094 27.761719 128.621094 27.433594 128.242188 C 26.910156 127.632812 26.390625 127.011719 25.878906 126.378906 C 25.398438 125.78125 24.925781 125.175781 24.472656 124.570312 C 23.972656 123.902344 23.03125 123.765625 22.363281 124.265625 C 21.695312 124.765625 21.558594 125.710938 22.058594 126.378906 C 22.53125 127.015625 23.03125 127.65625 23.539062 128.285156 C 24.066406 128.9375 24.605469 129.585938 25.152344 130.21875 C 25.695312 130.847656 26.648438 130.917969 27.277344 130.371094 C 27.527344 130.152344 27.691406 129.871094 27.761719 129.570312 Z M 29.816406 119.269531 C 29.871094 119.03125 29.871094 118.78125 29.804688 118.53125 C 29.585938 117.726562 28.757812 117.25 27.957031 117.46875 C 26.277344 117.929688 24.671875 118.53125 23.179688 119.261719 C 22.429688 119.628906 22.121094 120.535156 22.484375 121.285156 C 22.847656 122.03125 23.75 122.34375 24.5 121.976562 C 25.820312 121.328125 27.246094 120.792969 28.742188 120.386719 C 29.296875 120.234375 29.695312 119.792969 29.816406 119.269531 Z M 33.976562 65.214844 C 34.070312 64.824219 34.007812 64.402344 33.769531 64.042969 C 33.3125 63.34375 32.378906 63.152344 31.683594 63.609375 C 30.289062 64.53125 28.9375 65.515625 27.667969 66.550781 C 27.019531 67.078125 26.921875 68.027344 27.445312 68.675781 C 27.96875 69.324219 28.917969 69.421875 29.566406 68.894531 C 30.757812 67.925781 32.023438 66.996094 33.335938 66.132812 C 33.671875 65.914062 33.894531 65.578125 33.976562 65.214844 Z M 19.941406 118.152344 C 20.019531 117.816406 19.984375 117.453125 19.816406 117.121094 C 19.101562 115.71875 18.457031 114.285156 17.902344 112.855469 C 17.597656 112.078125 16.722656 111.695312 15.949219 112 C 15.171875 112.304688 14.789062 113.179688 15.09375 113.957031 C 15.683594 115.480469 16.371094 117.007812 17.132812 118.5 C 17.507812 119.242188 18.417969 119.535156 19.160156 119.152344 C 19.570312 118.941406 19.84375 118.570312 19.941406 118.152344 Z M 18.03125 126.296875 C 18.140625 125.832031 18.027344 125.320312 17.679688 124.9375 C 17.121094 124.320312 16.167969 124.273438 15.550781 124.835938 C 14.414062 125.878906 13.222656 127.019531 12.015625 128.234375 C 11.425781 128.828125 11.429688 129.785156 12.019531 130.371094 C 12.609375 130.960938 13.5625 130.957031 14.148438 130.367188 C 15.320312 129.183594 16.472656 128.074219 17.578125 127.070312 C 17.8125 126.855469 17.964844 126.582031 18.03125 126.296875 Z M 23.6875 74.453125 C 23.816406 73.90625 23.632812 73.3125 23.171875 72.9375 C 22.523438 72.410156 21.574219 72.511719 21.050781 73.160156 C 19.996094 74.464844 19.015625 75.835938 18.136719 77.234375 C 17.691406 77.941406 17.90625 78.875 18.609375 79.316406 C 19.3125 79.757812 20.242188 79.546875 20.6875 78.839844 C 21.5 77.542969 22.410156 76.269531 23.390625 75.0625 C 23.539062 74.875 23.636719 74.667969 23.6875 74.453125 Z M 8.371094 136.273438 C 8.492188 135.753906 8.332031 135.183594 7.90625 134.800781 C 7.285156 134.246094 6.332031 134.304688 5.78125 134.929688 C 5.132812 135.65625 4.53125 136.34375 3.972656 136.980469 C 3.46875 137.550781 3.007812 138.082031 2.585938 138.554688 C 2.035156 139.179688 2.085938 140.132812 2.707031 140.6875 C 3.328125 141.242188 4.28125 141.183594 4.835938 140.5625 C 5.257812 140.085938 5.726562 139.550781 6.234375 138.972656 C 6.789062 138.34375 7.390625 137.660156 8.03125 136.933594 C 8.203125 136.738281 8.316406 136.511719 8.375 136.273438 Z M 15.566406 105.03125 C 15.609375 104.84375 15.617188 104.644531 15.585938 104.445312 C 15.332031 102.90625 15.175781 101.351562 15.109375 99.820312 C 15.078125 98.988281 14.375 98.34375 13.542969 98.375 C 12.710938 98.410156 12.066406 99.117188 12.101562 99.949219 C 12.167969 101.601562 12.339844 103.28125 12.609375 104.9375 C 12.746094 105.757812 13.519531 106.316406 14.339844 106.179688 C 14.960938 106.078125 15.429688 105.609375 15.566406 105.03125 Z M 17 86.542969 C 17.175781 85.796875 16.753906 85.019531 16.015625 84.769531 C 15.226562 84.503906 14.371094 84.929688 14.105469 85.722656 C 13.574219 87.304688 13.140625 88.9375 12.8125 90.578125 C 12.652344 91.394531 13.179688 92.191406 13.996094 92.351562 C 14.8125 92.515625 15.613281 91.988281 15.769531 91.164062 C 16.070312 89.648438 16.46875 88.144531 16.960938 86.683594 C 16.976562 86.636719 16.992188 86.589844 17 86.542969 Z M 17 86.542969 " fill-opacity="1" fill-rule="nonzero"/></g></g></g></g><g clip-path="url(#5bb45a426e)"><g clip-path="url(#6a75af296f)"><g clip-path="url(#ec1e76fb1b)"><g clip-path="url(#20e3e45a6a)"><path fill="#000000" d="M 98.046875 20.945312 L 108.675781 22.933594 C 109.085938 23.011719 109.28125 22.445312 108.90625 22.253906 L 93.800781 14.554688 C 93.550781 14.429688 93.257812 14.621094 93.269531 14.898438 L 94.167969 32.007812 C 94.1875 32.421875 94.78125 32.480469 94.882812 32.074219 L 97.628906 21.210938 C 97.675781 21.023438 97.859375 20.90625 98.046875 20.941406 Z M 98.046875 20.945312 " fill-opacity="1" fill-rule="nonzero"/></g></g></g></g></g></g></g></svg>